<?xml version="1.0" encoding="UTF-8" standalone="no"?>
<!DOCTYPE svg PUBLIC "-//W3C//DTD SVG 1.1//EN" "http://www.w3.org/Graphics/SVG/1.1/DTD/svg11.dtd">
<!-- Created with Vectornator (http://vectornator.io/) -->
<svg height="100%" stroke-miterlimit="10" style="fill-rule:nonzero;clip-rule:evenodd;stroke-linecap:round;stroke-linejoin:round;" version="1.1" viewBox="152 92.9375 719.6 843.57" width="100%" xml:space="preserve" xmlns="http://www.w3.org/2000/svg" xmlns:vectornator="http://vectornator.io" xmlns:xlink="http://www.w3.org/1999/xlink">
<defs/>
<g id="Layer-1" vectornator:layerName="Layer 1">
<path d="M487.5 94.5C472.5 96.1667 456.5 99.6667 439.5 105C422.5 110.333 406.5 117.333 391.5 126C376.5 134.667 365.5 141.833 358.5 147.5C351.5 153.167 344 160 336 168C328 176 318.667 187.333 308 202C297.333 216.667 288.333 231.167 281 245.5C273.667 259.833 267.833 273.667 263.5 287C259.167 300.333 255.833 314.833 253.5 330.5C252.333 338.333 251.167 346.167 250 354C245.667 350.833 241.333 347.667 237 344.5C228.333 338.167 219.833 330.833 211.5 322.5C203.167 314.167 195 304.5 187 293.5C179 282.5 172.5 272 167.5 262C165 257 162.5 252 160 247C159.333 247.833 158.667 248.667 158 249.5C156.667 251.167 155.333 256.167 154 264.5C152.667 272.833 152 284.167 152 298.5C152 312.833 153.5 328.167 156.5 344.5C159.5 360.833 163.833 376.833 169.5 392.5C175.167 408.167 181 421.833 187 433.5C193 445.167 199.167 456 205.5 466C211.833 476 219.5 486.833 228.5 498.5C237.5 510.167 245.667 519.833 253 527.5C260.333 535.167 264.167 542.5 264.5 549.5C264.833 556.5 266.167 564.167 268.5 572.5C270.833 580.833 274.333 588.667 279 596C283.667 603.333 289.667 610.167 297 616.5C304.333 622.833 310.167 633.5 314.5 648.5C318.833 663.5 327.667 676 341 686C354.333 696 363.333 704.833 368 712.5C372.667 720.167 390.667 745.5 422 788.5C453.333 831.5 473.333 860.833 482 876.5C490.667 892.167 497.5 906 502.5 918C507.5 930 510.5 936.167 511.5 936.5C512.5 936.833 518.167 926.5 528.5 905.5C538.833 884.5 549.333 865.833 560 849.5C570.667 833.167 587.333 810 610 780C632.667 750 647.167 730 653.5 720C659.833 710 669.667 699.833 683 689.5C696.333 679.167 705 666 709 650C713 634 718.833 622.667 726.5 616C734.167 609.333 740.5 601.833 745.5 593.5C750.5 585.167 754 577.5 756 570.5C758 563.5 759.5 555.667 760.5 547C761.5 538.333 767.667 528 779 516C790.333 504 802.167 488.5 814.5 469.5C826.833 450.5 836 434.5 842 421.5C848 408.5 852.833 396.667 856.5 386C860.167 375.333 863.5 362.333 866.5 347C869.5 331.667 871.167 317.5 871.5 304.5C871.833 291.5 871.333 279.5 870 268.5C868.667 257.5 867.833 251.333 867.5 250C867.167 248.667 866.333 247.833 865 247.5C863.667 247.167 861 251.5 857 260.5C853 269.5 847.667 278.667 841 288C834.333 297.333 826.833 306.167 818.5 314.5C810.167 322.833 800.167 331.333 788.5 340C782.667 344.333 776.833 348.667 771 353C770 345.833 769 338.667 768 331.5C766 317.167 762.333 301.833 757 285.5C751.667 269.167 744.667 252.833 736 236.5C727.333 220.167 716.667 203.667 704 187C691.333 170.333 679.667 157.5 669 148.5C658.333 139.5 645.667 131 631 123C616.333 115 605.333 109.667 598 107C590.667 104.333 581.333 101.667 570 99C558.667 96.3333 545.833 94.5 531.5 93.5C517.167 92.5 502.5 92.8333 487.5 94.5ZM529 120.5C543.667 121.5 558.333 124.167 573 128.5C587.667 132.833 601.833 138.667 615.5 146C629.167 153.333 641.333 161.667 652 171C662.667 180.333 673.5 192.333 684.5 207C695.5 221.667 704.833 236.333 712.5 251C720.167 265.667 726.833 282 732.5 300C738.167 318 741.667 331.5 743 340.5C744.333 349.5 745 357 745 363C745 369 744.167 376.833 742.5 386.5C740.833 396.167 738.5 404.833 735.5 412.5C732.5 420.167 731.667 436 733 460C734.333 484 735 501.5 735 512.5C735 523.5 734.5 533.667 733.5 543C732.5 552.333 731.333 559 730 563C728.667 567 726.333 571.833 723 577.5C719.667 583.167 716.5 587.667 713.5 591C710.5 594.333 705.667 598.5 699 603.5C692.333 608.5 687.333 618.667 684 634C680.667 649.333 673.333 661.167 662 669.5C650.667 677.833 638.167 691.833 624.5 711.5C610.833 731.167 596 750.833 580 770.5C564 790.167 541.5 800.333 512.5 801C483.5 801.667 459.167 789 439.5 763C419.833 737 405 716.5 395 701.5C385 686.5 374 674.667 362 666C350 657.333 341.833 645.333 337.5 630C333.167 614.667 327 603.833 319 597.5C311 591.167 305.167 585 301.5 579C297.833 573 295.333 567.667 294 563C292.667 558.333 291.667 552.5 291 545.5C290.333 538.5 290 514.333 290 473C290 431.667 287.833 406.667 283.5 398C279.167 389.333 276.833 381.333 276.5 374C276.167 366.667 277.167 354.833 279.5 338.5C281.833 322.167 285.833 306 291.5 290C297.167 274 304 259 312 245C320 231 329 218 339 206C349 194 359.667 183.167 371 173.5C382.333 163.833 393.5 155.833 404.5 149.5C415.5 143.167 428.833 137.333 444.5 132C460.167 126.667 474.5 123.167 487.5 121.5C500.5 119.833 514.333 119.5 529 120.5ZM502 366C496 378.667 493 385.833 493 387.5C493 389.167 496 396 502 408C508 420 511.333 426 512 426C512.667 426 516.167 419.667 522.5 407C528.833 394.333 529 381.167 523 367.5C517 353.833 513.5 347 512.5 347C511.5 347 508 353.333 502 366ZM827 359C832.333 359 835.667 359.333 837 360C838.333 360.667 839 361.667 839 363C839 364.333 834.833 367 826.5 371C818.167 375 811.5 378.833 806.5 382.5C801.5 386.167 794.333 392.5 785 401.5C775.667 410.5 768.333 418.167 763 424.5C760.333 427.667 757.667 430.833 755 434C755.167 429.333 755.333 424.667 755.5 420C755.833 410.667 757 404 759 400C761 396 768.5 389.167 781.5 379.5C794.5 369.833 804 364 810 362C816 360 821.667 359 827 359ZM198.5 361C206.833 361.667 215 364.333 223 369C231 373.667 238.667 378.833 246 384.5C253.333 390.167 258.333 395 261 399C263.667 403 265.167 409.5 265.5 418.5C265.667 423 265.833 427.5 266 432C265.667 432 265.333 432 265 432C264.333 432 261.167 428.333 255.5 421C249.833 413.667 243.5 406.833 236.5 400.5C229.5 394.167 221.833 388.167 213.5 382.5C205.167 376.833 198.167 372.667 192.5 370C186.833 367.333 184.333 365 185 363C185.667 361 190.167 360.333 198.5 361ZM308.5 399.5C308.167 400.5 309.833 403 313.5 407C317.167 411 319.5 419.833 320.5 433.5C321.5 447.167 324.333 461.5 329 476.5C333.667 491.5 337.167 500.667 339.5 504C341.833 507.333 345.5 511.333 350.5 516C355.5 520.667 364.833 527.333 378.5 536C392.167 544.667 404.167 547.333 414.5 544C424.833 540.667 435.167 536.667 445.5 532C455.833 527.333 465.5 519.333 474.5 508C483.5 496.667 487.833 490.167 487.5 488.5C487.167 486.833 482.833 482.333 474.5 475C466.167 467.667 450.167 455.667 426.5 439C402.833 422.333 388.667 412.833 384 410.5C379.333 408.167 373 406 365 404C357 402 345.667 400.5 331 399.5C316.333 398.5 308.833 398.5 308.5 399.5ZM678.5 401C664.833 403 653.167 406 643.5 410C633.833 414 617.667 423.833 595 439.5C572.333 455.167 557.833 465.667 551.5 471C545.167 476.333 540.667 480.833 538 484.5C535.333 488.167 538.833 496 548.5 508C558.167 520 568.667 528.5 580 533.5C591.333 538.5 601.833 542.333 611.5 545C621.167 547.667 633.5 544 648.5 534C663.5 524 672.667 517.333 676 514C679.333 510.667 682.5 506.5 685.5 501.5C688.5 496.5 691.167 489.5 693.5 480.5C695.833 471.5 698 458.5 700 441.5C702 424.5 703.833 414.5 705.5 411.5C707.167 408.5 709.333 405.833 712 403.5C714.667 401.167 716 399.667 716 399C716 398.667 716 398.333 716 398C713.167 398 710.333 398 707.5 398C701.833 398 692.167 399 678.5 401ZM378 448C388 449.333 393.667 453.5 395 460.5C396.333 467.5 398 472.5 400 475.5C402 478.5 408.333 483 419 489C429.667 495 435.333 498.5 436 499.5C436.667 500.5 436.833 501.833 436.5 503.5C436.167 505.167 433.667 506.167 429 506.5C424.333 506.833 420.667 506.667 418 506C415.333 505.333 408 502.667 396 498C384 493.333 376.167 489.833 372.5 487.5C368.833 485.167 365.667 482.5 363 479.5C360.333 476.5 358.167 472.833 356.5 468.5C354.833 464.167 354.167 460.333 354.5 457C354.833 453.667 356.333 451 359 449C361.667 447 368 446.667 378 448ZM658.5 446.5C662.167 446.833 664.667 447.667 666 449C667.333 450.333 668.333 452.167 669 454.5C669.667 456.833 669.5 460.167 668.5 464.5C667.5 468.833 665.833 472.667 663.5 476C661.167 479.333 657.5 482.667 652.5 486C647.5 489.333 638.333 493.5 625 498.5C611.667 503.5 602.333 506.167 597 506.5C591.667 506.833 588.667 506.667 588 506C587.333 505.333 587.167 503.833 587.5 501.5C587.833 499.167 592.333 495.833 601 491.5C609.667 487.167 615.5 483.667 618.5 481C621.5 478.333 624 474.833 626 470.5C628 466.167 629.333 461.833 630 457.5C630.667 453.167 634.667 450.167 642 448.5C649.333 446.833 654.833 446.167 658.5 446.5ZM251 448.5C255 449.5 258 451.167 260 453.5C262 455.833 263 462 263 472C263 477 263 482 263 487C260.667 485.667 258.333 484.333 256 483C251.333 480.333 246.833 476.5 242.5 471.5C238.167 466.5 235.833 462.5 235.5 459.5C235.167 456.5 235.333 454.333 236 453C236.667 451.667 238.333 450.333 241 449C243.667 447.667 247 447.5 251 448.5ZM777.5 448C781.167 448.667 783.833 450 785.5 452C787.167 454 788 455.833 788 457.5C788 459.167 787.5 461.167 786.5 463.5C785.5 465.833 783.167 468.833 779.5 472.5C775.833 476.167 772 479.333 768 482C766 483.333 764 484.667 762 486C761.333 481.167 760.667 476.333 760 471.5C758.667 461.833 759.167 455.833 761.5 453.5C763.833 451.167 766.167 449.5 768.5 448.5C770.833 447.5 773.833 447.333 777.5 448ZM657 574C660.333 581.333 657.5 592.667 648.5 608C644 615.667 639.5 623.333 635 631C637 629.167 639 627.333 641 625.5C645 621.833 652.333 613.667 663 601C673.667 588.333 677.333 580.5 674 577.5C670.667 574.5 666.167 571.333 660.5 568C657.667 566.333 654.833 564.667 652 563C653.667 566.667 655.333 570.333 657 574ZM358.5 571.5C350.833 576.5 346.833 579.667 346.5 581C346.167 582.333 353.167 591.167 367.5 607.5C374.667 615.667 381.833 623.833 389 632C384.5 624.333 380 616.667 375.5 609C366.5 593.667 362 585.333 362 584C362 582.667 363.667 579.333 367 574C370.333 568.667 371.667 565.667 371 565C370.333 564.333 366.167 566.5 358.5 571.5ZM474.5 630.5C472.167 631.5 471.5 634.333 472.5 639C473.5 643.667 476.5 645.833 481.5 645.5C486.5 645.167 489.833 645.333 491.5 646C493.167 646.667 495.5 648.333 498.5 651C501.5 653.667 504.5 657.167 507.5 661.5C509 663.667 510.5 665.833 512 668C514.833 664.667 517.667 661.333 520.5 658C526.167 651.333 530.167 647.5 532.5 646.5C534.833 645.5 538.333 645.167 543 645.5C547.667 645.833 550.667 644.167 552 640.5C553.333 636.833 553.5 634.167 552.5 632.5C551.5 630.833 547.833 629.833 541.5 629.5C535.167 629.167 528.5 630.5 521.5 633.5C514.5 636.5 508.667 636.667 504 634C499.333 631.333 493.833 629.833 487.5 629.5C481.167 629.167 476.833 629.5 474.5 630.5ZM469.5 704.5C452.5 714.167 444 719.333 444 720C444 720.333 444 720.667 444 721C449.333 720.833 454.667 720.667 460 720.5C470.667 720.167 480 719.333 488 718C496 716.667 507.667 716.667 523 718C538.333 719.333 551.667 720 563 720C568.667 720 574.333 720 580 720C571.333 715 562.667 710 554 705C536.667 695 527.167 690.167 525.5 690.5C523.833 690.833 521.333 692.333 518 695C514.667 697.667 510 697.5 504 694.5C498 691.5 486.5 694.833 469.5 704.5ZM494 734C486.667 734.667 482.5 735.167 481.5 735.5C480.5 735.833 480 736.5 480 737.5C480 738.5 482.667 741.833 488 747.5C493.333 753.167 498.333 759.333 503 766C507.667 772.667 510.667 776.167 512 776.5C513.333 776.833 519.167 770.167 529.5 756.5C534.667 749.667 539.833 742.833 545 736C538.333 735.5 531.667 735 525 734.5C511.667 733.5 501.333 733.333 494 734Z" fill="#000000" fill-rule="nonzero" opacity="1" stroke="none" vectornator:layerName="Curve 1"/>
</g>
</svg>
