<?xml version="1.0" encoding="UTF-8" standalone="no"?>
<!DOCTYPE svg PUBLIC "-//W3C//DTD SVG 1.1//EN" "http://www.w3.org/Graphics/SVG/1.1/DTD/svg11.dtd">
<!-- Created with Vectornator (http://vectornator.io/) -->
<svg height="100%" stroke-miterlimit="10" style="fill-rule:nonzero;clip-rule:evenodd;stroke-linecap:round;stroke-linejoin:round;" version="1.1" viewBox="174.18 124.458 678.79 773.542" width="100%" xml:space="preserve" xmlns="http://www.w3.org/2000/svg" xmlns:vectornator="http://vectornator.io" xmlns:xlink="http://www.w3.org/1999/xlink">
<defs/>
<g id="Layer-1" vectornator:layerName="Layer 1">
<path d="M459.5 129.5C439.167 133.167 422.333 137.5 409 142.5C395.667 147.5 381.667 154.333 367 163C352.333 171.667 339.167 181.333 327.5 192C315.833 202.667 306.5 212.667 299.5 222C292.5 231.333 285.833 242.333 279.5 255C273.167 267.667 268 281.833 264 297.5C260 313.167 257.5 329 256.5 345C256 353 255.5 361 255 369C252.333 367.667 249.667 366.333 247 365C241.667 362.333 235.167 360.667 227.5 360C219.833 359.333 214 359.667 210 361C206 362.333 201.833 365 197.5 369C193.167 373 189.5 381.167 186.5 393.5C183.5 405.833 179.833 424 175.5 448C171.167 472 177.5 496.5 194.5 521.5C211.5 546.5 222.5 560.167 227.5 562.5C232.5 564.833 237.667 566 243 566C245.667 566 248.333 566 251 566C249.833 574.167 248.667 582.333 247.5 590.5C246.333 598.667 245.167 606.833 244 615C248.667 613.167 253.333 611.333 258 609.5C262.667 607.667 267.333 605.833 272 604C271.833 609.167 271.667 614.333 271.5 619.5C271.167 629.833 271.333 637.333 272 642C272.667 646.667 269.5 653.667 262.5 663C255.5 672.333 250.333 680.5 247 687.5C243.667 694.5 240.833 702.5 238.5 711.5C236.167 720.5 235 729.833 235 739.5C235 749.167 235.667 756.833 237 762.5C238.333 768.167 240.667 774.667 244 782C247.333 789.333 251 795.833 255 801.5C259 807.167 266.333 814.833 277 824.5C287.667 834.167 296.833 841.333 304.5 846C312.167 850.667 319.167 854.167 325.5 856.5C328.667 857.667 331.833 858.833 335 860C332.5 855.5 330 851 327.5 846.5C322.5 837.5 318.667 827.167 316 815.5C313.333 803.833 312 795.667 312 791C312 786.333 312.667 780.167 314 772.5C315.333 764.833 317.333 757.667 320 751C322.667 744.333 324.833 740.5 326.5 739.5C327.333 739 328.167 738.5 329 738C331.167 742.5 333.333 747 335.5 751.5C339.833 760.5 345 768.667 351 776C357 783.333 360.5 786.833 361.5 786.5C362.5 786.167 365.333 782.667 370 776C374.667 769.333 377.333 766 378 766C378.667 766 379.833 772.5 381.5 785.5C383.167 798.5 387.667 809 395 817C402.333 825 411.167 832 421.5 838C431.833 844 441.167 848.167 449.5 850.5C457.833 852.833 463.833 856.333 467.5 861C471.167 865.667 476.667 871.333 484 878C491.333 884.667 497.667 889.667 503 893C508.333 896.333 512.167 898 514.5 898C516.833 898 521.667 895.667 529 891C536.333 886.333 544.5 879.167 553.5 869.5C562.5 859.833 571.167 853.667 579.5 851C587.833 848.333 594.667 845.667 600 843C605.333 840.333 611 836.833 617 832.5C623 828.167 628.833 822.833 634.5 816.5C640.167 810.167 644 800.167 646 786.5C647 779.667 648 772.833 649 766C650.833 768.5 652.667 771 654.5 773.5C658.167 778.5 661.333 782 664 784C666.667 786 670.833 783.5 676.5 776.5C682.167 769.5 687.333 761.333 692 752C696.667 742.667 699.5 738 700.5 738C701.5 738 703.5 741.667 706.5 749C709.5 756.333 711.667 763.5 713 770.5C714.333 777.5 715 784.167 715 790.5C715 796.833 713.667 805.5 711 816.5C708.333 827.5 704.5 837.5 699.5 846.5C697 851 694.5 855.5 692 860C694.5 859.167 697 858.333 699.5 857.5C704.5 855.833 711.5 852.333 720.5 847C729.5 841.667 739.5 834 750.5 824C761.5 814 769.167 805.833 773.5 799.5C777.833 793.167 781.333 787 784 781C786.667 775 788.667 769.167 790 763.5C791.333 757.833 792.167 751.5 792.5 744.5C792.833 737.5 792.5 730.667 791.5 724C790.5 717.333 788.833 710.5 786.5 703.5C784.167 696.5 780.333 688.167 775 678.5C769.667 668.833 764.833 661.333 760.5 656C756.167 650.667 754.333 645.667 755 641C755.667 636.333 755.833 629.167 755.5 619.5C755.333 614.667 755.167 609.833 755 605C759.667 606.667 764.333 608.333 769 610C773.667 611.667 778.333 613.333 783 615C781.833 606.833 780.667 598.667 779.5 590.5C778.333 582.333 777.167 574.167 776 566C779.5 565.833 783 565.667 786.5 565.5C793.5 565.167 799.167 563.667 803.5 561C807.833 558.333 818.167 544.5 834.5 519.5C850.833 494.5 856.333 468.5 851 441.5C845.667 414.5 841.667 396.333 839 387C836.333 377.667 833.333 371.5 830 368.5C826.667 365.5 822.833 363.167 818.5 361.5C814.167 359.833 809.333 359 804 359C798.667 359 792 360.5 784 363.5C780 365 776 366.5 772 368C771.5 360 771 352 770.5 344C769.5 328 766.667 311.5 762 294.5C757.333 277.5 751.167 262 743.5 248C735.833 234 729.667 224 725 218C720.333 212 714.333 205.333 707 198C699.667 190.667 689.333 182.333 676 173C662.667 163.667 647.5 155.333 630.5 148C613.5 140.667 595.5 135 576.5 131C557.5 127 538.333 124.833 519 124.5C499.667 124.167 479.833 125.833 459.5 129.5ZM519 155.5C536.333 155.833 552.667 157.5 568 160.5C583.333 163.5 596.5 167 607.5 171C618.5 175 631.333 181.333 646 190C660.667 198.667 673 207.833 683 217.5C693 227.167 701.5 237.167 708.5 247.5C715.5 257.833 721.667 270.167 727 284.5C732.333 298.833 735.667 312.167 737 324.5C737.667 330.667 738.333 336.833 739 343C738.333 343 737.667 343 737 343C735.667 343 732.5 341.333 727.5 338C722.5 334.667 719 329.333 717 322C715 314.667 712 306.667 708 298C704 289.333 698.5 280.333 691.5 271C684.5 261.667 677.5 254.333 670.5 249C667 246.333 663.5 243.667 660 241C662.333 247.667 664.667 254.333 667 261C671.667 274.333 674.667 285 676 293C677.333 301 678 306.833 678 310.5C678 314.167 677.667 316.333 677 317C676.333 317.667 657.667 328 621 348C584.333 368 548.667 378 514 378C479.333 378 443.167 367.833 405.5 347.5C367.833 327.167 349.167 312.667 349.5 304C349.833 295.333 350.833 287.5 352.5 280.5C354.167 273.5 356.833 265.333 360.5 256C364.167 246.667 365.667 241.833 365 241.5C364.333 241.167 359.833 244.833 351.5 252.5C343.167 260.167 337.5 266 334.5 270C331.5 274 327.833 280 323.5 288C319.167 296 315.333 305.5 312 316.5C308.667 327.5 304 334.833 298 338.5C295 340.333 292 342.167 289 344C288.833 341.833 288.667 339.667 288.5 337.5C288.167 333.167 288.667 326.833 290 318.5C291.333 310.167 294.167 299.833 298.5 287.5C302.833 275.167 308.5 263.5 315.5 252.5C322.5 241.5 330.167 231.667 338.5 223C346.833 214.333 356.167 206.333 366.5 199C376.833 191.667 387.167 185.5 397.5 180.5C407.833 175.5 419.5 171 432.5 167C445.5 163 458.833 160 472.5 158C486.167 156 501.667 155.167 519 155.5ZM347.5 351.5C351.833 353.167 371 363.167 405 381.5C439 399.833 475.167 409 513.5 409C551.833 409 589.667 399 627 379C664.333 359 684.333 349.333 687 350C689.667 350.667 699 356.5 715 367.5C731 378.5 738.667 389.5 738 400.5C737.333 411.5 736.333 417.5 735 418.5C733.667 419.5 724.667 415.833 708 407.5C691.333 399.167 666.167 403.667 632.5 421C598.833 438.333 571 447.167 549 447.5C538 447.667 527 447.833 516 448C518 453 520 458 522 463C526 473 533.833 477.833 545.5 477.5C557.167 477.167 565.667 479.333 571 484C576.333 488.667 581.833 492.333 587.5 495C593.167 497.667 598.167 499.5 602.5 500.5C606.833 501.5 614.333 501.667 625 501C635.667 500.333 645.333 497.667 654 493C662.667 488.333 668.833 484 672.5 480C676.167 476 679.167 472 681.5 468C683.833 464 685.167 461 685.5 459C685.833 457 685.333 455.333 684 454C682.667 452.667 676 452 664 452C652 452 645.167 453.833 643.5 457.5C641.833 461.167 638.833 464.333 634.5 467C630.167 469.667 626.333 471 623 471C619.667 471 617.167 470.667 615.5 470C613.833 469.333 612.833 468.5 612.5 467.5C612.167 466.5 623.833 460.167 647.5 448.5C671.167 436.833 690.5 435.333 705.5 444C720.5 452.667 727 466 725 484C723 502 725 516.667 731 528C737 539.333 741.333 549.333 744 558C745.333 562.333 746.667 566.667 748 571C742.167 565.5 736.333 560 730.5 554.5C718.833 543.5 709.333 535.5 702 530.5C694.667 525.5 688.667 522 684 520C681.667 519 679.333 518 677 517C681 523.667 685 530.333 689 537C697 550.333 703.167 563 707.5 575C711.833 587 714 594 714 596C714 597 714 598 714 599C713.5 599 713 599 712.5 599C711.5 599 704.667 592.833 692 580.5C679.333 568.167 667.167 557.833 655.5 549.5C643.833 541.167 632.333 534.167 621 528.5C609.667 522.833 599.833 519 591.5 517C587.333 516 583.167 515 579 514C581.167 517.5 583.333 521 585.5 524.5C589.833 531.5 592.333 536.667 593 540C593.667 543.333 599.5 548.333 610.5 555C621.5 561.667 633.5 570.333 646.5 581C659.5 591.667 673 604.167 687 618.5C701 632.833 713.5 647.167 724.5 661.5C735.5 675.833 743 687 747 695C751 703 754 711.167 756 719.5C758 727.833 758.667 736.667 758 746C757.333 755.333 755 764.333 751 773C749 777.333 747 781.667 745 786C744.333 780.167 743.667 774.333 743 768.5C741.667 756.833 738.833 746 734.5 736C730.167 726 724.167 715.667 716.5 705C708.833 694.333 700.667 684.667 692 676C683.333 667.333 671.833 657.667 657.5 647C643.167 636.333 629.167 627.333 615.5 620C601.833 612.667 588.833 606.833 576.5 602.5C564.167 598.167 553.333 595.167 544 593.5C534.667 591.833 523.333 591.167 510 591.5C496.667 591.833 483.333 593.667 470 597C456.667 600.333 442.167 605.667 426.5 613C410.833 620.333 395.667 629 381 639C366.333 649 353.5 659.167 342.5 669.5C331.5 679.833 322.333 689.667 315 699C307.667 708.333 301.333 718.333 296 729C290.667 739.667 287.167 748.5 285.5 755.5C283.833 762.5 282.833 769.167 282.5 775.5C282.333 778.667 282.167 781.833 282 785C281.667 784.833 281.333 784.667 281 784.5C280.333 784.167 278.333 780 275 772C271.667 764 269.667 755.5 269 746.5C268.333 737.5 268.833 729.167 270.5 721.5C272.167 713.833 274.833 706.167 278.5 698.5C282.167 690.833 288.667 680.667 298 668C307.333 655.333 320.5 640.167 337.5 622.5C354.5 604.833 369.5 590.667 382.5 580C395.5 569.333 407.167 561 417.5 555C427.833 549 433.667 543.333 435 538C436.333 532.667 438.667 527.667 442 523C445.333 518.333 447 515.667 447 515C447 514.667 447 514.333 447 514C446.333 514 445.667 514 445 514C443.667 514 440.667 514.667 436 516C431.333 517.333 422.667 521 410 527C397.333 533 385.667 539.667 375 547C364.333 554.333 353.833 562.5 343.5 571.5C333.167 580.5 326 587.333 322 592C318 596.667 315.333 599 314 599C313.333 599 312.667 599 312 599C312.833 595.667 313.667 592.333 314.5 589C316.167 582.333 318.5 575.333 321.5 568C324.5 560.667 327.667 553.833 331 547.5C334.333 541.167 338.5 534.5 343.5 527.5C346 524 348.5 520.5 351 517C348.333 518.167 345.667 519.333 343 520.5C337.667 522.833 331.5 526.333 324.5 531C317.5 535.667 308 543.5 296 554.5C290 560 284 565.5 278 571C280 565.5 282 560 284 554.5C288 543.5 292.5 533.5 297.5 524.5C302.5 515.5 303.833 503.333 301.5 488C299.167 472.667 298.167 463.5 298.5 460.5C298.833 457.5 306.167 452 320.5 444C334.833 436 343 432 345 432C347 432 359.333 437.667 382 449C393.333 454.667 404.667 460.333 416 466C415.167 466.833 414.333 467.667 413.5 468.5C411.833 470.167 409.167 471 405.5 471C401.833 471 397.833 469.5 393.5 466.5C389.167 463.5 386.167 460.333 384.5 457C382.833 453.667 376 452 364 452C352 452 345.333 452.833 344 454.5C342.667 456.167 342.333 458.167 343 460.5C343.667 462.833 346.667 467.5 352 474.5C357.333 481.5 361.833 486.333 365.5 489C369.167 491.667 373.833 494.167 379.5 496.5C385.167 498.833 393.167 500.333 403.5 501C413.833 501.667 423.333 500.5 432 497.5C440.667 494.5 448 490.5 454 485.5C460 480.5 469 478 481 478C493 478 501 473 505 463C507 458 509 453 511 448C500.167 447.833 489.333 447.667 478.5 447.5C456.833 447.167 429.5 438.5 396.5 421.5C363.5 404.5 346 396 344 396C342 396 333.667 400 319 408C304.333 416 296.167 419.833 294.5 419.5C292.833 419.167 291.667 418.333 291 417C290.333 415.667 289.833 409.833 289.5 399.5C289.167 389.167 297.667 378.167 315 366.5C332.333 354.833 343.167 349.833 347.5 351.5ZM224 389C226 389 232 391.333 242 396C252 400.667 257.333 407.333 258 416C258.333 420.333 258.667 424.667 259 429C257.333 429 255.667 429 254 429C250.667 429 246.167 427.333 240.5 424C234.833 420.667 230 419.833 226 421.5C222 423.167 218.5 430.167 215.5 442.5C212.5 454.833 211 462.333 211 465C211 467.667 216 476.167 226 490.5C236 504.833 242.333 512.333 245 513C247.667 513.667 250.333 512 253 508C255.667 504 258 501.333 260 500C261 499.333 262 498.667 263 498C264 500.333 265 502.667 266 505C268 509.667 269 512.833 269 514.5C269 516.167 267.333 520.167 264 526.5C260.667 532.833 256 535.833 250 535.5C244 535.167 240.333 534.5 239 533.5C237.667 532.5 231 523 219 505C207 487 201 476.5 201 473.5C201 470.5 203.5 456.833 208.5 432.5C213.5 408.167 216.833 394.833 218.5 392.5C220.167 390.167 222 389 224 389ZM803.5 389C805.833 389 807.667 390 809 392C810.333 394 813.667 408.667 819 436C824.333 463.333 821 486.167 809 504.5C797 522.833 790.333 532.5 789 533.5C787.667 534.5 784 535.167 778 535.5C772 535.833 767 532.5 763 525.5C759 518.5 758 512.333 760 507C762 501.667 763.5 498.833 764.5 498.5C765.5 498.167 766.5 498.5 767.5 499.5C768.5 500.5 770.5 503.167 773.5 507.5C776.5 511.833 779.333 513.667 782 513C784.667 512.333 791 504.833 801 490.5C811 476.167 814.833 462.333 812.5 449C810.167 435.667 808.333 428 807 426C805.667 424 804.167 422.5 802.5 421.5C800.833 420.5 798.833 420 796.5 420C794.167 420 790.167 421.5 784.5 424.5C778.833 427.5 774.667 428.833 772 428.5C769.333 428.167 768.333 424 769 416C769.667 408 775 401.5 785 396.5C795 391.5 801.167 389 803.5 389ZM778 454C778.667 454 779.667 455.167 781 457.5C782.333 459.833 783.167 462.167 783.5 464.5C783.833 466.833 782.667 470 780 474C777.333 478 775.167 480.333 773.5 481C771.833 481.667 769.333 480.833 766 478.5C762.667 476.167 761 473.667 761 471C761 468.333 761.333 466 762 464C762.667 462 765.333 459.833 770 457.5C774.667 455.167 777.333 454 778 454ZM255 457.5C259.667 459.167 262.333 460.5 263 461.5C263.667 462.5 264.167 465.167 264.5 469.5C264.833 473.833 263.5 477 260.5 479C257.5 481 255.333 482 254 482C252.667 482 250.5 479.833 247.5 475.5C244.5 471.167 243 468.167 243 466.5C243 464.833 243.833 462.5 245.5 459.5C247.167 456.5 250.333 455.833 255 457.5ZM468 507.5C462.667 512.5 458.667 517.333 456 522C453.333 526.667 451.667 532.667 451 540C450.333 547.333 450.5 551.5 451.5 552.5C452.5 553.5 461.167 557.333 477.5 564C493.833 570.667 505.667 574.167 513 574.5C520.333 574.833 532.333 571.667 549 565C565.667 558.333 574.667 554.333 576 553C577.333 551.667 578 548.667 578 544C578 539.333 576.833 534.167 574.5 528.5C572.167 522.833 567.833 516.667 561.5 510C555.167 503.333 550.833 500.333 548.5 501C546.167 501.667 545.833 507.167 547.5 517.5C549.167 527.833 544.167 535.5 532.5 540.5C520.833 545.5 508.833 545.333 496.5 540C484.167 534.667 478.833 527.167 480.5 517.5C482.167 507.833 482.5 502.5 481.5 501.5C480.5 500.5 479.333 500 478 500C476.667 500 473.333 502.5 468 507.5ZM521 623C533 623.667 546.833 626.667 562.5 632C578.167 637.333 594.5 644.833 611.5 654.5C628.5 664.167 641.333 672.5 650 679.5C658.667 686.5 664.667 691.833 668 695.5C671.333 699.167 673 704.833 673 712.5C673 720.167 671.667 728.333 669 737C667.667 741.333 666.333 745.667 665 750C663.5 746.333 662 742.667 660.5 739C657.5 731.667 654 725 650 719C646 713 640.167 706 632.5 698C624.833 690 618.5 684.333 613.5 681C611 679.333 608.5 677.667 606 676C607.333 680.667 608.667 685.333 610 690C612.667 699.333 614.5 708.333 615.5 717C616.5 725.667 616.833 735 616.5 745C616.167 755 614.5 765.333 611.5 776C608.5 786.667 604.667 795.5 600 802.5C597.667 806 595.333 809.5 593 813C593.833 810.333 594.667 807.667 595.5 805C597.167 799.667 597.833 793.167 597.5 785.5C597.167 777.833 595 770.333 591 763C587 755.667 582.833 750.5 578.5 747.5C576.333 746 574.167 744.5 572 743C571.333 748.167 570.667 753.333 570 758.5C568.667 768.833 566.167 779.667 562.5 791C558.833 802.333 554.5 812.5 549.5 821.5C544.5 830.5 537.667 839.833 529 849.5C524.667 854.333 520.333 859.167 516 864C513 861.167 510 858.333 507 855.5C501 849.833 494.667 841.833 488 831.5C481.333 821.167 476.167 811 472.5 801C468.833 791 466.333 782.167 465 774.5C463.667 766.833 463 760.667 463 756C463 753.667 463 751.333 463 749C460.833 751.667 458.667 754.333 456.5 757C452.167 762.333 448.833 768.333 446.5 775C444.167 781.667 442.833 788 442.5 794C442.167 800 443 806.5 445 813.5C446 817 447 820.5 448 824C446 822.333 444 820.667 442 819C438 815.667 434 811.167 430 805.5C426 799.833 422.5 793.667 419.5 787C416.5 780.333 414.167 772.833 412.5 764.5C410.833 756.167 410.167 745.833 410.5 733.5C410.833 721.167 412.667 708.5 416 695.5C417.667 689 419.333 682.5 421 676C418.167 678 415.333 680 412.5 682C406.833 686 400.667 691.5 394 698.5C387.333 705.5 381.667 712.5 377 719.5C372.333 726.5 368.667 733.333 366 740C364.667 743.333 363.333 746.667 362 750C360.667 745.5 359.333 741 358 736.5C355.333 727.5 354.167 719.167 354.5 711.5C354.833 703.833 358.333 696.833 365 690.5C371.667 684.167 378.833 678.167 386.5 672.5C394.167 666.833 402.167 661.5 410.5 656.5C418.833 651.5 428.833 646.333 440.5 641C452.167 635.667 463 631.5 473 628.5C483 625.5 490.5 623.667 495.5 623C500.5 622.333 509 622.333 521 623ZM493.5 639.5C488.5 640.5 482.667 642.333 476 645C469.333 647.667 463 651.333 457 656C451 660.667 448.167 664 448.5 666C448.833 668 470.333 669 513 669C555.667 669 577.333 668.667 578 668C578.667 667.333 578.833 666.167 578.5 664.5C578.167 662.833 577.333 661.333 576 660C574.667 658.667 569.5 655.5 560.5 650.5C551.5 645.5 543.5 642.167 536.5 640.5C529.5 638.833 521.833 638 513.5 638C505.167 638 498.5 638.5 493.5 639.5Z" fill="#000000" fill-rule="nonzero" opacity="1" stroke="none" vectornator:layerName="Curve 1"/>
</g>
</svg>
