<?xml version="1.0" encoding="UTF-8" standalone="no"?>
<!DOCTYPE svg PUBLIC "-//W3C//DTD SVG 1.1//EN" "http://www.w3.org/Graphics/SVG/1.1/DTD/svg11.dtd">
<!-- Created with Vectornator (http://vectornator.io/) -->
<svg height="100%" stroke-miterlimit="10" style="fill-rule:nonzero;clip-rule:evenodd;stroke-linecap:round;stroke-linejoin:round;" version="1.1" viewBox="122 148.375 782 751.625" width="100%" xml:space="preserve" xmlns="http://www.w3.org/2000/svg" xmlns:vectornator="http://vectornator.io" xmlns:xlink="http://www.w3.org/1999/xlink">
<defs/>
<g id="Layer-1" vectornator:layerName="Layer 1">
<path d="M489 149.5C479.667 150.5 470 152.167 460 154.5C450 156.833 437.5 160.5 422.5 165.5C407.5 170.5 394.167 175.5 382.5 180.5C370.833 185.5 357.833 192.333 343.5 201C329.167 209.667 315.5 219.833 302.5 231.5C289.5 243.167 280.667 251.833 276 257.5C271.333 263.167 266.333 270.167 261 278.5C255.667 286.833 250.167 298 244.5 312C238.833 326 235.333 337.167 234 345.5C232.667 353.833 232 373.333 232 404C232 419.333 232 434.667 232 450C214.167 436.833 196.333 423.667 178.5 410.5C142.833 384.167 124.5 370.833 123.5 370.5C123 370.333 122.5 370.167 122 370C122 370.5 122 371 122 371.5C122 372.5 124.667 383.333 130 404C135.333 424.667 140.833 443.667 146.5 461C152.167 478.333 159.333 498.167 168 520.5C176.667 542.833 183.833 559.833 189.5 571.5C195.167 583.167 202.167 595.833 210.5 609.5C218.833 623.167 226.5 632.333 233.5 637C240.5 641.667 248.833 644 258.5 644C268.167 644 276.333 647.5 283 654.5C289.667 661.5 299.5 686 312.5 728C325.5 770 354.5 809.167 399.5 845.5C444.5 881.833 482.167 900 512.5 900C542.833 900 580.667 881.667 626 845C671.333 808.333 700.167 769.667 712.5 729C724.833 688.333 732.667 666 736 662C739.333 658 743 654 747 650C751 646 757.833 644 767.5 644C777.167 644 784.833 642.167 790.5 638.5C796.167 634.833 800.667 631.167 804 627.5C807.333 623.833 814.333 612 825 592C835.667 572 844.167 554.333 850.5 539C856.833 523.667 864.333 503.5 873 478.5C881.667 453.5 889 429.167 895 405.5C898 393.667 901 381.833 904 370C885.5 383.333 867 396.667 848.5 410C830 423.333 811.5 436.667 793 450C793 434 793 418 793 402C793 370 792.167 349.833 790.5 341.5C788.833 333.167 786.833 325.667 784.5 319C782.167 312.333 779 305 775 297C771 289 764.333 278.667 755 266C745.667 253.333 737.167 243.333 729.5 236C721.833 228.667 714.5 222.333 707.5 217C700.5 211.667 692.667 206.333 684 201C675.333 195.667 665.333 190.333 654 185C642.667 179.667 625 173 601 165C577 157 560.667 152.333 552 151C543.333 149.667 533 148.833 521 148.5C509 148.167 498.333 148.5 489 149.5ZM522.5 177.5C532.833 177.833 543.833 179.167 555.5 181.5C567.167 183.833 579.333 187.167 592 191.5C604.667 195.833 617.833 201 631.5 207C645.167 213 657.667 219.5 669 226.5C680.333 233.5 688.5 239 693.5 243C698.5 247 705 253 713 261C721 269 728.333 277.667 735 287C741.667 296.333 747.167 305.667 751.5 315C755.833 324.333 759 333 761 341C763 349 764 376.5 764 423.5C764 470.5 759.167 508.667 749.5 538C744.667 552.667 739.833 567.333 735 582C740 574.667 745 567.333 750 560C760 545.333 770.333 529.167 781 511.5C791.667 493.833 806.667 477.833 826 463.5C835.667 456.333 845.333 449.167 855 442C852.5 449.5 850 457 847.5 464.5C842.5 479.5 835.667 497.833 827 519.5C818.333 541.167 812.5 555.167 809.5 561.5C806.5 567.833 800.667 578.167 792 592.5C783.333 606.833 773.833 614 763.5 614C758.333 614 753.167 614 748 614C751.833 609.833 755.667 605.667 759.5 601.5C767.167 593.167 776.333 585.333 787 578C797.667 570.667 803 566.5 803 565.5C803 564.5 801.833 562.667 799.5 560C797.167 557.333 795.833 549.167 795.5 535.5C795.333 528.667 795.167 521.833 795 515C791.167 522.833 787.333 530.667 783.5 538.5C775.833 554.167 765.5 570.333 752.5 587C739.5 603.667 720 625.333 694 652C668 678.667 653.833 702.833 651.5 724.5C649.167 746.167 648.167 759 648.5 763C648.667 765 648.833 767 649 769C652.833 758 656.667 747 660.5 736C668.167 714 677 697 687 685C692 679 697 673 702 667C696.5 684.667 691 702.333 685.5 720C674.5 755.333 648.833 789.333 608.5 822C568.167 854.667 536.333 871 513 871C489.667 871 457.667 854.667 417 822C376.333 789.333 350.667 755.5 340 720.5C334.667 703 329.333 685.5 324 668C328.833 673.667 333.667 679.333 338.5 685C348.167 696.333 356.833 713.167 364.5 735.5C372.167 757.833 376.333 769 377 769C377.333 769 377.667 769 378 769C378 768.333 378 767.667 378 767C378 765.667 376.667 752.833 374 728.5C371.333 704.167 356.833 678.333 330.5 651C304.167 623.667 289.667 607.833 287 603.5C284.333 599.167 278.167 591.167 268.5 579.5C258.833 567.833 250.167 554.167 242.5 538.5C238.667 530.667 234.833 522.833 231 515C230.833 521.5 230.667 528 230.5 534.5C230.167 547.5 229.5 555.167 228.5 557.5C227.5 559.833 226.333 561.5 225 562.5C223.667 563.5 223 564.667 223 566C223 567.333 228.333 571.5 239 578.5C249.667 585.5 258.667 593.167 266 601.5C269.667 605.667 273.333 609.833 277 614C272 614 267 614 262 614C252 614 241.5 604.667 230.5 586C219.5 567.333 209.667 547.333 201 526C192.333 504.667 185.167 485.833 179.5 469.5C173.833 453.167 171 444.5 171 443.5C171 443 171 442.5 171 442C171.333 442 171.667 442 172 442C172.667 442 182.333 449.333 201 464C219.667 478.667 238.667 501.5 258 532.5C277.333 563.5 287.667 579.5 289 580.5C289.667 581 290.333 581.5 291 582C286 567.333 281 552.667 276 538C266 508.667 261 470.667 261 424C261 377.333 262.333 349.167 265 339.5C267.667 329.833 270.667 321.5 274 314.5C277.333 307.5 282.333 299.167 289 289.5C295.667 279.833 302.667 271.167 310 263.5C317.333 255.833 328.5 246.667 343.5 236C358.5 225.333 371.667 217.333 383 212C394.333 206.667 407 201.5 421 196.5C435 191.5 447.667 187.5 459 184.5C470.333 181.5 481.167 179.5 491.5 178.5C501.833 177.5 512.167 177.167 522.5 177.5ZM674 283.5C674 286.5 675.833 296.5 679.5 313.5C683.167 330.5 684.833 340.833 684.5 344.5C684.167 348.167 674.333 360.167 655 380.5C635.667 400.833 623.833 413.667 619.5 419C615.167 424.333 612.5 428.333 611.5 431C611 432.333 610.5 433.667 610 435C622 427.333 634 419.667 646 412C670 396.667 684 387.333 688 384C692 380.667 694.833 377.5 696.5 374.5C698.167 371.5 699.333 368.5 700 365.5C700.667 362.5 700.667 358 700 352C699.333 346 695.5 333.167 688.5 313.5C681.5 293.833 677.333 283.167 676 281.5C675.333 280.667 674.667 279.833 674 279C674 280.5 674 282 674 283.5ZM337 315C329 338.333 325 352 325 356C325 360 325.5 363.833 326.5 367.5C327.5 371.167 330.167 375.333 334.5 380C338.833 384.667 353.333 395 378 411C390.333 419 402.667 427 415 435C415.167 434.5 415.333 434 415.5 433.5C415.833 432.5 414.167 429.5 410.5 424.5C406.833 419.5 394.5 406 373.5 384C352.5 362 341.833 348.833 341.5 344.5C341.167 340.167 342.833 328.833 346.5 310.5C350.167 292.167 351.5 282.5 350.5 281.5C350 281 349.5 280.5 349 280C345 291.667 341 303.333 337 315ZM311.5 451.5C306.5 453.833 299.5 458.333 290.5 465C281.5 471.667 276.667 475.667 276 477C275.667 477.667 275.333 478.333 275 479C284.5 478.167 294 477.333 303.5 476.5C322.5 474.833 343.5 480.833 366.5 494.5C378 501.333 389.5 508.167 401 515C393.833 514.5 386.667 514 379.5 513.5C365.167 512.5 348.5 515.167 329.5 521.5C320 524.667 310.5 527.833 301 531C305.167 537.833 309.333 544.667 313.5 551.5C321.833 565.167 327.667 573.833 331 577.5C334.333 581.167 338.5 584.667 343.5 588C348.5 591.333 352.833 593.667 356.5 595C360.167 596.333 366.167 597.333 374.5 598C382.833 598.667 389 598.667 393 598C397 597.333 406.333 594 421 588C435.667 582 446.833 583.167 454.5 591.5C458.333 595.667 462.167 599.833 466 604C466.167 595.5 466.333 587 466.5 578.5C466.833 561.5 467.333 553 468 553C468.667 553 470.167 554.5 472.5 557.5C474.833 560.5 477.167 568.833 479.5 582.5C481.833 596.167 483.333 604 484 606C484.667 608 485.333 609 486 609C486.667 609 487.333 598.5 488 577.5C488.667 556.5 488.5 544.667 487.5 542C486.5 539.333 485.167 537.167 483.5 535.5C481.833 533.833 458.833 519.5 414.5 492.5C370.167 465.5 346.167 451.333 342.5 450C338.833 448.667 334 448 328 448C322 448 316.5 449.167 311.5 451.5ZM682.5 450.5C678.167 452.167 653.333 467 608 495C562.667 523 539.5 538 538.5 540C537.5 542 537.333 554.167 538 576.5C538.333 587.667 538.667 598.833 539 610C539.333 609.833 539.667 609.667 540 609.5C540.667 609.167 542.5 601 545.5 585C548.5 569 551.167 559.667 553.5 557C555.833 554.333 557.333 553 558 553C558.667 553 559.167 561.333 559.5 578C559.667 586.333 559.833 594.667 560 603C563.667 599 567.333 595 571 591C578.333 583 589.167 581.833 603.5 587.5C617.833 593.167 627.333 596.5 632 597.5C636.667 598.5 642.333 598.833 649 598.5C655.667 598.167 661.167 597.333 665.5 596C669.833 594.667 675.667 591.5 683 586.5C690.333 581.5 698.167 572.833 706.5 560.5C714.833 548.167 719.833 540.167 721.5 536.5C722.333 534.667 723.167 532.833 724 531C714.667 527.833 705.333 524.667 696 521.5C677.333 515.167 665.333 512 660 512C654.667 512 647.333 512.833 638 514.5C633.333 515.333 628.667 516.167 624 517C624.333 516.5 624.667 516 625 515.5C625.667 514.5 637.333 507.333 660 494C682.667 480.667 703.5 474.833 722.5 476.5C732 477.333 741.5 478.167 751 479C750.833 478.5 750.667 478 750.5 477.5C750.167 476.5 744.167 471.833 732.5 463.5C720.833 455.167 713.5 450.5 710.5 449.5C707.5 448.5 703.167 448 697.5 448C691.833 448 686.833 448.833 682.5 450.5ZM493 488.39C496.5 491.39 512 502.451 512 502.451C512 502.451 526.792 490.638 529.959 487.471C527.459 484.971 514 472.207 512 471.207C510 470.207 496.167 485.223 493 488.39ZM205 525C211.667 538.333 215.833 545.833 217.5 547.5C218.333 548.333 219.167 549.167 220 550C220.667 546 221.333 542 222 538C223.333 530 219.833 522.667 211.5 516C203.167 509.333 198.333 505.833 197 505.5C196.333 505.333 195.667 505.167 195 505C198.333 511.667 201.667 518.333 205 525ZM814.5 515.5C805.5 522.5 801.667 530 803 538C803.667 542 804.333 546 805 550C805.833 549.167 806.667 548.333 807.5 547.5C809.167 545.833 812.333 540.667 817 532C821.667 523.333 825 517 827 513C829 509 829.667 506.667 829 506C828.333 505.333 823.5 508.5 814.5 515.5ZM372.5 535C373 535 373.5 535 374 535C374 537.333 374 539.667 374 542C374 546.667 375.167 550.333 377.5 553C379.833 555.667 382.667 557.333 386 558C389.333 558.667 392.833 558.167 396.5 556.5C400.167 554.833 402.667 552.833 404 550.5C405.333 548.167 406 545.167 406 541.5C406 539.667 406 537.833 406 536C406.5 536 407 536 407.5 536C408.5 536 411.833 537.5 417.5 540.5C423.167 543.5 428 547 432 551C436 555 438.5 558 439.5 560C440 561 440.5 562 441 563C433.167 565.167 425.333 567.333 417.5 569.5C401.833 573.833 391.167 575.833 385.5 575.5C379.833 575.167 375 574.333 371 573C367 571.667 363.667 570.167 361 568.5C358.333 566.833 353.667 562.5 347 555.5C343.667 552 340.333 548.5 337 545C342.667 543.333 348.333 541.667 354 540C365.333 536.667 371.5 535 372.5 535ZM653 535C659 536.667 665 538.333 671 540C677 541.667 683 543.333 689 545C685.833 548.333 682.667 551.667 679.5 555C673.167 561.667 668 566.167 664 568.5C660 570.833 653.833 572.667 645.5 574C637.167 575.333 624.833 573.667 608.5 569C600.333 566.667 592.167 564.333 584 562C586.667 559.167 589.333 556.333 592 553.5C597.333 547.833 603 543.5 609 540.5C615 537.5 618.333 536 619 536C619.667 536 620.167 538.167 620.5 542.5C620.833 546.833 622 550.167 624 552.5C626 554.833 628.167 556.5 630.5 557.5C632.833 558.5 635.333 558.833 638 558.5C640.667 558.167 643.333 557 646 555C648.667 553 650.5 551 651.5 549C652.5 547 653 544.167 653 540.5C653 538.667 653 536.833 653 535ZM473 676.5C468.333 686.833 465.667 694 465 698C464.333 702 465.5 705.833 468.5 709.5C471.5 713.167 476 716.833 482 720.5C488 724.167 493.667 729 499 735C504.333 741 508.667 744.167 512 744.5C515.333 744.833 517.833 744.5 519.5 743.5C521.167 742.5 524.333 739.167 529 733.5C533.667 727.833 538.333 723.667 543 721C547.667 718.333 551.667 715.5 555 712.5C558.333 709.5 560.333 707.333 561 706C561.667 704.667 561.833 702.333 561.5 699C561.167 695.667 558.5 688.5 553.5 677.5C548.5 666.5 545.5 661.167 544.5 661.5C543.5 661.833 543 662.5 543 663.5C543 664.5 544 670 546 680C548 690 543.833 698.167 533.5 704.5C523.167 710.833 515.833 713.833 511.5 713.5C507.167 713.167 500.333 710 491 704C481.667 698 477.833 690.5 479.5 681.5C481.167 672.5 482 666.833 482 664.5C482 663.333 482 662.167 482 661C481.667 661 481.333 661 481 661C480.333 661 477.667 666.167 473 676.5ZM466 774.5C459 776.667 452 778.833 445 781C445.333 781.5 445.667 782 446 782.5C446.667 783.5 454.5 784.333 469.5 785C484.5 785.667 494.667 787.167 500 789.5C505.333 791.833 509.5 793 512.5 793C515.5 793 519.833 791.833 525.5 789.5C531.167 787.167 541.833 785.5 557.5 784.5C565.333 784 573.167 783.5 581 783C580.833 782.5 580.667 782 580.5 781.5C580.167 780.5 573.333 778 560 774C546.667 770 537.833 768 533.5 768C529.167 768 524.833 769 520.5 771C516.167 773 511.667 773 507 771C502.333 769 497.833 768 493.5 768C489.167 768 480 770.167 466 774.5ZM469.5 808C470.5 809.333 477.667 814 491 822C504.333 830 513 833.167 517 831.5C521 829.833 528.833 825.333 540.5 818C546.333 814.333 552.167 810.667 558 807C548.167 807.333 538.333 807.667 528.5 808C508.833 808.667 493.833 808.5 483.5 807.5C478.333 807 473.167 806.5 468 806C468.5 806.667 469 807.333 469.5 808Z" fill="#000000" fill-rule="nonzero" opacity="1" stroke="none" vectornator:layerName="Curve 1"/>
</g>
</svg>
