<?xml version="1.0" encoding="UTF-8" standalone="no"?>
<!DOCTYPE svg PUBLIC "-//W3C//DTD SVG 1.1//EN" "http://www.w3.org/Graphics/SVG/1.1/DTD/svg11.dtd">
<!-- Created with Vectornator (http://vectornator.io/) -->
<svg height="100%" stroke-miterlimit="10" style="fill-rule:nonzero;clip-rule:evenodd;stroke-linecap:round;stroke-linejoin:round;" version="1.1" viewBox="134.818 102 756.182 827.4" width="100%" xml:space="preserve" xmlns="http://www.w3.org/2000/svg" xmlns:vectornator="http://vectornator.io" xmlns:xlink="http://www.w3.org/1999/xlink">
<defs/>
<g id="Layer-1" vectornator:layerName="Layer 1">
<path d="M459 106C438.333 108.667 417.833 113.333 397.5 120C377.167 126.667 361.833 132.667 351.5 138C341.167 143.333 331.333 149.167 322 155.5C312.667 161.833 304.5 168 297.5 174C290.5 180 283.167 187.167 275.5 195.5C267.833 203.833 259 215.333 249 230C239 244.667 230.833 258.667 224.5 272C218.167 285.333 213 298 209 310C205 322 201.833 333.167 199.5 343.5C197.167 353.833 195.333 364.5 194 375.5C192.667 386.5 192.333 402.5 193 423.5C193.667 444.5 193.5 455.667 192.5 457C191.5 458.333 188.833 459.333 184.5 460C180.167 460.667 175.667 462 171 464C166.333 466 161.5 469.167 156.5 473.5C151.5 477.833 146.833 484.333 142.5 493C138.167 501.667 135.667 510.667 135 520C134.333 529.333 135.5 540 138.5 552C141.5 564 146.667 578.833 154 596.5C161.333 614.167 166.333 625.333 169 630C171.667 634.667 175.667 639.833 181 645.5C186.333 651.167 191.333 655.333 196 658C200.667 660.667 206.333 662.833 213 664.5C219.667 666.167 227.333 666.833 236 666.5C244.667 666.167 249.833 666.667 251.5 668C253.167 669.333 258.167 678.833 266.5 696.5C274.833 714.167 284.333 732.333 295 751C305.667 769.667 317.167 788 329.5 806C341.833 824 355.5 842.667 370.5 862C385.5 881.333 396.667 894 404 900C411.333 906 419.167 910.833 427.5 914.5C435.833 918.167 446.667 921.333 460 924C473.333 926.667 485.667 928.333 497 929C508.333 929.667 520.333 929.5 533 928.5C545.667 927.5 558 925.667 570 923C582 920.333 592.833 916.5 602.5 911.5C612.167 906.5 620.5 900.667 627.5 894C634.5 887.333 644.667 875.167 658 857.5C671.333 839.833 684.333 821.667 697 803C709.667 784.333 719.833 768.333 727.5 755C735.167 741.667 744.167 724.167 754.5 702.5C764.833 680.833 771.167 669.333 773.5 668C775.833 666.667 780.833 666.167 788.5 666.5C796.167 666.833 803.667 666.167 811 664.5C818.333 662.833 824.333 660.667 829 658C833.667 655.333 838.333 651.667 843 647C847.667 642.333 852 636.5 856 629.5C860 622.5 866.167 608.5 874.5 587.5C882.833 566.5 887.667 552.667 889 546C890.333 539.333 891 532.667 891 526C891 519.333 890.167 512.667 888.5 506C886.833 499.333 884.667 493.667 882 489C879.333 484.333 874.667 479.167 868 473.5C861.333 467.833 854.167 464 846.5 462C838.833 460 834.5 458.333 833.5 457C832.5 455.667 832.167 444.167 832.5 422.5C832.833 400.833 832.333 384.833 831 374.5C829.667 364.167 827.333 352.167 824 338.5C820.667 324.833 816.667 311.833 812 299.5C807.333 287.167 802.667 276.333 798 267C793.333 257.667 787.667 247.833 781 237.5C774.333 227.167 766.667 216.833 758 206.5C749.333 196.167 741 187.333 733 180C725 172.667 715.833 165.333 705.5 158C695.167 150.667 681.333 142.833 664 134.5C646.667 126.167 632 120.167 620 116.5C608 112.833 596.5 110 585.5 108C574.5 106 563.667 104.5 553 103.5C542.333 102.5 529.167 102 513.5 102C497.833 102 479.667 103.333 459 106ZM522.5 145C538.833 145.667 554.167 147.5 568.5 150.5C582.833 153.5 595.167 156.833 605.5 160.5C615.833 164.167 625.167 168 633.5 172C641.833 176 652.333 182.167 665 190.5C677.667 198.833 690 208.667 702 220C714 231.333 725.167 244 735.5 258C745.833 272 755.333 287.833 764 305.5C772.667 323.167 778.5 337.167 781.5 347.5C784.5 357.833 786.5 366.167 787.5 372.5C788.5 378.833 789.167 389.667 789.5 405C789.833 420.333 789.333 433.833 788 445.5C786.667 457.167 785 467.667 783 477C781 486.333 780 493.667 780 499C780 504.333 780.833 509 782.5 513C784.167 517 787 521 791 525C795 529 798 533.167 800 537.5C802 541.833 803.167 546.167 803.5 550.5C803.833 554.833 803.5 559.833 802.5 565.5C801.5 571.167 798.833 577.5 794.5 584.5C790.167 591.5 784.5 598.167 777.5 604.5C770.5 610.833 761.5 617.5 750.5 624.5C739.5 631.5 724.333 640 705 650C685.667 660 671.667 668.667 663 676C654.333 683.333 648.167 691 644.5 699C640.833 707 639 713.667 639 719C639 724.333 639.833 728 641.5 730C643.167 732 645.333 732.5 648 731.5C650.667 730.5 653.667 727.333 657 722C660.333 716.667 665 710.833 671 704.5C677 698.167 683 693 689 689C695 685 699.167 682.833 701.5 682.5C703.833 682.167 705.5 682.667 706.5 684C707.5 685.333 707 690.333 705 699C703 707.667 697.167 721 687.5 739C677.833 757 664.333 778.5 647 803.5C629.667 828.5 616.167 846.667 606.5 858C596.833 869.333 588.5 876.5 581.5 879.5C574.5 882.5 566.167 883.833 556.5 883.5C546.833 883.167 537.667 880.333 529 875C520.333 869.667 514.167 867.167 510.5 867.5C506.833 867.833 501.833 870 495.5 874C489.167 878 482.833 880.667 476.5 882C470.167 883.333 463.833 883.667 457.5 883C451.167 882.333 445.667 880.833 441 878.5C436.333 876.167 428.833 869 418.5 857C408.167 845 395.5 828.333 380.5 807C365.5 785.667 354.5 769.167 347.5 757.5C340.5 745.833 334.167 733.833 328.5 721.5C322.833 709.167 319.667 699.833 319 693.5C318.333 687.167 318.5 683.667 319.5 683C320.5 682.333 322.167 682.167 324.5 682.5C326.833 682.833 330.5 684.667 335.5 688C340.5 691.333 345.667 695.667 351 701C356.333 706.333 361.667 712.833 367 720.5C372.333 728.167 376.167 732.167 378.5 732.5C380.833 732.833 382.833 731.667 384.5 729C386.167 726.333 387 723.167 387 719.5C387 715.833 385.333 709.833 382 701.5C378.667 693.167 374.5 686.333 369.5 681C364.5 675.667 360.167 671.667 356.5 669C352.833 666.333 340.667 659.667 320 649C299.333 638.333 283.333 629.333 272 622C260.667 614.667 251.5 607.5 244.5 600.5C237.5 593.5 232.167 586 228.5 578C224.833 570 223.167 561.667 223.5 553C223.833 544.333 224.667 538.833 226 536.5C227.333 534.167 229.833 531.333 233.5 528C237.167 524.667 240.167 520.5 242.5 515.5C244.833 510.5 246 505 246 499C246 493 245 485.5 243 476.5C241 467.5 239.333 457.333 238 446C236.667 434.667 236 422.167 236 408.5C236 394.833 236.5 384.167 237.5 376.5C238.5 368.833 241.333 357.5 246 342.5C250.667 327.5 257.167 312 265.5 296C273.833 280 281.667 267 289 257C296.333 247 304.833 237 314.5 227C324.167 217 335.333 207.333 348 198C360.667 188.667 372.5 181.167 383.5 175.5C394.5 169.833 404.5 165.333 413.5 162C422.5 158.667 433.167 155.5 445.5 152.5C457.833 149.5 469.667 147.333 481 146C492.333 144.667 506.167 144.333 522.5 145ZM337 280C330.333 287.333 326.833 292 326.5 294C326.167 296 326.333 297.333 327 298C327.667 298.667 329 298.833 331 298.5C333 298.167 336.833 294.833 342.5 288.5C348.167 282.167 351.333 277.833 352 275.5C352.667 273.167 352 271.5 350 270.5C348 269.5 343.667 272.667 337 280ZM301.5 289.5C295.833 298.5 292.833 303.667 292.5 305C292.167 306.333 292.5 307.667 293.5 309C294.5 310.333 296 310.667 298 310C300 309.333 303.667 304.667 309 296C314.333 287.333 317 282.167 317 280.5C317 278.833 315.833 277.667 313.5 277C311.167 276.333 307.167 280.5 301.5 289.5ZM461 334C460.333 334.667 460.333 336.167 461 338.5C461.667 340.833 464.667 344.833 470 350.5C475.333 356.167 479.167 359.167 481.5 359.5C482.667 359.667 483.833 359.833 485 360C485.167 358.833 485.333 357.667 485.5 356.5C485.833 354.167 485.167 352 483.5 350C481.833 348 479.167 345 475.5 341C471.833 337 468.667 334.667 466 334C463.333 333.333 461.667 333.333 461 334ZM554 362.5C546.667 370.167 542.667 375.5 542 378.5C541.667 380 541.333 381.5 541 383C542 383.167 543 383.333 544 383.5C546 383.833 547.5 383.667 548.5 383C549.5 382.333 553 378.667 559 372C565 365.333 568.5 361.333 569.5 360C570.5 358.667 571 357.167 571 355.5C571 353.833 570 352.667 568 352C566 351.333 561.333 354.833 554 362.5ZM280.5 361C277.5 362.333 276 363.833 276 365.5C276 367.167 276.5 368.5 277.5 369.5C278.5 370.5 290 372.167 312 374.5C334 376.833 353.167 379.5 369.5 382.5C385.833 385.5 400.333 389.167 413 393.5C425.667 397.833 437 402.667 447 408C457 413.333 463.833 417.5 467.5 420.5C471.167 423.5 474.167 424.833 476.5 424.5C477.667 424.333 478.833 424.167 480 424C479.667 422.5 479.333 421 479 419.5C478.333 416.5 474.333 411 467 403C459.667 395 453.5 389.167 448.5 385.5C443.5 381.833 438.333 378.667 433 376C427.667 373.333 422.333 371.167 417 369.5C411.667 367.833 403.333 366.167 392 364.5C380.667 362.833 360 361.5 330 360.5C300 359.5 283.5 359.667 280.5 361ZM686 361C664.667 362.333 647.333 364.667 634 368C620.667 371.333 611.167 374.5 605.5 377.5C599.833 380.5 594.667 383.833 590 387.5C585.333 391.167 579.333 397 572 405C564.667 413 560.833 418 560.5 420C560.167 422 560.5 423.5 561.5 424.5C562.5 425.5 563.833 425.833 565.5 425.5C567.167 425.167 570.667 423 576 419C581.333 415 588.5 410.667 597.5 406C606.5 401.333 617.333 396.667 630 392C642.667 387.333 654.167 383.833 664.5 381.5C674.833 379.167 691 376.833 713 374.5C735 372.167 746.5 370.5 747.5 369.5C748.5 368.5 749 367.333 749 366C749 364.667 748.167 363.333 746.5 362C744.833 360.667 739.667 359.833 731 359.5C722.333 359.167 707.333 359.667 686 361ZM307.5 425C301.833 426.333 297.5 427.833 294.5 429.5C291.5 431.167 288 434.167 284 438.5C280 442.833 276.5 448 273.5 454C270.5 460 267.833 469 265.5 481C263.167 493 262.167 502.333 262.5 509C262.833 515.667 264 522.833 266 530.5C268 538.167 271.667 546.667 277 556C282.333 565.333 287.5 572.333 292.5 577C297.5 581.667 303 586 309 590C315 594 321.167 597.5 327.5 600.5C333.833 603.5 340.167 605.833 346.5 607.5C352.833 609.167 360.833 609.667 370.5 609C380.167 608.333 387.5 606.833 392.5 604.5C397.5 602.167 403.333 598.667 410 594C416.667 589.333 425.333 581.5 436 570.5C446.667 559.5 454.833 549 460.5 539C466.167 529 469.167 520.833 469.5 514.5C469.833 508.167 469.667 504 469 502C468.333 500 465.667 495.167 461 487.5C456.333 479.833 451.333 473.333 446 468C440.667 462.667 433.833 457.167 425.5 451.5C417.167 445.833 409.667 441.333 403 438C396.333 434.667 389.333 431.833 382 429.5C374.667 427.167 367.5 425.5 360.5 424.5C353.5 423.5 344.333 423 333 423C321.667 423 313.167 423.667 307.5 425ZM668 425.5C658 427.167 650.5 428.833 645.5 430.5C640.5 432.167 633.5 435.167 624.5 439.5C615.5 443.833 608.167 447.833 602.5 451.5C596.833 455.167 589.667 461.167 581 469.5C572.333 477.833 566.5 484.333 563.5 489C560.5 493.667 558.167 498.667 556.5 504C554.833 509.333 554.5 515 555.5 521C556.5 527 560.667 535.667 568 547C575.333 558.333 584 568.667 594 578C604 587.333 613.333 594.5 622 599.5C630.667 604.5 636.833 607.5 640.5 608.5C644.167 609.5 649.5 610 656.5 610C663.5 610 670.833 609 678.5 607C686.167 605 693.167 602.5 699.5 599.5C705.833 596.5 712.167 592.833 718.5 588.5C724.833 584.167 731.333 578.167 738 570.5C744.667 562.833 749.333 556.167 752 550.5C754.667 544.833 756.833 538.833 758.5 532.5C760.167 526.167 761 516.167 761 502.5C761 488.833 760.167 478.667 758.5 472C756.833 465.333 754.167 458.5 750.5 451.5C746.833 444.5 743.5 439.5 740.5 436.5C737.5 433.5 734.167 431 730.5 429C726.833 427 722.833 425.5 718.5 424.5C714.167 423.5 707.167 423 697.5 423C687.833 423 678 423.833 668 425.5ZM368.5 466C376.833 466.667 384 468.5 390 471.5C396 474.5 401.333 478.5 406 483.5C410.667 488.5 414.333 494.833 417 502.5C419.667 510.167 420.5 516.5 419.5 521.5C418.5 526.5 417.333 529.667 416 531C414.667 532.333 412.5 533.167 409.5 533.5C406.5 533.833 403.833 533.167 401.5 531.5C399.167 529.833 396.833 526.333 394.5 521C392.167 515.667 388.167 511 382.5 507C376.833 503 370.667 501 364 501C357.333 501 352.333 501.833 349 503.5C345.667 505.167 342.833 507.167 340.5 509.5C338.167 511.833 336 515.5 334 520.5C332 525.5 331.333 531.167 332 537.5C332.667 543.833 334.833 549.667 338.5 555C342.167 560.333 346 564.167 350 566.5C354 568.833 358.5 570.833 363.5 572.5C368.5 574.167 371.167 576.167 371.5 578.5C371.833 580.833 371 582.667 369 584C367 585.333 362.167 585.333 354.5 584C346.833 582.667 339.667 579.833 333 575.5C326.333 571.167 321.167 566.667 317.5 562C313.833 557.333 310.667 551.167 308 543.5C305.333 535.833 304.167 528.5 304.5 521.5C304.833 514.5 307 507 311 499C315 491 320 484.5 326 479.5C332 474.5 338.5 470.833 345.5 468.5C352.5 466.167 360.167 465.333 368.5 466ZM667 465.5C673.667 465.833 680.5 467.5 687.5 470.5C694.5 473.5 700.667 477.833 706 483.5C711.333 489.167 715.167 495.167 717.5 501.5C719.833 507.833 720.833 513.5 720.5 518.5C720.167 523.5 718.667 527.333 716 530C713.333 532.667 710.833 534 708.5 534C706.167 534 704 533.5 702 532.5C700 531.5 697.667 527.833 695 521.5C692.333 515.167 688.333 510.167 683 506.5C677.667 502.833 671.667 501 665 501C658.333 501 653.167 501.833 649.5 503.5C645.833 505.167 642.833 507.167 640.5 509.5C638.167 511.833 636 515.167 634 519.5C632 523.833 630.833 528 630.5 532C630.167 536 630.333 539.5 631 542.5C631.667 545.5 633 548.833 635 552.5C637 556.167 639.167 559.167 641.5 561.5C643.833 563.833 649 566.667 657 570C665 573.333 669.167 576.167 669.5 578.5C669.833 580.833 668.833 582.667 666.5 584C664.167 585.333 659.667 585.5 653 584.5C646.333 583.5 640 581.167 634 577.5C628 573.833 623 569.667 619 565C615 560.333 611.5 553.667 608.5 545C605.5 536.333 604.333 528.167 605 520.5C605.667 512.833 607.667 505.667 611 499C614.333 492.333 619.333 486.167 626 480.5C632.667 474.833 639.5 470.833 646.5 468.5C653.5 466.167 660.333 465.167 667 465.5ZM200 495.5C204.667 495.833 208.667 497.167 212 499.5C215.333 501.833 216.833 504.667 216.5 508C216.167 511.333 214.5 514.333 211.5 517C208.5 519.667 206.167 522.833 204.5 526.5C202.833 530.167 201.667 537.167 201 547.5C200.333 557.833 201.333 567.667 204 577C206.667 586.333 210 594.333 214 601C218 607.667 222.5 613.833 227.5 619.5C230 622.333 232.5 625.167 235 628C234.5 628.333 234 628.667 233.5 629C232.5 629.667 229.333 629.667 224 629C218.667 628.333 214.167 626.5 210.5 623.5C206.833 620.5 203.333 616 200 610C196.667 604 191.167 591 183.5 571C175.833 551 171.667 538.167 171 532.5C170.333 526.833 170.5 521.833 171.5 517.5C172.5 513.167 174.167 509.333 176.5 506C178.833 502.667 182.167 500 186.5 498C190.833 496 195.333 495.167 200 495.5ZM831 495.5C835 495.833 838.5 496.833 841.5 498.5C844.5 500.167 846.833 502 848.5 504C850.167 506 851.833 509.833 853.5 515.5C855.167 521.167 855.667 526.5 855 531.5C854.333 536.5 849.833 549.667 841.5 571C833.167 592.333 827.5 605.667 824.5 611C821.5 616.333 817.833 620.667 813.5 624C809.167 627.333 804.333 629.167 799 629.5C793.667 629.833 790.833 629.667 790.5 629C790.167 628.333 792.167 625.667 796.5 621C800.833 616.333 804.833 611.167 808.5 605.5C812.167 599.833 815.5 593.333 818.5 586C821.5 578.667 823.5 572.333 824.5 567C825.5 561.667 825.667 554.333 825 545C824.333 535.667 823.333 529.5 822 526.5C820.667 523.5 818.333 520.5 815 517.5C811.667 514.5 809.833 511.667 809.5 509C809.167 506.333 809.833 504 811.5 502C813.167 500 815.833 498.333 819.5 497C823.167 495.667 827 495.167 831 495.5ZM256 571C255.333 571.667 255.167 573 255.5 575C255.833 577 262.167 584 274.5 596C286.833 608 294.167 614.167 296.5 614.5C298.833 614.833 300.333 614.667 301 614C301.667 613.333 301.833 612 301.5 610C301.167 608 294.833 601 282.5 589C270.167 577 262.833 570.833 260.5 570.5C258.167 570.167 256.667 570.333 256 571ZM743.5 589C731.167 601.667 725.333 609.167 726 611.5C726.667 613.833 728 614.833 730 614.5C732 614.167 739.167 607.667 751.5 595C763.833 582.333 769.667 575 769 573C768.333 571 767 570 765 570C763 570 755.833 576.333 743.5 589ZM510.5 621C508.833 622.333 507.667 624 507 626C506.333 628 506 637.667 506 655C506 672.333 506.667 682.5 508 685.5C509.333 688.5 511.167 690.167 513.5 690.5C515.833 690.833 517.667 690.5 519 689.5C520.333 688.5 521.5 686.5 522.5 683.5C523.5 680.5 524 670.833 524 654.5C524 638.167 523.667 628.833 523 626.5C522.333 624.167 521.167 622.333 519.5 621C517.833 619.667 516.333 619 515 619C513.667 619 512.167 619.667 510.5 621ZM484.5 628C480.833 630.667 476 636 470 644C464 652 461.167 659.5 461.5 666.5C461.833 673.5 462.833 678.5 464.5 681.5C466.167 684.5 468 685.833 470 685.5C472 685.167 473.833 684.167 475.5 682.5C477.167 680.833 481.333 675.667 488 667C494.667 658.333 498 649.667 498 641C498 632.333 496.667 627.333 494 626C491.333 624.667 488.167 625.333 484.5 628ZM532.5 628C531.5 628.667 531.167 635 531.5 647C531.833 659 535 668.5 541 675.5C547 682.5 551.167 686 553.5 686C555.833 686 558.167 684.667 560.5 682C562.833 679.333 564 673.667 564 665C564 656.333 560.667 648.167 554 640.5C547.333 632.833 542.333 628.667 539 628C535.667 627.333 533.5 627.333 532.5 628ZM477.5 718.5C476.5 719.5 475.833 721.167 475.5 723.5C475.167 725.833 475.167 731.667 475.5 741C475.833 750.333 475 755.667 473 757C471 758.333 468.333 758.5 465 757.5C461.667 756.5 459.5 753 458.5 747C457.5 741 456.167 736.667 454.5 734C452.833 731.333 451 730.333 449 731C447 731.667 445.667 736.167 445 744.5C444.333 752.833 443.167 757.667 441.5 759C439.833 760.333 437.833 760.333 435.5 759C433.167 757.667 430.167 752.667 426.5 744C422.833 735.333 420.667 730.667 420 730C419.333 729.333 417.667 729.333 415 730C412.333 730.667 411.667 737.167 413 749.5C414.333 761.833 417.5 774.167 422.5 786.5C427.5 798.833 430.833 805.167 432.5 805.5C434.167 805.833 435.5 805.667 436.5 805C437.5 804.333 438.167 800.5 438.5 793.5C438.833 786.5 439.5 782.5 440.5 781.5C441.5 780.5 443 780 445 780C447 780 448.5 780.5 449.5 781.5C450.5 782.5 452 786.667 454 794C456 801.333 457.667 805.5 459 806.5C460.333 807.5 461.833 807.667 463.5 807C465.167 806.333 465.667 802 465 794C464.333 786 464.5 781.5 465.5 780.5C466.5 779.5 470.333 779.167 477 779.5C483.667 779.833 487.333 783.833 488 791.5C488.667 799.167 489.667 803.5 491 804.5C492.333 805.5 493.667 805.833 495 805.5C496.333 805.167 497.333 804.333 498 803C498.667 801.667 499 797.5 499 790.5C499 787 499 783.5 499 780C500.5 780 502 780 503.5 780C506.5 780 508.833 784 510.5 792C512.167 800 514.167 803.833 516.5 803.5C518.833 803.167 520.167 799.333 520.5 792C520.833 784.667 523 780.833 527 780.5C531 780.167 533.333 780.333 534 781C534.667 781.667 534.833 786.333 534.5 795C534.167 803.667 534.5 808.5 535.5 809.5C536.5 810.5 537.667 811 539 811C540.333 811 541.5 810.333 542.5 809C543.5 807.667 544.5 802.667 545.5 794C546.5 785.333 548.667 780.667 552 780C555.333 779.333 557.667 779.5 559 780.5C560.333 781.5 561 785.667 561 793C561 800.333 562 804.167 564 804.5C566 804.833 567.333 804.667 568 804C568.667 803.333 569.667 799.667 571 793C572.333 786.333 573.5 782.5 574.5 781.5C575.5 780.5 577.167 780 579.5 780C581.833 780 583.5 780.833 584.5 782.5C585.5 784.167 586.667 789 588 797C589.333 805 591 809.167 593 809.5C595 809.833 596.333 809.667 597 809C597.667 808.333 600.333 795.667 605 771C609.667 746.333 611.667 732.167 611 728.5C610.667 726.667 610.333 724.833 610 723C608.5 723.333 607 723.667 605.5 724C602.5 724.667 599.333 727.333 596 732C592.667 736.667 590.5 741.5 589.5 746.5C588.5 751.5 587.5 754.5 586.5 755.5C585.5 756.5 584 757 582 757C580 757 578.5 756.5 577.5 755.5C576.5 754.5 576 749 576 739C576 729 575.5 723.333 574.5 722C573.5 720.667 572.167 720 570.5 720C568.833 720 567.333 721.167 566 723.5C564.667 725.833 562.833 731.833 560.5 741.5C558.167 751.167 556.167 756.667 554.5 758C552.833 759.333 551.167 759.833 549.5 759.5C547.833 759.167 546.667 758.333 546 757C545.333 755.667 545.167 750.167 545.5 740.5C545.833 730.833 545.5 725.5 544.5 724.5C543.5 723.5 542.333 723 541 723C539.667 723 538.5 723.833 537.5 725.5C536.5 727.167 535.667 732.333 535 741C534.333 749.667 533.5 754.667 532.5 756C531.5 757.333 530 758.167 528 758.5C526 758.833 524.167 758.5 522.5 757.5C520.833 756.5 519.667 755.167 519 753.5C518.333 751.833 518 747.5 518 740.5C518 733.5 517.5 728.333 516.5 725C515.5 721.667 513.833 720.167 511.5 720.5C509.167 720.833 507.833 726 507.5 736C507.167 746 506.667 751.333 506 752C505.333 752.667 502.167 753 496.5 753C490.833 753 487.667 748 487 738C486.333 728 485.667 722.167 485 720.5C484.333 718.833 483.167 717.833 481.5 717.5C479.833 717.167 478.5 717.5 477.5 718.5ZM479 834.5C460.333 838.833 449.833 841.833 447.5 843.5C445.167 845.167 444 847.167 444 849.5C444 851.833 444.333 853.333 445 854C445.667 854.667 447.833 855 451.5 855C455.167 855 466.667 852.667 486 848C505.333 843.333 524.167 842.667 542.5 846C560.833 849.333 571.833 851 575.5 851C579.167 851 581.333 850.667 582 850C582.667 849.333 583 848.167 583 846.5C583 844.833 582.5 843.5 581.5 842.5C580.5 841.5 570 838.833 550 834.5C530 830.167 517.833 828 513.5 828C509.167 828 497.667 830.167 479 834.5Z" fill="#000000" fill-rule="nonzero" opacity="1" stroke="none" vectornator:layerName="Curve 1"/>
</g>
</svg>
