<?xml version="1.0" encoding="UTF-8" standalone="no"?>
<!DOCTYPE svg PUBLIC "-//W3C//DTD SVG 1.1//EN" "http://www.w3.org/Graphics/SVG/1.1/DTD/svg11.dtd">
<!-- Created with Vectornator (http://vectornator.io/) -->
<svg height="100%" stroke-miterlimit="10" style="fill-rule:nonzero;clip-rule:evenodd;stroke-linecap:round;stroke-linejoin:round;" version="1.1" viewBox="214 56.8333 585 932.235" width="100%" xml:space="preserve" xmlns="http://www.w3.org/2000/svg" xmlns:vectornator="http://vectornator.io" xmlns:xlink="http://www.w3.org/1999/xlink">
<defs/>
<g id="Layer-1" vectornator:layerName="Layer 1">
<path d="M492 61C484.667 64.3333 476.5 69 467.5 75C458.5 81 451 86.5 445 91.5C439 96.5 430.167 105.167 418.5 117.5C406.833 129.833 396.833 141.833 388.5 153.5C380.167 165.167 372.833 176.667 366.5 188C360.167 199.333 353.5 213.333 346.5 230C339.5 246.667 334.667 259.667 332 269C329.333 278.333 323.167 286.5 313.5 293.5C303.833 300.5 294 308.667 284 318C274 327.333 265.667 336.167 259 344.5C252.333 352.833 247.167 360.167 243.5 366.5C239.833 372.833 236.5 380.833 233.5 390.5C230.5 400.167 229.167 408.833 229.5 416.5C229.833 424.167 231.833 431.667 235.5 439C239.167 446.333 242.167 451.167 244.5 453.5C246.833 455.833 249.667 457.833 253 459.5C256.333 461.167 258.333 464.833 259 470.5C259.667 476.167 260.667 480.333 262 483C263.333 485.667 266 488.667 270 492C274 495.333 276 497.5 276 498.5C276 499.5 274 508.667 270 526C266 543.333 261.667 558.333 257 571C252.333 583.667 247.333 594.833 242 604.5C236.667 614.167 230.667 622.167 224 628.5C220.667 631.667 217.333 634.833 214 638C219 636.833 224 635.667 229 634.5C239 632.167 248.5 628.333 257.5 623C262 620.333 266.5 617.667 271 615C269 618.5 267 622 265 625.5C261 632.5 257.833 639 255.5 645C253.167 651 250.667 659.167 248 669.5C245.333 679.833 243.333 690.5 242 701.5C240.667 712.5 240 727.167 240 745.5C240 763.833 240.5 778.167 241.5 788.5C242.5 798.833 244.333 811.167 247 825.5C249.667 839.833 253.5 855.333 258.5 872C261 880.333 263.5 888.667 266 897C272.333 884.167 278.667 871.333 285 858.5C291.333 845.667 297.667 832.833 304 820C304 827.5 304 835 304 842.5C304 857.5 302.833 871.5 300.5 884.5C299.333 891 298.167 897.5 297 904C303 898 309 892 315 886C327 874 338.333 860.667 349 846C354.333 838.667 359.667 831.333 365 824C365.667 827.5 366.333 831 367 834.5C368.333 841.5 370.5 849 373.5 857C376.5 865 379.667 872 383 878C386.333 884 391 891 397 899C403 907 410.5 915.5 419.5 924.5C428.5 933.5 437.833 942 447.5 950C457.167 958 467.667 966 479 974C490.333 982 497.833 986.833 501.5 988.5C505.167 990.167 511.5 988.167 520.5 982.5C529.5 976.833 539 970.167 549 962.5C559 954.833 571.667 943.667 587 929C602.333 914.333 612.333 903.833 617 897.5C621.667 891.167 625.833 884.667 629.5 878C633.167 871.333 636.5 864 639.5 856C642.5 848 644.5 840.833 645.5 834.5C646.5 828.167 647.333 825 648 825C648.667 825 651.333 828.833 656 836.5C660.667 844.167 666.333 852.167 673 860.5C679.667 868.833 688.333 878.167 699 888.5C704.333 893.667 709.667 898.833 715 904C713.833 896.333 712.667 888.667 711.5 881C709.167 865.667 708.167 851.833 708.5 839.5C708.667 833.333 708.833 827.167 709 821C713.167 829 717.333 837 721.5 845C729.833 861 735.833 873.667 739.5 883C741.333 887.667 743.167 892.333 745 897C745.333 896.833 745.667 896.667 746 896.5C746.667 896.167 749.167 889 753.5 875C757.833 861 761.333 847.5 764 834.5C766.667 821.5 768.833 807 770.5 791C772.167 775 773 760 773 746C773 732 772.5 719.833 771.5 709.5C770.5 699.167 769 689.167 767 679.5C765 669.833 762.167 660 758.5 650C754.833 640 751.167 631.833 747.5 625.5C745.667 622.333 743.833 619.167 742 616C747.167 618.833 752.333 621.667 757.5 624.5C767.833 630.167 775.333 633.667 780 635C784.667 636.333 789 637 793 637C795 637 797 637 799 637C797.167 635.833 795.333 634.667 793.5 633.5C789.833 631.167 786.667 628.5 784 625.5C781.333 622.5 777.667 617.167 773 609.5C768.333 601.833 763.5 591.667 758.5 579C753.5 566.333 748.667 550.667 744 532C739.333 513.333 737 502.833 737 500.5C737 498.167 738.667 495.833 742 493.5C745.333 491.167 748 488.333 750 485C752 481.667 753.333 477 754 471C754.667 465 756.167 461.5 758.5 460.5C760.833 459.5 764 457 768 453C772 449 775.333 444.167 778 438.5C780.667 432.833 782.333 428.167 783 424.5C783.667 420.833 783.833 416.167 783.5 410.5C783.167 404.833 781 396.667 777 386C773 375.333 766.5 363.833 757.5 351.5C748.5 339.167 737.833 327.333 725.5 316C713.167 304.667 703.333 296.5 696 291.5C688.667 286.5 682.667 276.833 678 262.5C673.333 248.167 667.667 233.667 661 219C654.333 204.333 646.5 189.667 637.5 175C628.5 160.333 621 149.167 615 141.5C609 133.833 601.5 125.333 592.5 116C583.5 106.667 573.833 97.8333 563.5 89.5C553.167 81.1667 542.5 73.8333 531.5 67.5C520.5 61.1667 513 57.6667 509 57C505 56.3333 499.333 57.6667 492 61ZM505.5 86C507.833 86 510.333 86.6667 513 88C515.667 89.3333 523.167 94.6667 535.5 104C547.833 113.333 560.667 125.167 574 139.5C587.333 153.833 598.5 167.833 607.5 181.5C616.5 195.167 625 210.667 633 228C641 245.333 644.833 254.333 644.5 255C644.333 255.333 644.167 255.667 644 256C640.333 253.167 636.667 250.333 633 247.5C625.667 241.833 615.833 232.833 603.5 220.5C591.167 208.167 582.333 198 577 190C571.667 182 566.5 172.667 561.5 162C556.5 151.333 553.5 146 552.5 146C552 146 551.5 146 551 146C551.667 150.167 552.333 154.333 553 158.5C554.333 166.833 556.5 175.333 559.5 184C562.5 192.667 566 201 570 209C574 217 578.833 225 584.5 233C590.167 241 598 250 608 260C618 270 630.667 280.667 646 292C661.333 303.333 674.333 313.5 685 322.5C695.667 331.5 705.333 340.333 714 349C722.667 357.667 729.833 365.833 735.5 373.5C741.167 381.167 745.5 388.333 748.5 395C751.5 401.667 753.167 407.333 753.5 412C753.833 416.667 753.167 420.333 751.5 423C749.833 425.667 747.5 427.333 744.5 428C741.5 428.667 736.5 424.833 729.5 416.5C722.5 408.167 715.667 401.5 709 396.5C702.333 391.5 694.167 386.667 684.5 382C674.833 377.333 666.333 374.333 659 373C655.333 372.333 651.667 371.667 648 371C648 371.333 648 371.667 648 372C648 372.667 652.5 375.667 661.5 381C670.5 386.333 679 392.833 687 400.5C695 408.167 702.333 417.167 709 427.5C715.667 437.833 719.667 444.833 721 448.5C722.333 452.167 722.667 455.333 722 458C721.333 460.667 719.833 461.833 717.5 461.5C715.167 461.167 711.167 459 705.5 455C699.833 451 693 447 685 443C677 439 665.333 434.333 650 429C634.667 423.667 617.5 419.167 598.5 415.5C579.5 411.833 559.667 409.333 539 408C518.333 406.667 496.333 406.833 473 408.5C449.667 410.167 429.667 412.667 413 416C396.333 419.333 379.333 424 362 430C344.667 436 331.5 441.333 322.5 446C313.5 450.667 307.5 454.167 304.5 456.5C301.5 458.833 298.833 460.333 296.5 461C294.167 461.667 292.5 461.5 291.5 460.5C290.5 459.5 290.333 457.167 291 453.5C291.667 449.833 295 442.833 301 432.5C307 422.167 313.833 413 321.5 405C329.167 397 336.5 390.5 343.5 385.5C350.5 380.5 355.833 377.167 359.5 375.5C363.167 373.833 365 372.667 365 372C365 371.667 365 371.333 365 371C361.333 371.667 357.667 372.333 354 373C346.667 374.333 338.167 377.333 328.5 382C318.833 386.667 310.333 391.833 303 397.5C295.667 403.167 288.667 410 282 418C275.333 426 270.833 429.667 268.5 429C266.167 428.333 264.333 427.333 263 426C261.667 424.667 260.5 422.167 259.5 418.5C258.5 414.833 258.5 410.833 259.5 406.5C260.5 402.167 262.5 397 265.5 391C268.5 385 272.333 378.833 277 372.5C281.667 366.167 291.333 356 306 342C320.667 328 339.833 311.833 363.5 293.5C387.167 275.167 402.333 262.5 409 255.5C415.667 248.5 422 240.667 428 232C434 223.333 438.833 215.333 442.5 208C446.167 200.667 449.5 192.833 452.5 184.5C455.5 176.167 457.667 169 459 163C460.333 157 461 152.5 461 149.5C461 148 461 146.5 461 145C460.667 145 460.333 145 460 145C459.333 145 456.833 149.667 452.5 159C448.167 168.333 442 178.833 434 190.5C426 202.167 417.833 212.167 409.5 220.5C401.167 228.833 392.167 236.667 382.5 244C377.667 247.667 372.833 251.333 368 255C369.167 251.667 370.333 248.333 371.5 245C373.833 238.333 377.667 229.5 383 218.5C388.333 207.5 394.333 196.667 401 186C407.667 175.333 414 166.167 420 158.5C426 150.833 432.667 143.167 440 135.5C447.333 127.833 456.5 119.5 467.5 110.5C478.5 101.5 487 95.1667 493 91.5C499 87.8333 503.167 86 505.5 86ZM516 443.5C534.667 443.833 552 445 568 447C584 449 598.333 451.5 611 454.5C623.667 457.5 636.5 461.5 649.5 466.5C662.5 471.5 669 477.833 669 485.5C669 489.333 669 493.167 669 497C663 493 657 489 651 485C639 477 630.667 471.833 626 469.5C621.333 467.167 615.833 465.167 609.5 463.5C603.167 461.833 597.5 461.167 592.5 461.5C587.5 461.833 582.667 462.833 578 464.5C573.333 466.167 565.667 471.5 555 480.5C544.333 489.5 537.333 494.167 534 494.5C530.667 494.833 527.333 494.167 524 492.5C520.667 490.833 518.5 489.333 517.5 488C516.5 486.667 515.5 486.167 514.5 486.5C513.5 486.833 513 489 513 493C513 497 513.667 500.333 515 503C516.333 505.667 518.833 508.5 522.5 511.5C526.167 514.5 530 516.167 534 516.5C536 516.667 538 516.833 540 517C539.167 520.833 538.333 524.667 537.5 528.5C535.833 536.167 535 544.667 535 554C535 563.333 536 571.5 538 578.5C539 582 540 585.5 541 589C542 587.667 543 586.333 544 585C546 582.333 548.667 581 552 581C555.333 581 558.5 582.167 561.5 584.5C564.5 586.833 566.667 589.167 568 591.5C569.333 593.833 570.167 597.333 570.5 602C570.833 606.667 569.833 611 567.5 615C565.167 619 563.667 621 563 621C562.333 621 561.667 619.667 561 617C560.333 614.333 558.333 611.833 555 609.5C551.667 607.167 548.333 606.167 545 606.5C541.667 606.833 537.667 609 533 613C528.333 617 523.5 619.833 518.5 621.5C513.5 623.167 508 623.667 502 623C496 622.333 489.167 619.333 481.5 614C473.833 608.667 468.667 606 466 606C463.333 606 461 606.5 459 607.5C457 608.5 455 611 453 615C452 617 451 619 450 621C448.667 619.167 447.333 617.333 446 615.5C443.333 611.833 442.167 607.333 442.5 602C442.833 596.667 444.5 592.167 447.5 588.5C450.5 584.833 454.333 582.667 459 582C463.667 581.333 466.833 582.333 468.5 585C469.333 586.333 470.167 587.667 471 589C471.333 588.667 471.667 588.333 472 588C472.667 587.333 473.833 583.833 475.5 577.5C477.167 571.167 478 563.333 478 554C478 544.667 477 536.333 475 529C474 525.333 473 521.667 472 518C474 517.667 476 517.333 478 517C482 516.333 485.833 514.5 489.5 511.5C493.167 508.5 495.667 505.667 497 503C498.333 500.333 498.833 496.833 498.5 492.5C498.333 490.333 498.167 488.167 498 486C496 487.333 494 488.667 492 490C488 492.667 484 494 480 494C476 494 471.833 492.5 467.5 489.5C463.167 486.5 458.333 482.333 453 477C447.667 471.667 442.833 468 438.5 466C434.167 464 429 462.667 423 462C417 461.333 409.167 462.5 399.5 465.5C389.833 468.5 378.167 474.5 364.5 483.5C357.667 488 350.833 492.5 344 497C344 493.167 344 489.333 344 485.5C344 477.833 347.167 472.667 353.5 470C359.833 467.333 372.833 463.333 392.5 458C412.167 452.667 433 448.833 455 446.5C477 444.167 497.333 443.167 516 443.5ZM692 486C693.667 487.333 695.333 488.667 697 490C700.333 492.667 703.833 494.667 707.5 496C711.167 497.333 713.167 500.167 713.5 504.5C713.833 508.833 715.333 516.167 718 526.5C720.667 536.833 724.667 548.667 730 562C732.667 568.667 735.333 575.333 738 582C734.5 578.333 731 574.667 727.5 571C720.5 563.667 714.5 555.833 709.5 547.5C704.5 539.167 700.667 530.833 698 522.5C695.333 514.167 693.667 506 693 498C692.667 494 692.333 490 692 486ZM319 487C319 490.333 319 493.667 319 497C319 503.667 317.667 511.333 315 520C312.333 528.667 308.5 537.333 303.5 546C298.5 554.667 292.333 562.833 285 570.5C281.333 574.333 277.667 578.167 274 582C277 574.5 280 567 283 559.5C289 544.5 293.333 530.5 296 517.5C298.667 504.5 301.833 497.333 305.5 496C309.167 494.667 312.333 492.833 315 490.5C316.333 489.333 317.667 488.167 319 487ZM398 489C395.833 491.333 393.667 493.667 391.5 496C387.167 500.667 384.333 504.667 383 508C381.667 511.333 380.833 514.833 380.5 518.5C380.167 522.167 380.333 525.833 381 529.5C381.667 533.167 383 536.833 385 540.5C387 544.167 390.833 548.167 396.5 552.5C399.333 554.667 402.167 556.833 405 559C400.833 558.833 396.667 558.667 392.5 558.5C384.167 558.167 376.5 556.667 369.5 554C362.5 551.333 357.667 549 355 547C352.333 545 350.667 544.333 350 545C349.333 545.667 350.333 548 353 552C355.667 556 359.667 560.167 365 564.5C370.333 568.833 374.667 571.667 378 573C381.333 574.333 385.833 575.333 391.5 576C397.167 576.667 402.833 576.5 408.5 575.5C414.167 574.5 420.333 572.167 427 568.5C433.667 564.833 438.833 561.167 442.5 557.5C446.167 553.833 449.5 548.833 452.5 542.5C454 539.333 455.5 536.167 457 533C457.333 537 457.667 541 458 545C458.667 553 458 558.167 456 560.5C454 562.833 450.667 565.333 446 568C441.333 570.667 437.833 573.333 435.5 576C433.167 578.667 431.167 582 429.5 586C427.833 590 426.833 594.667 426.5 600C426.167 605.333 423.667 608.667 419 610C414.333 611.333 409.5 613.333 404.5 616C399.5 618.667 392.5 623.667 383.5 631C374.5 638.333 368.667 640.667 366 638C363.333 635.333 360.833 631.167 358.5 625.5C356.167 619.833 353 616.5 349 615.5C345 614.5 340.5 611.833 335.5 607.5C330.5 603.167 326.5 598 323.5 592C320.5 586 318.667 580.5 318 575.5C317.333 570.5 318 566.833 320 564.5C322 562.167 325 557 329 549C333 541 336.333 531.833 339 521.5C341.667 511.167 347.167 505.333 355.5 504C363.833 502.667 373 499.833 383 495.5C388 493.333 393 491.167 398 489ZM613 489C618.333 491.167 623.667 493.333 629 495.5C639.667 499.833 649.167 502.667 657.5 504C665.833 505.333 671.5 511.833 674.5 523.5C677.5 535.167 681.667 545.5 687 554.5C692.333 563.5 694.667 570.5 694 575.5C693.333 580.5 691.667 585.833 689 591.5C686.333 597.167 682.667 602.167 678 606.5C673.333 610.833 668.5 613.833 663.5 615.5C658.5 617.167 655.167 620.5 653.5 625.5C651.833 630.5 649.5 634.5 646.5 637.5C643.5 640.5 637.167 638 627.5 630C617.833 622 609.833 616.5 603.5 613.5C597.167 610.5 592.833 608.833 590.5 608.5C588.167 608.167 586.833 605.333 586.5 600C586.167 594.667 585.333 590.333 584 587C582.667 583.667 580.833 580.5 578.5 577.5C576.167 574.5 571.5 570.5 564.5 565.5C557.5 560.5 554.167 553.833 554.5 545.5C554.667 541.333 554.833 537.167 555 533C556.333 535.667 557.667 538.333 559 541C561.667 546.333 564.833 551 568.5 555C572.167 559 578.333 563.333 587 568C595.667 572.667 605 575 615 575C625 575 633 573.5 639 570.5C645 567.5 649.5 564.5 652.5 561.5C655.5 558.5 658 555.5 660 552.5C662 549.5 663 547.5 663 546.5C663 546 663 545.5 663 545C662.667 545 662.333 545 662 545C661.333 545 657 547 649 551C641 555 634.333 557.5 629 558.5C623.667 559.5 618.833 559.833 614.5 559.5C612.333 559.333 610.167 559.167 608 559C610.833 556.833 613.667 554.667 616.5 552.5C622.167 548.167 626.167 543.5 628.5 538.5C630.833 533.5 631.667 527.167 631 519.5C630.333 511.833 629.167 506.5 627.5 503.5C625.833 500.5 623 497.333 619 494C617 492.333 615 490.667 613 489ZM419.5 504C422.5 504 425.667 505.5 429 508.5C432.333 511.5 434 515.167 434 519.5C434 523.833 432.833 527.333 430.5 530C428.167 532.667 424.833 534.167 420.5 534.5C416.167 534.833 412.5 533.667 409.5 531C406.5 528.333 405 524.667 405 520C405 515.333 406.667 511.5 410 508.5C413.333 505.5 416.5 504 419.5 504ZM595 504.5C598.333 504.833 601.333 506.5 604 509.5C606.667 512.5 608 516 608 520C608 524 606.5 527.5 603.5 530.5C600.5 533.5 596.5 534.667 591.5 534C586.5 533.333 583 531.333 581 528C579 524.667 578.333 521 579 517C579.667 513 581.667 509.833 585 507.5C588.333 505.167 591.667 504.167 595 504.5ZM430.5 621C431.5 621 432.167 621.667 432.5 623C432.833 624.333 434.667 626.667 438 630C441.333 633.333 444.5 636 447.5 638C450.5 640 457.333 643 468 647C473.333 649 478.667 651 484 653C480.667 653.833 477.333 654.667 474 655.5C467.333 657.167 459.333 660.333 450 665C440.667 669.667 432 675.167 424 681.5C416 687.833 409.5 693.667 404.5 699C399.5 704.333 393.833 711.167 387.5 719.5C381.167 727.833 375 736.833 369 746.5C363 756.167 354.667 772.333 344 795C338.667 806.333 333.333 817.667 328 829C329.833 818.333 331.667 807.667 333.5 797C337.167 775.667 342.167 755.333 348.5 736C354.833 716.667 360.333 702.5 365 693.5C369.667 684.5 375 675.833 381 667.5C387 659.167 393.167 651.833 399.5 645.5C405.833 639.167 412.333 633.5 419 628.5C425.667 623.5 429.5 621 430.5 621ZM581 621C583.333 622.333 585.667 623.667 588 625C592.667 627.667 599 632.667 607 640C615 647.333 622.167 655.167 628.5 663.5C634.833 671.833 640.667 681 646 691C651.333 701 657.167 715.667 663.5 735C669.833 754.333 674.833 774.833 678.5 796.5C680.333 807.333 682.167 818.167 684 829C681.667 823.333 679.333 817.667 677 812C672.333 800.667 667 789.167 661 777.5C655 765.833 648.5 754.5 641.5 743.5C634.5 732.5 627.667 722.833 621 714.5C614.333 706.167 608.333 699.333 603 694C597.667 688.667 591.333 683.333 584 678C576.667 672.667 568.833 668 560.5 664C552.167 660 544.833 657.167 538.5 655.5C535.333 654.667 532.167 653.833 529 653C534.833 650.667 540.667 648.333 546.5 646C558.167 641.333 566.333 637 571 633C575.667 629 578.5 626 579.5 624C580 623 580.5 622 581 621ZM311 634C311.167 634.333 311.333 634.667 311.5 635C311.833 635.667 310 638.667 306 644C302 649.333 299.333 655 298 661C297.333 664 296.667 667 296 670C299 667.667 302 665.333 305 663C311 658.333 315.833 655.167 319.5 653.5C323.167 651.833 325.5 651.167 326.5 651.5C327 651.667 327.5 651.833 328 652C326.333 654 324.667 656 323 658C319.667 662 316.833 666.667 314.5 672C313.333 674.667 312.167 677.333 311 680C314.5 677.833 318 675.667 321.5 673.5C328.5 669.167 335.167 666.167 341.5 664.5C347.833 662.833 351.833 662.167 353.5 662.5C354.333 662.667 355.167 662.833 356 663C353.833 666.167 351.667 669.333 349.5 672.5C345.167 678.833 341.333 686.167 338 694.5C334.667 702.833 329.333 711.333 322 720C314.667 728.667 308.5 737 303.5 745C298.5 753 293.667 761.833 289 771.5C284.333 781.167 280.333 790.833 277 800.5C275.333 805.333 273.667 810.167 272 815C270.833 807 269.667 799 268.5 791C266.167 775 265 759.667 265 745C265 730.333 265.833 716.667 267.5 704C269.167 691.333 270.667 682.667 272 678C273.333 673.333 275.333 668.5 278 663.5C280.667 658.5 284.167 653.833 288.5 649.5C292.833 645.167 297.667 641.5 303 638.5C305.667 637 308.333 635.5 311 634ZM702 635C704.167 636 706.333 637 708.5 638C712.833 640 717.333 643.167 722 647.5C726.667 651.833 730.333 656.167 733 660.5C735.667 664.833 738 670.167 740 676.5C742 682.833 743.833 693 745.5 707C747.167 721 748 734 748 746C748 758 746.833 772.667 744.5 790C743.333 798.667 742.167 807.333 741 816C739.667 812 738.333 808 737 804C734.333 796 730.5 786.667 725.5 776C720.5 765.333 715 755.167 709 745.5C703 735.833 696.833 727.333 690.5 720C684.167 712.667 678.5 703.5 673.5 692.5C668.5 681.5 664.5 674 661.5 670C658.5 666 657 663.667 657 663C657 662.667 657 662.333 657 662C657.5 662 658 662 658.5 662C659.5 662 662.833 662.667 668.5 664C674.167 665.333 681 668.333 689 673C693 675.333 697 677.667 701 680C700 677.5 699 675 698 672.5C696 667.5 693.333 663 690 659C686.667 655 685.167 652.667 685.5 652C685.833 651.333 688.833 652.333 694.5 655C700.167 657.667 705.333 660.833 710 664.5C712.333 666.333 714.667 668.167 717 670C716.333 667.167 715.667 664.333 715 661.5C713.667 655.833 711.167 650 707.5 644C705.667 641 703.833 638 702 635ZM525 706C531.333 709 537.667 712 544 715C543.167 716 542.333 717 541.5 718C539.833 720 535.667 722.333 529 725C522.333 727.667 515.667 729.167 509 729.5C502.333 729.833 496.333 729.333 491 728C485.667 726.667 480.5 724.5 475.5 721.5C473 720 470.5 718.5 468 717C469.667 715.833 471.333 714.667 473 713.5C476.333 711.167 482.667 707.833 492 703.5C501.333 699.167 512.333 700 525 706ZM573 738.5C581.667 745.5 592.5 756 605.5 770C618.5 784 624.5 796.833 623.5 808.5C622.5 820.167 620 831.667 616 843C612 854.333 607.5 863.333 602.5 870C600 873.333 597.5 876.667 595 880C595.5 877.667 596 875.333 596.5 873C597.5 868.333 598 862.167 598 854.5C598 846.833 597.333 839.333 596 832C594.667 824.667 593 818.5 591 813.5C590 811 589 808.5 588 806C586.667 814.667 585.333 823.333 584 832C581.333 849.333 577.833 863.167 573.5 873.5C569.167 883.833 564 893.167 558 901.5C552 909.833 545.833 917.167 539.5 923.5C533.167 929.833 526.333 936 519 942C511.667 948 507.5 951 506.5 951C505.5 951 501.5 948.167 494.5 942.5C487.5 936.833 480.333 930.333 473 923C465.667 915.667 459.167 908 453.5 900C447.833 892 443 883.333 439 874C435 864.667 431.5 851.167 428.5 833.5C427 824.667 425.5 815.833 424 807C423 809.5 422 812 421 814.5C419 819.5 417.333 826.5 416 835.5C414.667 844.5 414.167 852.5 414.5 859.5C414.833 866.5 415.5 871.667 416.5 875C417 876.667 417.5 878.333 418 880C416.667 878.667 415.333 877.333 414 876C411.333 873.333 408.167 868.667 404.5 862C400.833 855.333 398 849.167 396 843.5C394 837.833 392.333 831.833 391 825.5C389.667 819.167 388.833 811.833 388.5 803.5C388.167 795.167 394.833 783.667 408.5 769C422.167 754.333 432.667 744 440 738C447.333 732 453.667 730.833 459 734.5C464.333 738.167 470 741.167 476 743.5C482 745.833 490.333 747.333 501 748C511.667 748.667 520.167 748.167 526.5 746.5C532.833 744.833 538.833 742.5 544.5 739.5C550.167 736.5 554.167 733.833 556.5 731.5C558.833 729.167 564.333 731.5 573 738.5Z" fill="#000000" fill-rule="nonzero" opacity="1" stroke="none" vectornator:layerName="Curve 1"/>
</g>
</svg>
