<?xml version="1.0" encoding="UTF-8" standalone="no"?>
<!DOCTYPE svg PUBLIC "-//W3C//DTD SVG 1.1//EN" "http://www.w3.org/Graphics/SVG/1.1/DTD/svg11.dtd">
<!-- Created with Vectornator (http://vectornator.io/) -->
<svg height="100%" stroke-miterlimit="10" style="fill-rule:nonzero;clip-rule:evenodd;stroke-linecap:round;stroke-linejoin:round;" version="1.1" viewBox="109 167.2 807 659.133" width="100%" xml:space="preserve" xmlns="http://www.w3.org/2000/svg" xmlns:vectornator="http://vectornator.io" xmlns:xlink="http://www.w3.org/1999/xlink">
<defs/>
<g id="Layer-1" vectornator:layerName="Layer 1">
<path d="M481.5 169C465.833 171 450.667 174.333 436 179C421.333 183.667 407.167 189.667 393.5 197C379.833 204.333 367.5 212.333 356.5 221C345.5 229.667 335 239.5 325 250.5C315 261.5 306.833 272.167 300.5 282.5C294.167 292.833 290.5 300 289.5 304C288.5 308 288 318.833 288 336.5C288 354.167 287 365.167 285 369.5C283 373.833 280.667 377.167 278 379.5C275.333 381.833 271.167 383.5 265.5 384.5C259.833 385.5 253.833 383.5 247.5 378.5C241.167 373.5 233.667 368.667 225 364C216.333 359.333 207.5 355.167 198.5 351.5C189.5 347.833 178.5 344.167 165.5 340.5C152.5 336.833 142.667 334.333 136 333C129.333 331.667 124.333 331.167 121 331.5C117.667 331.833 114.833 333.333 112.5 336C110.167 338.667 109 341.5 109 344.5C109 347.5 115 356.167 127 370.5C139 384.833 148.833 398 156.5 410C164.167 422 170.833 433.833 176.5 445.5C182.167 457.167 189 473.667 197 495C205 516.333 213 534.333 221 549C229 563.667 237.167 575.833 245.5 585.5C253.833 595.167 260.333 601.333 265 604C269.667 606.667 275 608 281 608C287 608 292 607 296 605C300 603 303.667 600.333 307 597C310.333 593.667 312.5 592.333 313.5 593C314.5 593.667 319.5 600.167 328.5 612.5C337.5 624.833 345.333 637.333 352 650C358.667 662.667 364.667 677.667 370 695C375.333 712.333 385 727.833 399 741.5C413 755.167 420.667 763.5 422 766.5C423.333 769.5 424.333 774.167 425 780.5C425.667 786.833 427.5 793 430.5 799C433.5 805 437.5 810.167 442.5 814.5C447.5 818.833 452.333 821.833 457 823.5C461.667 825.167 474.833 825.833 496.5 825.5C518.167 825.167 532.5 825.333 539.5 826C546.5 826.667 553.167 826.333 559.5 825C565.833 823.667 570.833 822 574.5 820C578.167 818 581.667 815.333 585 812C588.333 808.667 591.333 804.333 594 799C596.667 793.667 598.333 787.833 599 781.5C599.667 775.167 600.667 770.5 602 767.5C603.333 764.5 611 756.167 625 742.5C639 728.833 648.167 714.667 652.5 700C656.833 685.333 660.667 674.167 664 666.5C667.333 658.833 672 649.833 678 639.5C684 629.167 690.333 619.5 697 610.5C703.667 601.5 708 596.167 710 594.5C712 592.833 714.5 593.667 717.5 597C720.5 600.333 723.5 602.833 726.5 604.5C729.5 606.167 734 607.333 740 608C746 608.667 751.333 608 756 606C760.667 604 766.5 599.5 773.5 592.5C780.5 585.5 787.167 577.167 793.5 567.5C799.833 557.833 805 549 809 541C813 533 819.167 517.833 827.5 495.5C835.833 473.167 842.5 456.833 847.5 446.5C852.5 436.167 860 423.333 870 408C880 392.667 889.667 379.833 899 369.5C908.333 359.167 913.5 353.167 914.5 351.5C915.5 349.833 916 347.5 916 344.5C916 341.5 915.167 338.833 913.5 336.5C911.833 334.167 910.167 332.667 908.5 332C906.833 331.333 899.333 332.167 886 334.5C872.667 336.833 857.167 341.167 839.5 347.5C821.833 353.833 807.333 360.167 796 366.5C784.667 372.833 777 377.667 773 381C769 384.333 764.333 385.5 759 384.5C753.667 383.5 749.5 381.667 746.5 379C743.5 376.333 741.167 373 739.5 369C737.833 365 737.167 355.167 737.5 339.5C737.833 323.833 737 312.333 735 305C733 297.667 728.5 288.667 721.5 278C714.5 267.333 706.333 257 697 247C687.667 237 676 226.833 662 216.5C648 206.167 634.833 198 622.5 192C610.167 186 596.333 180.833 581 176.5C565.667 172.167 549.167 169.333 531.5 168C513.833 166.667 497.167 167 481.5 169ZM520 189.5C530.667 189.833 540 190.667 548 192C556 193.333 568 196.667 584 202C600 207.333 612.333 212.333 621 217C629.667 221.667 638.167 227 646.5 233C654.833 239 663.333 246.167 672 254.5C680.667 262.833 687.167 269.667 691.5 275C695.833 280.333 700 286 704 292C708 298 710.833 303.167 712.5 307.5C714.167 311.833 714.833 322.167 714.5 338.5C714.167 354.833 714.5 365.167 715.5 369.5C716.5 373.833 718.333 378.667 721 384C723.667 389.333 726.667 393.667 730 397C733.333 400.333 736 402.333 738 403C739 403.333 740 403.667 741 404C738.667 409.667 736.333 415.333 734 421C729.333 432.333 725.667 445.5 723 460.5C721.667 468 720.333 475.5 719 483C720.667 479.667 722.333 476.333 724 473C727.333 466.333 731.5 459.333 736.5 452C741.5 444.667 748.833 436 758.5 426C768.167 416 779.333 406.667 792 398C804.667 389.333 815.667 382.833 825 378.5C834.333 374.167 843 370.833 851 368.5C855 367.333 859 366.167 863 365C852.167 373.833 841.333 382.667 830.5 391.5C808.833 409.167 793.333 422.667 784 432C774.667 441.333 765.833 451.167 757.5 461.5C749.167 471.833 742.333 482 737 492C731.667 502 729.333 511.333 730 520C730.667 528.667 729.833 536 727.5 542C725.167 548 721.833 553 717.5 557C713.167 561 709.167 564 705.5 566C701.833 568 697 570 691 572C685 574 678.667 575.5 672 576.5C665.333 577.5 660.5 579.333 657.5 582C654.5 584.667 651.333 588.667 648 594C644.667 599.333 641.167 606.167 637.5 614.5C633.833 622.833 630.833 634.167 628.5 648.5C627.333 655.667 626.167 662.833 625 670C627 665.833 629 661.667 631 657.5C635 649.167 639.167 641.667 643.5 635C647.833 628.333 653.333 621.333 660 614C666.667 606.667 670.833 602.333 672.5 601C673.333 600.333 674.167 599.667 675 599C675.167 599.333 675.333 599.667 675.5 600C675.833 600.667 674.333 603 671 607C667.667 611 662.333 619.667 655 633C647.667 646.333 642 658.5 638 669.5C634 680.5 631.333 689.333 630 696C628.667 702.667 620.667 713.5 606 728.5C591.333 743.5 583 753.333 581 758C579 762.667 577.667 768.333 577 775C576.333 781.667 575.167 786.5 573.5 789.5C571.833 792.5 569.333 795.167 566 797.5C562.667 799.833 559.667 801.333 557 802C554.333 802.667 543.667 802.667 525 802C506.333 801.333 492.5 801.333 483.5 802C474.5 802.667 467.333 801.667 462 799C456.667 796.333 453 793.333 451 790C449 786.667 447.667 781.5 447 774.5C446.333 767.5 444.833 761.5 442.5 756.5C440.167 751.5 435.333 745.167 428 737.5C420.667 729.833 414 723.5 408 718.5C402 713.5 396.167 702 390.5 684C384.833 666 379 651.167 373 639.5C367 627.833 361.333 618.333 356 611C353.333 607.333 350.667 603.667 348 600C348.5 600 349 600 349.5 600C350.5 600 354.167 603.167 360.5 609.5C366.833 615.833 371.5 621 374.5 625C377.5 629 382.333 637.167 389 649.5C392.333 655.667 395.667 661.833 399 668C398.667 664.333 398.333 660.667 398 657C397.333 649.667 395.833 641.667 393.5 633C391.167 624.333 386.833 614.167 380.5 602.5C374.167 590.833 369.5 583.833 366.5 581.5C363.5 579.167 356.167 576.667 344.5 574C332.833 571.333 324 568.333 318 565C312 561.667 307.5 558.5 304.5 555.5C301.5 552.5 298.833 548.5 296.5 543.5C294.167 538.5 293.333 531.167 294 521.5C294.667 511.833 292 501.5 286 490.5C280 479.5 273.833 470 267.5 462C261.167 454 254 445.833 246 437.5C238 429.167 228.167 419.833 216.5 409.5C204.833 399.167 192.833 389.333 180.5 380C174.333 375.333 168.167 370.667 162 366C163 366 164 366 165 366C167 366 170.833 367 176.5 369C182.167 371 190.333 374.5 201 379.5C211.667 384.5 223 391.167 235 399.5C247 407.833 258.5 418 269.5 430C280.5 442 289.167 453.667 295.5 465C298.667 470.667 301.833 476.333 305 482C304 475.667 303 469.333 302 463C300 450.333 296.5 437.333 291.5 424C286.5 410.667 285.167 403.5 287.5 402.5C289.833 401.5 292.333 399.667 295 397C297.667 394.333 300.5 390.167 303.5 384.5C306.5 378.833 308.5 374 309.5 370C310.5 366 310.833 355.667 310.5 339C310.167 322.333 311 311.5 313 306.5C315 301.5 317.333 297 320 293C322.667 289 329.667 280.667 341 268C352.333 255.333 364.667 244.167 378 234.5C391.333 224.833 402 218 410 214C418 210 426.667 206.333 436 203C445.333 199.667 455.333 196.833 466 194.5C476.667 192.167 485.667 190.667 493 190C500.333 189.333 509.333 189.167 520 189.5ZM379 290.5C369.667 299.5 360.833 309 352.5 319C344.167 329 337 338.5 331 347.5C325 356.5 320.5 364.333 317.5 371C316 374.333 314.5 377.667 313 381C317.667 376.333 322.333 371.667 327 367C336.333 357.667 344 351.333 350 348C356 344.667 361.167 342.5 365.5 341.5C367.667 341 369.833 340.5 372 340C370.833 338.667 369.667 337.333 368.5 336C366.167 333.333 365 330.833 365 328.5C365 326.167 369.667 317 379 301C383.667 293 388.333 285 393 277C388.333 281.5 383.667 286 379 290.5ZM638 288.5C643.333 296.167 648.167 304 652.5 312C656.833 320 659 325.333 659 328C659 330.667 657.833 333.167 655.5 335.5C654.333 336.667 653.167 337.833 652 339C654.667 339.833 657.333 340.667 660 341.5C665.333 343.167 670.833 345.667 676.5 349C682.167 352.333 689.5 358.667 698.5 368C703 372.667 707.5 377.333 712 382C710.333 378.333 708.667 374.667 707 371C703.667 363.667 698.167 354.5 690.5 343.5C682.833 332.5 676.167 323.667 670.5 317C664.833 310.333 656.667 302 646 292C640.667 287 635.333 282 630 277C632.667 280.833 635.333 284.667 638 288.5ZM397 351.5C403.667 358.5 422 375.5 452 402.5C482 429.5 497.833 445 499.5 449C501.167 453 502 457.333 502 462C502 466.667 501.333 471.667 500 477C498.667 482.333 496.5 486.833 493.5 490.5C490.5 494.167 488.167 496.333 486.5 497C484.833 497.667 482.167 497.833 478.5 497.5C474.833 497.167 460.667 485 436 461C411.333 437 395.5 422.333 388.5 417C381.5 411.667 375.333 407.833 370 405.5C364.667 403.167 359.833 401.667 355.5 401C351.167 400.333 347 400.167 343 400.5C339 400.833 334.667 401.833 330 403.5C325.333 405.167 320.5 408.167 315.5 412.5C310.5 416.833 307.167 420.667 305.5 424C304.667 425.667 303.833 427.333 303 429C305.833 428.333 308.667 427.667 311.5 427C317.167 425.667 324.167 425.167 332.5 425.5C340.833 425.833 348.167 427 354.5 429C360.833 431 366.5 433.333 371.5 436C374 437.333 376.5 438.667 379 440C373.333 441.667 367.667 443.333 362 445C350.667 448.333 341.5 452.333 334.5 457C327.5 461.667 325.167 468.167 327.5 476.5C329.833 484.833 333.5 493.167 338.5 501.5C343.5 509.833 350.167 518.167 358.5 526.5C366.833 534.833 374.333 540.833 381 544.5C387.667 548.167 395.333 550.333 404 551C412.667 551.667 421.833 550.333 431.5 547C436.333 545.333 441.167 543.667 446 542C443.167 544.5 440.333 547 437.5 549.5C431.833 554.5 426.167 558.167 420.5 560.5C414.833 562.833 408.667 563.833 402 563.5C395.333 563.167 387.333 561.667 378 559C373.333 557.667 368.667 556.333 364 555C364.167 555.5 364.333 556 364.5 556.5C364.833 557.5 371 560.833 383 566.5C395 572.167 404.333 575.167 411 575.5C417.667 575.833 426.667 571.167 438 561.5C449.333 551.833 457.833 543.167 463.5 535.5C469.167 527.833 472.5 522.667 473.5 520C474.5 517.333 476.833 515.667 480.5 515C484.167 514.333 487.833 513 491.5 511C495.167 509 499 510.333 503 515C505 517.333 507 519.667 509 522C508.167 518.333 507.333 514.667 506.5 511C504.833 503.667 505.333 498 508 494C509.333 492 510.667 490 512 488C513.333 490 514.667 492 516 494C518.667 498 519.333 503.5 518 510.5C517.333 514 516.667 517.5 516 521C518 518.667 520 516.333 522 514C526 509.333 530.333 508.333 535 511C539.667 513.667 543.167 515 545.5 515C547.833 515 549.833 516.833 551.5 520.5C553.167 524.167 556.833 529.667 562.5 537C568.167 544.333 574 550.833 580 556.5C586 562.167 591.833 567 597.5 571C603.167 575 609.667 576.5 617 575.5C624.333 574.5 633.5 571.167 644.5 565.5C650 562.667 655.5 559.833 661 557C660.333 556.833 659.667 556.667 659 556.5C657.667 556.167 652.833 557.167 644.5 559.5C636.167 561.833 628.667 563.167 622 563.5C615.333 563.833 609 562.667 603 560C597 557.333 591.833 554.333 587.5 551C583.167 547.667 580.667 545.333 580 544C579.667 543.333 579.333 542.667 579 542C580.5 542.833 582 543.667 583.5 544.5C586.5 546.167 591.167 547.833 597.5 549.5C603.833 551.167 611.5 551.667 620.5 551C629.5 550.333 637.333 548.167 644 544.5C650.667 540.833 658.167 534.833 666.5 526.5C674.833 518.167 681.5 509.833 686.5 501.5C691.5 493.167 695.167 484.833 697.5 476.5C699.833 468.167 696.333 461.167 687 455.5C677.667 449.833 668.5 445.833 659.5 443.5C655 442.333 650.5 441.167 646 440C648.833 438.5 651.667 437 654.5 435.5C660.167 432.5 666.833 430 674.5 428C682.167 426 689 425 695 425C701 425 707 425.667 713 427C716 427.667 719 428.333 722 429C721.167 427.333 720.333 425.667 719.5 424C717.833 420.667 714.5 416.833 709.5 412.5C704.5 408.167 699.667 405.167 695 403.5C690.333 401.833 685.833 400.833 681.5 400.5C677.167 400.167 672.333 400.5 667 401.5C661.667 402.5 656.333 404.333 651 407C645.667 409.667 639.333 414 632 420C624.667 426 610.167 439.833 588.5 461.5C566.833 483.167 554.833 494.667 552.5 496C550.167 497.333 547.167 497.833 543.5 497.5C539.833 497.167 536.5 495.667 533.5 493C530.5 490.333 528 485.5 526 478.5C524 471.5 523 466 523 462C523 458 523.667 454 525 450C526.333 446 545.5 426.833 582.5 392.5C601 375.333 619.5 358.167 638 341C622.333 352.167 606.667 363.333 591 374.5C559.667 396.833 541.333 409.5 536 412.5C530.667 415.5 526.667 417.333 524 418C521.333 418.667 517.5 419 512.5 419C507.5 419 502.333 418 497 416C491.667 414 472 401 438 377C421 365 404 353 387 341C390.333 344.5 393.667 348 397 351.5ZM204 428C209.167 432.667 214.333 437.333 219.5 442C229.833 451.333 234.5 458.667 233.5 464C232.5 469.333 232.167 475.333 232.5 482C232.667 485.333 232.833 488.667 233 492C236 490 239 488 242 486C248 482 252.333 481 255 483C256.333 484 257.667 485 259 486C257.333 486.5 255.667 487 254 487.5C250.667 488.5 247.833 490.333 245.5 493C243.167 495.667 241.5 498.5 240.5 501.5C239.5 504.5 239.167 507.833 239.5 511.5C239.833 515.167 242.667 521.5 248 530.5C253.333 539.5 257.833 544.667 261.5 546C265.167 547.333 269.167 547.5 273.5 546.5C277.833 545.5 281 547.333 283 552C285 556.667 287.667 561.167 291 565.5C294.333 569.833 295.833 572.667 295.5 574C295.167 575.333 293.833 577 291.5 579C289.167 581 286.5 582.333 283.5 583C280.5 583.667 277.167 583 273.5 581C269.833 579 263.667 571.833 255 559.5C246.333 547.167 238.5 533.333 231.5 518C224.5 502.667 219.167 489.333 215.5 478C211.833 466.667 209 455.5 207 444.5C206 439 205 433.5 204 428ZM820 428C819.667 431.333 819.333 434.667 819 438C818.333 444.667 816 454.833 812 468.5C808 482.167 801.833 498.167 793.5 516.5C785.167 534.833 778.5 547.833 773.5 555.5C768.5 563.167 764 569.167 760 573.5C756 577.833 752.667 580.667 750 582C747.333 583.333 744.167 583.5 740.5 582.5C736.833 581.5 733.833 579.333 731.5 576C729.167 572.667 729.667 569 733 565C736.333 561 739 556.667 741 552C743 547.333 746.167 545.5 750.5 546.5C754.833 547.5 758.833 547.333 762.5 546C766.167 544.667 769.167 542.667 771.5 540C773.833 537.333 776.667 532.667 780 526C783.333 519.333 785 513.833 785 509.5C785 505.167 784.5 501.833 783.5 499.5C782.5 497.167 780.667 494.667 778 492C775.333 489.333 772.667 487.667 770 487C768.667 486.667 767.333 486.333 766 486C767.333 485 768.667 484 770 483C772.667 481 777 482 783 486C786 488 789 490 792 492C792.167 489.5 792.333 487 792.5 484.5C792.833 479.5 792.5 473.5 791.5 466.5C790.5 459.5 795 451.333 805 442C810 437.333 815 432.667 820 428ZM389.5 466.5C390.667 466.667 391.833 466.833 393 467C392.5 469.167 392 471.333 391.5 473.5C390.5 477.833 390.5 481.5 391.5 484.5C392.5 487.5 394.167 490.333 396.5 493C398.833 495.667 401.5 497.667 404.5 499C407.5 500.333 410.667 501 414 501C417.333 501 421.333 499.5 426 496.5C428.333 495 430.667 493.5 433 492C433.667 493 434.333 494 435 495C436.333 497 436.833 499.5 436.5 502.5C436.167 505.5 434 508.5 430 511.5C426 514.5 422 516.5 418 517.5C414 518.5 409.667 518.667 405 518C400.333 517.333 396.167 515.833 392.5 513.5C388.833 511.167 385.667 508 383 504C380.333 500 378.667 496.5 378 493.5C377.333 490.5 377.333 486.5 378 481.5C378.667 476.5 380.167 472.667 382.5 470C384.833 467.333 387.167 466.167 389.5 466.5ZM632 466C633.5 466.167 635 466.333 636.5 466.5C639.5 466.833 642 468.833 644 472.5C646 476.167 647 480.5 647 485.5C647 490.5 646 495.167 644 499.5C642 503.833 639 507.667 635 511C631 514.333 627.167 516.5 623.5 517.5C619.833 518.5 615.333 518.667 610 518C604.667 517.333 600.5 516.167 597.5 514.5C594.5 512.833 592 510.667 590 508C588 505.333 587.167 502.667 587.5 500C587.833 497.333 588.5 495.333 589.5 494C590 493.333 590.5 492.667 591 492C592.833 493.333 594.667 494.667 596.5 496C600.167 498.667 604.167 500.167 608.5 500.5C612.833 500.833 616.333 500.5 619 499.5C621.667 498.5 624.333 496.667 627 494C629.667 491.333 631.5 488.833 632.5 486.5C633.5 484.167 633.667 480.167 633 474.5C632.667 471.667 632.333 468.833 632 466ZM465.5 567C457.833 570.333 452.833 573.167 450.5 575.5C448.167 577.833 447 580.667 447 584C447 587.333 449.667 592.833 455 600.5C460.333 608.167 464.833 612.333 468.5 613C472.167 613.667 474.833 613.333 476.5 612C478.167 610.667 482.5 614 489.5 622C496.5 630 501.167 634.5 503.5 635.5C505.833 636.5 508.833 637 512.5 637C516.167 637 519.333 636.333 522 635C524.667 633.667 529.167 629.333 535.5 622C541.833 614.667 545.833 611.5 547.5 612.5C549.167 613.5 552 613.667 556 613C560 612.333 563.5 610.167 566.5 606.5C569.5 602.833 572.333 598.5 575 593.5C577.667 588.5 578.833 584.833 578.5 582.5C578.167 580.167 577 578 575 576C573 574 569.5 571.667 564.5 569C559.5 566.333 555 564.5 551 563.5C549 563 547 562.5 545 562C547 564.833 549 567.667 551 570.5C555 576.167 557 579.5 557 580.5C557 581.5 554 582.833 548 584.5C542 586.167 538.167 588 536.5 590C534.833 592 533.333 595.167 532 599.5C530.667 603.833 529.167 606.833 527.5 608.5C525.833 610.167 523.167 611.667 519.5 613C515.833 614.333 512.5 614.833 509.5 614.5C506.5 614.167 503.167 612.667 499.5 610C495.833 607.333 493.333 604 492 600C490.667 596 489.167 592.833 487.5 590.5C485.833 588.167 482 586.167 476 584.5C473 583.667 470 582.833 467 582C467.333 581 467.667 580 468 579C468.667 577 470.5 574.167 473.5 570.5C476.5 566.833 478.167 564.5 478.5 563.5C478.667 563 478.833 562.5 479 562C478.667 562 478.333 562 478 562C477.333 562 473.167 563.667 465.5 567ZM414 602C410 606 406 610 402 614C403.167 614.333 404.333 614.667 405.5 615C407.833 615.667 409.5 616.833 410.5 618.5C411.5 620.167 412.5 633.333 413.5 658C414.5 682.667 415.667 697.667 417 703C418.333 708.333 420.333 713.333 423 718C424.333 720.333 425.667 722.667 427 725C428.833 722.667 430.667 720.333 432.5 718C436.167 713.333 440.5 709.667 445.5 707C450.5 704.333 460.333 701.167 475 697.5C489.667 693.833 502 692 512 692C522 692 532 693 542 695C552 697 561.167 699.667 569.5 703C577.833 706.333 583.333 709 586 711C588.667 713 591 715.833 593 719.5C595 723.167 596.5 724.833 597.5 724.5C598.5 724.167 599.833 722.5 601.5 719.5C603.167 716.5 604.833 712 606.5 706C608.167 700 609.5 684.5 610.5 659.5C611.5 634.5 612.833 620.833 614.5 618.5C616.167 616.167 618 614.833 620 614.5C621 614.333 622 614.167 623 614C619.5 610.5 616 607 612.5 603.5C605.5 596.5 601.167 592.5 599.5 591.5C598.667 591 597.833 590.5 597 590C598.167 593.167 599.333 596.333 600.5 599.5C602.833 605.833 603.333 609.5 602 610.5C600.667 611.5 599.333 613.5 598 616.5C596.667 619.5 596.333 630 597 648C597.667 666 597.5 677.667 596.5 683C596 685.667 595.5 688.333 595 691C589.5 688.5 584 686 578.5 683.5C567.5 678.5 555.833 674.833 543.5 672.5C531.167 670.167 520.833 669 512.5 669C504.167 669 495.667 669.667 487 671C478.333 672.333 470.167 674.167 462.5 676.5C454.833 678.833 447.333 681.833 440 685.5C436.333 687.333 432.667 689.167 429 691C428.5 688 428 685 427.5 682C426.5 676 426.5 664.833 427.5 648.5C428.5 632.167 428.5 622.333 427.5 619C426.5 615.667 425.167 613.333 423.5 612C421.833 610.667 421.833 606.667 423.5 600C424.333 596.667 425.167 593.333 426 590C422 594 418 598 414 602ZM482.5 708.5C472.167 710.167 465.167 711.667 461.5 713C459.667 713.667 457.833 714.333 456 715C457.5 715.667 459 716.333 460.5 717C463.5 718.333 469.667 720 479 722C488.333 724 499 725 511 725C523 725 535.5 723.5 548.5 720.5C561.5 717.5 568 715.667 568 715C568 714.333 563.833 713 555.5 711C547.167 709 535.5 707.667 520.5 707C505.5 706.333 492.833 706.833 482.5 708.5ZM498.5 754.5C494.333 759.333 490.167 764.167 486 769C489.5 767.167 493 765.333 496.5 763.5C503.5 759.833 509.667 758.333 515 759C520.333 759.667 525.5 761.5 530.5 764.5C533 766 535.5 767.5 538 769C535.833 766.167 533.667 763.333 531.5 760.5C527.167 754.833 522.667 750 518 746C515.667 744 513.333 742 511 740C506.833 744.833 502.667 749.667 498.5 754.5Z" fill="#000000" fill-rule="nonzero" opacity="1" stroke="none" vectornator:layerName="Curve 1"/>
</g>
</svg>
