<?xml version="1.0" encoding="UTF-8" standalone="no"?>
<!DOCTYPE svg PUBLIC "-//W3C//DTD SVG 1.1//EN" "http://www.w3.org/Graphics/SVG/1.1/DTD/svg11.dtd">
<!-- Created with Vectornator (http://vectornator.io/) -->
<svg height="100%" stroke-miterlimit="10" style="fill-rule:nonzero;clip-rule:evenodd;stroke-linecap:round;stroke-linejoin:round;" version="1.1" viewBox="46 131.438 930 735.848" width="100%" xml:space="preserve" xmlns="http://www.w3.org/2000/svg" xmlns:vectornator="http://vectornator.io" xmlns:xlink="http://www.w3.org/1999/xlink">
<defs/>
<g id="Layer-1" vectornator:layerName="Layer 1">
<path d="M465.5 134.5C449.833 136.833 435.5 140 422.5 144C409.5 148 396.667 153 384 159C371.333 165 359.167 171.833 347.5 179.5C335.833 187.167 323.667 196.833 311 208.5C298.333 220.167 287.5 231.833 278.5 243.5C269.5 255.167 261.333 267.667 254 281C246.667 294.333 240.667 307.5 236 320.5C231.333 333.5 228 341.167 226 343.5C224 345.833 222.167 346.833 220.5 346.5C218.833 346.167 213.167 340.833 203.5 330.5C193.833 320.167 185.667 312.333 179 307C172.333 301.667 164.5 296.167 155.5 290.5C146.5 284.833 137 279.833 127 275.5C117 271.167 106.5 267.667 95.5 265C84.5 262.333 76.6667 261 72 261C67.3333 261 63.6667 261.5 61 262.5C58.3333 263.5 55.8333 265.167 53.5 267.5C51.1667 269.833 49.3333 272.667 48 276C46.6667 279.333 46 282.167 46 284.5C46 286.833 47.1667 290.833 49.5 296.5C51.8333 302.167 62.5 320 81.5 350C100.5 380 110 403.5 110 420.5C110 437.5 110.5 450 111.5 458C112.5 466 114.167 474.333 116.5 483C118.833 491.667 122.167 500.667 126.5 510C130.833 519.333 135.667 527.833 141 535.5C146.333 543.167 151.333 549.5 156 554.5C160.667 559.5 166.5 564.833 173.5 570.5C180.5 576.167 189.5 582.333 200.5 589C211.5 595.667 219.5 605.5 224.5 618.5C229.5 631.5 235.833 643.5 243.5 654.5C251.167 665.5 259.5 675 268.5 683C277.5 691 287.333 697.667 298 703C308.667 708.333 315.333 712.333 318 715C320.667 717.667 338.167 738.833 370.5 778.5C402.833 818.167 422.333 841.333 429 848C435.667 854.667 440.5 858.833 443.5 860.5C446.5 862.167 450.167 863.5 454.5 864.5C458.833 865.5 475.333 866.333 504 867C532.667 867.667 550.667 867.167 558 865.5C565.333 863.833 571.5 861.333 576.5 858C581.5 854.667 602.667 830.667 640 786C677.333 741.333 697 718 699 716C701 714 704.333 712.167 709 710.5C713.667 708.833 720 705.667 728 701C736 696.333 744.333 690.167 753 682.5C761.667 674.833 769.833 665.5 777.5 654.5C785.167 643.5 791.667 631.333 797 618C802.333 604.667 812 593.833 826 585.5C840 577.167 852 568 862 558C872 548 880.167 537.833 886.5 527.5C892.833 517.167 898 506.333 902 495C906 483.667 908.833 471.5 910.5 458.5C912.167 445.5 913 431.333 913 416C913 400.667 922.667 377.833 942 347.5C961.333 317.167 971.833 299.833 973.5 295.5C975.167 291.167 976 287.5 976 284.5C976 281.5 975.333 278.5 974 275.5C972.667 272.5 971 270 969 268C967 266 964.5 264.333 961.5 263C958.5 261.667 952.833 261.333 944.5 262C936.167 262.667 927 264.5 917 267.5C907 270.5 894.667 275.833 880 283.5C865.333 291.167 853 299 843 307C833 315 824 323.5 816 332.5C808 341.5 802.833 346.167 800.5 346.5C798.167 346.833 796.333 346.333 795 345C793.667 343.667 791.333 338.167 788 328.5C784.667 318.833 780.667 309.167 776 299.5C771.333 289.833 765.667 279.667 759 269C752.333 258.333 745.667 248.833 739 240.5C732.333 232.167 725.5 224.5 718.5 217.5C711.5 210.5 702.5 202.667 691.5 194C680.5 185.333 666.833 176.5 650.5 167.5C634.167 158.5 619.333 151.667 606 147C592.667 142.333 578.667 138.667 564 136C549.333 133.333 533.167 131.833 515.5 131.5C497.833 131.167 481.167 132.167 465.5 134.5ZM539.5 170.5C559.167 172.833 577.167 176.833 593.5 182.5C609.833 188.167 621.833 193 629.5 197C637.167 201 645.5 206 654.5 212C663.5 218 671 223.5 677 228.5C683 233.5 690.5 240.833 699.5 250.5C708.5 260.167 715.833 269.167 721.5 277.5C727.167 285.833 733 295.833 739 307.5C745 319.167 751.167 334.667 757.5 354C763.833 373.333 767.5 389.167 768.5 401.5C769.5 413.833 769.667 426.167 769 438.5C768.333 450.833 767.167 462.667 765.5 474C764.667 479.667 763.833 485.333 763 491C769.167 478.667 775.333 466.333 781.5 454C793.833 429.333 803.333 411.833 810 401.5C816.667 391.167 823.833 381.167 831.5 371.5C839.167 361.833 846 354 852 348C858 342 864.167 336.667 870.5 332C876.833 327.333 884.833 322.5 894.5 317.5C904.167 312.5 912.333 308.833 919 306.5C922.333 305.333 925.667 304.167 929 303C920.833 315.667 912.667 328.333 904.5 341C888.167 366.333 879.5 382 878.5 388C877.5 394 877 405.5 877 422.5C877 439.5 876.5 451 875.5 457C874.5 463 872.667 470 870 478C867.333 486 863.333 494.667 858 504C852.667 513.333 846 522.167 838 530.5C830 538.833 820 546.667 808 554C796 561.333 789.333 565 788 565C786.667 565 784.833 559.333 782.5 548C780.167 536.667 778.667 531 778 531C777.333 531 776.833 535.167 776.5 543.5C776.167 551.833 774.833 561.833 772.5 573.5C770.167 585.167 767.333 595.333 764 604C760.667 612.667 756.833 620.5 752.5 627.5C748.167 634.5 742 642 734 650C726 658 717 664.667 707 670C697 675.333 688.5 678.833 681.5 680.5C674.5 682.167 664.833 682.833 652.5 682.5C646.333 682.333 640.167 682.167 634 682C638.5 683.667 643 685.333 647.5 687C656.5 690.333 661.667 692.667 663 694C664.333 695.333 664.833 697 664.5 699C664.167 701 647.5 721.667 614.5 761C581.5 800.333 563.833 821.167 561.5 823.5C559.167 825.833 556.667 827.667 554 829C551.333 830.333 537.167 831 511.5 831C485.833 831 470.667 830.333 466 829C461.333 827.667 441.333 806.167 406 764.5C370.667 722.833 353 700.833 353 698.5C353 696.167 353.5 694.5 354.5 693.5C355.5 692.5 360.667 690.333 370 687C374.667 685.333 379.333 683.667 384 682C378.167 682.167 372.333 682.333 366.5 682.5C354.833 682.833 345.5 682.167 338.5 680.5C331.5 678.833 323.5 675.667 314.5 671C305.5 666.333 297.167 660.5 289.5 653.5C281.833 646.5 275.833 639.833 271.5 633.5C267.167 627.167 262.667 618.333 258 607C253.333 595.667 250 585.333 248 576C246 566.667 244.667 556.833 244 546.5C243.333 536.167 242.667 530.833 242 530.5C241.667 530.333 241.333 530.167 241 530C239.833 535.833 238.667 541.667 237.5 547.5C235.167 559.167 233.5 565 232.5 565C231.5 565 224.667 560.833 212 552.5C199.333 544.167 190.333 537.333 185 532C179.667 526.667 175 521.167 171 515.5C167 509.833 163.167 503.167 159.5 495.5C155.833 487.833 152.833 480 150.5 472C148.167 464 146.667 457.667 146 453C145.333 448.333 145 437 145 419C145 401 144.5 389.833 143.5 385.5C142.5 381.167 134 366.667 118 342C102 317.333 94.1667 304.667 94.5 304C94.8333 303.333 98 304.167 104 306.5C110 308.833 117.5 312.333 126.5 317C135.5 321.667 143.833 326.833 151.5 332.5C159.167 338.167 165.5 343.5 170.5 348.5C175.5 353.5 182 361 190 371C198 381 205.833 392 213.5 404C221.167 416 230.667 433.5 242 456.5C247.667 468 253.333 479.5 259 491C257.667 480.667 256.333 470.333 255 460C252.333 439.333 251.333 421.833 252 407.5C252.667 393.167 254.833 379.333 258.5 366C262.167 352.667 265.5 342.167 268.5 334.5C271.5 326.833 275.333 318.333 280 309C284.667 299.667 290.167 290.167 296.5 280.5C302.833 270.833 311.333 260.333 322 249C332.667 237.667 340.667 229.833 346 225.5C351.333 221.167 358 216.333 366 211C374 205.667 382.167 200.833 390.5 196.5C398.833 192.167 411.667 187.167 429 181.5C446.333 175.833 464.167 172 482.5 170C500.833 168 519.833 168.167 539.5 170.5ZM162.5 402.5C162.167 410.167 162.5 417.833 163.5 425.5C164.5 433.167 166.667 442.667 170 454C173.333 465.333 179.167 478.5 187.5 493.5C195.833 508.5 205 521.667 215 533C220 538.667 225 544.333 230 550C230.167 545.5 230.333 541 230.5 536.5C230.833 527.5 229 516.333 225 503C221 489.667 214.167 473.833 204.5 455.5C194.833 437.167 185.5 421.833 176.5 409.5C172 403.333 167.5 397.167 163 391C162.833 394.833 162.667 398.667 162.5 402.5ZM842.5 413.5C832.167 428.5 822.833 444.167 814.5 460.5C806.167 476.833 800.333 490.5 797 501.5C793.667 512.5 791.833 523.167 791.5 533.5C791.333 538.667 791.167 543.833 791 549C793.833 546.333 796.667 543.667 799.5 541C805.167 535.667 810.667 529.667 816 523C821.333 516.333 827.5 506.833 834.5 494.5C841.5 482.167 846.5 471.833 849.5 463.5C852.5 455.167 854.833 447 856.5 439C858.167 431 859.333 422.167 860 412.5C860.667 402.833 860.833 396.833 860.5 394.5C860.167 392.167 859.667 391 859 391C858.333 391 852.833 398.5 842.5 413.5ZM342.5 428C335.5 429.333 327.833 432.333 319.5 437C311.167 441.667 303.833 448 297.5 456C291.167 464 286.667 472.333 284 481C282.667 485.333 281.333 489.667 280 494C282.5 489.667 285 485.333 287.5 481C292.5 472.333 298.5 465 305.5 459C312.5 453 320 448.667 328 446C336 443.333 345.667 442.333 357 443C368.333 443.667 379.5 446.167 390.5 450.5C401.5 454.833 411.5 460.167 420.5 466.5C429.5 472.833 439.167 481.167 449.5 491.5C459.833 501.833 468.833 512.667 476.5 524C480.333 529.667 484.167 535.333 488 541C487 536.833 486 532.667 485 528.5C483 520.167 480.167 512.167 476.5 504.5C472.833 496.833 468.5 489.5 463.5 482.5C458.5 475.5 453.167 469.167 447.5 463.5C441.833 457.833 436 452.833 430 448.5C424 444.167 417.5 440.333 410.5 437C403.5 433.667 395.833 431 387.5 429C379.167 427 371.333 426 364 426C356.667 426 349.5 426.667 342.5 428ZM634 428C627.333 429.333 619.667 431.833 611 435.5C602.333 439.167 594.833 443.167 588.5 447.5C582.167 451.833 576.5 456.333 571.5 461C566.5 465.667 562.333 470 559 474C555.667 478 551.5 484.167 546.5 492.5C541.5 500.833 537.833 508.167 535.5 514.5C533.167 520.833 531.5 527 530.5 533C530 536 529.5 539 529 542C532.833 536.167 536.667 530.333 540.5 524.5C548.167 512.833 557.333 501.667 568 491C578.667 480.333 589.333 471.5 600 464.5C610.667 457.5 620.667 452.333 630 449C639.333 445.667 649.667 443.667 661 443C672.333 442.333 680.167 442.5 684.5 443.5C688.833 444.5 693 446 697 448C701 450 706.333 454 713 460C719.667 466 725.333 473.167 730 481.5C732.333 485.667 734.667 489.833 737 494C736.667 491.833 736.333 489.667 736 487.5C735.333 483.167 733.667 478 731 472C728.333 466 723.667 459.333 717 452C710.333 444.667 704.333 439.5 699 436.5C693.667 433.5 688.833 431.333 684.5 430C680.167 428.667 672.333 427.667 661 427C649.667 426.333 640.667 426.667 634 428ZM364.5 475C354.167 477 344.667 480.333 336 485C327.333 489.667 320.167 494.667 314.5 500C308.833 505.333 303.333 512.5 298 521.5C292.667 530.5 288.833 539.833 286.5 549.5C284.167 559.167 283.333 568.333 284 577C284.667 585.667 286.667 593.5 290 600.5C293.333 607.5 297.833 613.833 303.5 619.5C306.333 622.333 309.167 625.167 312 628C310 624.5 308 621 306 617.5C302 610.5 299.167 604.333 297.5 599C295.833 593.667 294.833 587.167 294.5 579.5C294.167 571.833 294.667 566 296 562C296.667 560 297.333 558 298 556C298.5 556.333 299 556.667 299.5 557C300.5 557.667 302 561.5 304 568.5C306 575.5 308.333 581.5 311 586.5C313.667 591.5 318 597 324 603C330 609 338 614.333 348 619C358 623.667 368.167 626.167 378.5 626.5C388.833 626.833 398.333 625.667 407 623C415.667 620.333 424.333 616.333 433 611C441.667 605.667 449.667 599.5 457 592.5C464.333 585.5 471.333 577.333 478 568C484.667 558.667 487.5 552.167 486.5 548.5C485.5 544.833 483.333 540.667 480 536C476.667 531.333 468.667 522.667 456 510C443.333 497.333 432.167 488.5 422.5 483.5C412.833 478.5 403.333 475.333 394 474C384.667 472.667 374.833 473 364.5 475ZM615.5 475.5C605.833 477.833 596.667 481.667 588 487C579.333 492.333 570 500.167 560 510.5C550 520.833 542.833 529 538.5 535C534.167 541 531.5 545.667 530.5 549C529.5 552.333 532.333 558.5 539 567.5C545.667 576.5 553.833 585.5 563.5 594.5C573.167 603.5 582.167 610.333 590.5 615C598.833 619.667 607.5 623 616.5 625C625.5 627 633 627.833 639 627.5C645 627.167 650.667 626.333 656 625C661.333 623.667 668.5 620.333 677.5 615C686.5 609.667 693.667 603.667 699 597C704.333 590.333 709 581.833 713 571.5C715 566.333 717 561.167 719 556C719.833 558.667 720.667 561.333 721.5 564C723.167 569.333 723.833 574.833 723.5 580.5C723.167 586.167 722 592.333 720 599C718 605.667 714.833 612 710.5 618C708.333 621 706.167 624 704 627C704.333 627.167 704.667 627.333 705 627.5C705.667 627.833 708.667 625.333 714 620C719.333 614.667 723.833 608.5 727.5 601.5C731.167 594.5 733.333 589 734 585C734.667 581 734.833 575.833 734.5 569.5C734.167 563.167 732.667 555.5 730 546.5C727.333 537.5 722.833 528.167 716.5 518.5C710.167 508.833 703.833 501.333 697.5 496C691.167 490.667 683.167 485.833 673.5 481.5C663.833 477.167 654.167 474.5 644.5 473.5C634.833 472.5 625.167 473.167 615.5 475.5ZM355.5 503C359.167 503 362 503.5 364 504.5C366 505.5 368.5 508 371.5 512C374.5 516 376 520.167 376 524.5C376 528.833 375.5 532 374.5 534C373.5 536 371.167 538.333 367.5 541C363.833 543.667 359.667 545 355 545C350.333 545 345.833 542.833 341.5 538.5C337.167 534.167 334.833 530 334.5 526C334.167 522 334.5 518.833 335.5 516.5C336.5 514.167 337.833 512 339.5 510C341.167 508 343.333 506.333 346 505C348.667 503.667 351.833 503 355.5 503ZM607 503C609.667 503 612.5 503.667 615.5 505C618.5 506.333 621.333 509.333 624 514C626.667 518.667 628 522.333 628 525C628 527.667 627.5 530.167 626.5 532.5C625.5 534.833 623.833 537.167 621.5 539.5C619.167 541.833 616.667 543.5 614 544.5C611.333 545.5 607.333 545.333 602 544C596.667 542.667 592.667 540 590 536C587.333 532 586 528.167 586 524.5C586 520.833 586.5 517.833 587.5 515.5C588.5 513.167 590 511 592 509C594 507 596.333 505.5 599 504.5C601.667 503.5 604.333 503 607 503ZM549 607.5C555.667 617.167 562.833 625.5 570.5 632.5C578.167 639.5 586.167 645.333 594.5 650C602.833 654.667 611.667 658.167 621 660.5C630.333 662.833 638.833 664 646.5 664C654.167 664 662.333 663 671 661C679.667 659 688.833 655.167 698.5 649.5C708.167 643.833 716 637.5 722 630.5C725 627 728 623.5 731 620C727.833 622.5 724.667 625 721.5 627.5C715.167 632.5 708.5 636.5 701.5 639.5C694.5 642.5 688.333 644.5 683 645.5C677.667 646.5 669.833 647 659.5 647C649.167 647 639.833 646.167 631.5 644.5C623.167 642.833 613.167 639.5 601.5 634.5C589.833 629.5 579.167 623.667 569.5 617C559.833 610.333 552.333 604.667 547 600C544.333 597.667 541.667 595.333 539 593C542.333 597.833 545.667 602.667 549 607.5ZM465.5 603C458.5 609 450.833 614.667 442.5 620C434.167 625.333 425.5 630 416.5 634C407.5 638 397.667 641.167 387 643.5C376.333 645.833 366.333 647 357 647C347.667 647 340.333 646.5 335 645.5C329.667 644.5 323.5 642.5 316.5 639.5C309.5 636.5 303.833 633 299.5 629C295.167 625 292.333 622.833 291 622.5C290.333 622.333 289.667 622.167 289 622C291.5 625 294 628 296.5 631C301.5 637 308.167 642.667 316.5 648C324.833 653.333 334 657.333 344 660C354 662.667 363.833 663.833 373.5 663.5C383.167 663.167 392.667 661.5 402 658.5C411.333 655.5 420 651.5 428 646.5C436 641.5 443.667 635.5 451 628.5C458.333 621.5 464.5 614.5 469.5 607.5C474.5 600.5 477.167 596.5 477.5 595.5C477.667 595 477.833 594.5 478 594C477.667 594 477.333 594 477 594C476.333 594 472.5 597 465.5 603ZM473 649.5C469.667 651.833 468 654.167 468 656.5C468 658.833 469.333 660.833 472 662.5C474.667 664.167 478.833 665.333 484.5 666C490.167 666.667 495.167 668.667 499.5 672C503.833 675.333 507.667 676.667 511 676C514.333 675.333 517.833 673.5 521.5 670.5C525.167 667.5 529.333 665.833 534 665.5C538.667 665.167 542.667 664 546 662C549.333 660 550.833 657.833 550.5 655.5C550.167 653.167 548.5 651 545.5 649C542.5 647 539.5 646 536.5 646C533.5 646 529.833 647.333 525.5 650C521.167 652.667 515.833 654 509.5 654C503.167 654 497.833 652.667 493.5 650C489.167 647.333 485.5 646 482.5 646C479.5 646 476.333 647.167 473 649.5ZM396 718C403.333 728 411.667 737.167 421 745.5C430.333 753.833 439.5 760.333 448.5 765C457.5 769.667 467.833 773.333 479.5 776C491.167 778.667 503.5 779.667 516.5 779C529.5 778.333 539.5 777 546.5 775C553.5 773 560.167 770.5 566.5 767.5C572.833 764.5 578.5 761.333 583.5 758C588.5 754.667 594.167 750 600.5 744C606.833 738 613.833 730 621.5 720C629.167 710 632.833 704.667 632.5 704C632.167 703.333 619.833 706.833 595.5 714.5C571.167 722.167 554.333 726.833 545 728.5C535.667 730.167 525.667 731.167 515 731.5C504.333 731.833 490.333 730.5 473 727.5C455.667 724.5 436.667 719.667 416 713C405.667 709.667 395.333 706.333 385 703C388.667 708 392.333 713 396 718ZM440 748C448.833 749.667 457.667 751.333 466.5 753C484.167 756.333 500.167 757.833 514.5 757.5C528.833 757.167 543 755.667 557 753C564 751.667 571 750.333 578 749C575 750.833 572 752.667 569 754.5C563 758.167 556.333 761.167 549 763.5C541.667 765.833 530.667 767.333 516 768C501.333 768.667 488.5 767.667 477.5 765C466.5 762.333 457.5 758.833 450.5 754.5C447 752.333 443.5 750.167 440 748Z" fill="#000000" fill-rule="nonzero" opacity="1" stroke="none" vectornator:layerName="Curve 1"/>
</g>
</svg>
