<?xml version="1.0" encoding="UTF-8" standalone="no"?>
<!DOCTYPE svg PUBLIC "-//W3C//DTD SVG 1.1//EN" "http://www.w3.org/Graphics/SVG/1.1/DTD/svg11.dtd">
<!-- Created with Vectornator (http://vectornator.io/) -->
<svg height="100%" stroke-miterlimit="10" style="fill-rule:nonzero;clip-rule:evenodd;stroke-linecap:round;stroke-linejoin:round;" version="1.1" viewBox="86 83.4444 851.6 847.139" width="100%" xml:space="preserve" xmlns="http://www.w3.org/2000/svg" xmlns:vectornator="http://vectornator.io" xmlns:xlink="http://www.w3.org/1999/xlink">
<defs/>
<g id="Layer-1" vectornator:layerName="Layer 1">
<path d="M387.5 87C376.5 89.6667 365.333 93.8333 354 99.5C342.667 105.167 318.5 120.167 281.5 144.5C244.5 168.833 215.833 188.167 195.5 202.5C175.167 216.833 163.667 225.5 161 228.5C158.333 231.5 157.333 234.167 158 236.5C158.667 238.833 160.667 240.167 164 240.5C167.333 240.833 172.667 239.167 180 235.5C187.333 231.833 193 229.833 197 229.5C201 229.167 203.5 229.667 204.5 231C205.5 232.333 205.833 234.333 205.5 237C205.167 239.667 203.833 242.833 201.5 246.5C199.167 250.167 195.333 254.5 190 259.5C184.667 264.5 175 271.167 161 279.5C147 287.833 138.167 293.5 134.5 296.5C130.833 299.5 129 301.333 129 302C129 302.333 129 302.667 129 303C133.167 302.667 137.333 302.333 141.5 302C149.833 301.333 155 301.667 157 303C159 304.333 160 305.833 160 307.5C160 309.167 159.167 311.5 157.5 314.5C155.833 317.5 149.333 325.833 138 339.5C126.667 353.167 119.333 363.833 116 371.5C112.667 379.167 110.333 386.333 109 393C107.667 399.667 107 408.333 107 419C107 429.667 107.667 438 109 444C110.333 450 112.833 457.167 116.5 465.5C120.167 473.833 125 482.333 131 491C137 499.667 140.333 505.333 141 508C141.667 510.667 141.5 512.667 140.5 514C139.5 515.333 138.167 516 136.5 516C134.833 516 132.167 514.833 128.5 512.5C124.833 510.167 120 506 114 500C108 494 103.333 488.167 100 482.5C96.6667 476.833 94.5 473.833 93.5 473.5C92.5 473.167 91.8333 473.333 91.5 474C91.1667 474.667 91 476.667 91 480C91 483.333 91.6667 487.667 93 493C94.3333 498.333 96.6667 504.167 100 510.5C103.333 516.833 110.833 525.833 122.5 537.5C128.333 543.333 134.167 549.167 140 555C138.5 555 137 555 135.5 555C132.5 555 130.167 555.5 128.5 556.5C126.833 557.5 125.833 560 125.5 564C125.167 568 125.333 570.5 126 571.5C126.333 572 126.667 572.5 127 573C126.667 573 126.333 573 126 573C125.333 573 120.833 569.667 112.5 563C104.167 556.333 98.3333 550.167 95 544.5C91.6667 538.833 89.5 536 88.5 536C87.5 536 86.8333 536.5 86.5 537.5C86.1667 538.5 86 541 86 545C86 549 86.6667 553.667 88 559C89.3333 564.333 91.8333 570.167 95.5 576.5C99.1667 582.833 105 590.167 113 598.5C121 606.833 131.333 616.667 144 628C156.667 639.333 164.5 647.5 167.5 652.5C170.5 657.5 172.167 662.333 172.5 667C172.833 671.667 170.333 679.333 165 690C159.667 700.667 155.667 709.833 153 717.5C150.333 725.167 149.333 732.5 150 739.5C150.667 746.5 152.5 752.5 155.5 757.5C158.5 762.5 161.333 766.333 164 769C165.333 770.333 166.667 771.667 168 773C168.667 767.833 169.333 762.667 170 757.5C171.333 747.167 172.5 741 173.5 739C174.5 737 177 734.5 181 731.5C183 730 185 728.5 187 727C188.167 734.667 189.333 742.333 190.5 750C192.833 765.333 196.167 777 200.5 785C204.833 793 209.5 799.333 214.5 804C219.5 808.667 225.167 813 231.5 817C237.833 821 247.667 825.667 261 831C274.333 836.333 283.667 840.5 289 843.5C294.333 846.5 298.5 849.667 301.5 853C304.5 856.333 307.667 862.167 311 870.5C314.333 878.833 317.5 885 320.5 889C323.5 893 328.333 897.667 335 903C341.667 908.333 347.5 912 352.5 914C357.5 916 362.167 917.333 366.5 918C368.667 918.333 370.833 918.667 373 919C373 918.5 373 918 373 917.5C373 916.5 370.833 914 366.5 910C362.167 906 359.167 902.167 357.5 898.5C355.833 894.833 355.167 891.333 355.5 888C355.833 884.667 357.167 881.833 359.5 879.5C361.833 877.167 365.167 876.333 369.5 877C373.833 877.667 378.833 880.667 384.5 886C390.167 891.333 398.333 897.5 409 904.5C419.667 911.5 429.5 916.667 438.5 920C447.5 923.333 456.333 925.833 465 927.5C473.667 929.167 493.167 930.167 523.5 930.5C553.833 930.833 574.167 930.167 584.5 928.5C594.833 926.833 603 924.833 609 922.5C615 920.167 620.667 917.333 626 914C631.333 910.667 640.167 903.5 652.5 892.5C664.833 881.5 673 876.167 677 876.5C681 876.833 683.833 877.833 685.5 879.5C687.167 881.167 688.333 883 689 885C689.667 887 689.5 890 688.5 894C687.5 898 684.5 902.833 679.5 908.5C677 911.333 674.5 914.167 672 917C676.667 916.333 681.333 915.667 686 915C695.333 913.667 702.5 911.5 707.5 908.5C712.5 905.5 716.833 902.167 720.5 898.5C724.167 894.833 729.167 888 735.5 878C741.833 868 747.333 860.5 752 855.5C756.667 850.5 761 846.833 765 844.5C769 842.167 775.833 839.167 785.5 835.5C795.167 831.833 802.167 828.5 806.5 825.5C810.833 822.5 814.667 819.167 818 815.5C821.333 811.833 824.5 807.333 827.5 802C830.5 796.667 834.167 787.667 838.5 775C842.833 762.333 845.833 755.333 847.5 754C849.167 752.667 851.667 751.667 855 751C858.333 750.333 860.5 749.333 861.5 748C862.5 746.667 863.167 743 863.5 737C863.833 731 862.667 722.5 860 711.5C857.333 700.5 856 691.667 856 685C856 678.333 856.5 673.5 857.5 670.5C858.5 667.5 861.667 662.333 867 655C872.333 647.667 883.167 635 899.5 617C915.833 599 926.167 586.333 930.5 579C934.833 571.667 937.167 565.333 937.5 560C937.833 554.667 937.333 549.833 936 545.5C935.333 543.333 934.667 541.167 934 539C932.167 542.167 930.333 545.333 928.5 548.5C924.833 554.833 921.5 559.667 918.5 563C915.5 566.333 912.667 568.5 910 569.5C907.333 570.5 905.167 570.667 903.5 570C901.833 569.333 900.333 568 899 566C897.667 564 897.333 560.333 898 555C898.667 549.667 902.667 543.5 910 536.5C917.333 529.5 922.667 522 926 514C929.333 506 931 498.5 931 491.5C931 484.5 930.333 479.333 929 476C928.333 474.333 927.667 472.667 927 471C926.167 471.333 925.333 471.667 924.5 472C922.833 472.667 920.833 475.5 918.5 480.5C916.167 485.5 913.5 489.833 910.5 493.5C907.5 497.167 905.333 499.333 904 500C902.667 500.667 900.833 500.833 898.5 500.5C896.167 500.167 894 498.667 892 496C890 493.333 889.167 490.5 889.5 487.5C889.833 484.5 891.667 480.667 895 476C898.333 471.333 901.167 466.5 903.5 461.5C905.833 456.5 907.833 450.5 909.5 443.5C911.167 436.5 912 427.833 912 417.5C912 407.167 910.667 396.333 908 385C905.333 373.667 902.5 365 899.5 359C896.5 353 893 347.333 889 342C885 336.667 880.833 332.333 876.5 329C872.167 325.667 867 322.667 861 320C855 317.333 851 315 849 313C847 311 846.167 308.833 846.5 306.5C846.833 304.167 849.667 301 855 297C860.333 293 863.5 289.833 864.5 287.5C865.5 285.167 858.667 280.333 844 273C829.333 265.667 818.5 258.667 811.5 252C804.5 245.333 799.5 240 796.5 236C793.5 232 792.333 229.667 793 229C793.667 228.333 802 230.333 818 235C834 239.667 844 241.667 848 241C852 240.333 854.333 239.5 855 238.5C855.667 237.5 855.833 236.333 855.5 235C855.167 233.667 826 212.167 768 170.5C710 128.833 677.5 106.167 670.5 102.5C663.5 98.8333 655.833 95.5 647.5 92.5C639.167 89.5 631.5 87.3333 624.5 86C617.5 84.6667 609.5 84 600.5 84C591.5 84 581.167 85.5 569.5 88.5C557.833 91.5 548.5 94.8333 541.5 98.5C534.5 102.167 527 107 519 113C511 119 504 118.833 498 112.5C492 106.167 485.333 101 478 97C470.667 93 462.667 89.8333 454 87.5C445.333 85.1667 434.833 83.8333 422.5 83.5C410.167 83.1667 398.5 84.3333 387.5 87ZM633.5 243C637.833 243 641.5 243.5 644.5 244.5C647.5 245.5 651.833 248.5 657.5 253.5C663.167 258.5 667.5 264.333 670.5 271C673.5 277.667 676.5 288 679.5 302C682.5 316 685.667 326 689 332C692.333 338 698.167 344.667 706.5 352C714.833 359.333 727.667 367.5 745 376.5C762.333 385.5 773.333 392.333 778 397C782.667 401.667 786 406.333 788 411C790 415.667 790.833 421.333 790.5 428C790.167 434.667 787.167 445.833 781.5 461.5C775.833 477.167 772.833 497.833 772.5 523.5C772.167 549.167 771 566.5 769 575.5C767 584.5 764.167 593 760.5 601C756.833 609 753.167 615.833 749.5 621.5C745.833 627.167 736 640.167 720 660.5C704 680.833 694.833 693.333 692.5 698C690.167 702.667 688.167 708 686.5 714C684.833 720 684.167 726.5 684.5 733.5C684.833 740.5 685.5 745.167 686.5 747.5C687.5 749.833 688.833 751.333 690.5 752C691.333 752.333 692.167 752.667 693 753C693.167 749.167 693.333 745.333 693.5 741.5C693.833 733.833 694.5 728.333 695.5 725C696.5 721.667 697.667 719.667 699 719C700.333 718.333 702.167 720 704.5 724C705.667 726 706.833 728 708 730C708.5 729.667 709 729.333 709.5 729C710.5 728.333 712 723.667 714 715C716 706.333 721.333 697 730 687C734.333 682 738.667 677 743 672C743.333 677.167 743.667 682.333 744 687.5C744.667 697.833 744.667 704.667 744 708C743.333 711.333 741.333 716 738 722C734.667 728 726.667 739 714 755C701.333 771 688.167 789.5 674.5 810.5C660.833 831.5 649.5 847.167 640.5 857.5C631.5 867.833 624.333 875 619 879C613.667 883 609.5 885.5 606.5 886.5C603.5 887.5 580.833 888.167 538.5 888.5C496.167 888.833 470.833 888.667 462.5 888C454.167 887.333 445.833 884.833 437.5 880.5C429.167 876.167 420 869.667 410 861C400 852.333 392 844.167 386 836.5C380 828.833 370.5 815.167 357.5 795.5C344.5 775.833 332.5 760.167 321.5 748.5C310.5 736.833 303.333 728.5 300 723.5C296.667 718.5 294 712.5 292 705.5C290 698.5 288.667 689.167 288 677.5C287.667 671.667 287.333 665.833 287 660C288.833 661.5 290.667 663 292.5 664.5C296.167 667.5 301.667 673.333 309 682C316.333 690.667 321.5 699.833 324.5 709.5C327.5 719.167 329.333 724.333 330 725C330.667 725.667 331.5 725.833 332.5 725.5C333.5 725.167 334.667 723.833 336 721.5C337.333 719.167 338.833 718.333 340.5 719C342.167 719.667 345.333 725.167 350 735.5C352.333 740.667 354.667 745.833 357 751C357.333 750.833 357.667 750.667 358 750.5C358.667 750.167 359 745.5 359 736.5C359 727.5 358.667 720.333 358 715C357.333 709.667 355.833 703.333 353.5 696C351.167 688.667 347.667 681.333 343 674C338.333 666.667 333.833 660.667 329.5 656C325.167 651.333 318.333 645.333 309 638C299.667 630.667 292.5 624.5 287.5 619.5C282.5 614.5 277.5 607.833 272.5 599.5C267.5 591.167 263.833 581.5 261.5 570.5C259.167 559.5 257.833 540 257.5 512C257.167 484 254 461.167 248 443.5C242 425.833 238.833 414.5 238.5 409.5C238.167 404.5 238.333 400.167 239 396.5C239.667 392.833 241.167 388.833 243.5 384.5C245.833 380.167 249.333 376 254 372C258.667 368 262.667 365.5 266 364.5C269.333 363.5 281 362 301 360C321 358 334.167 356 340.5 354C346.833 352 353 349.5 359 346.5C365 343.5 372 338.5 380 331.5C388 324.5 393.167 319.333 395.5 316C397.833 312.667 400 309 402 305C404 301 405.833 295.667 407.5 289C408.333 285.667 409.167 282.333 410 279C411.833 280.5 413.667 282 415.5 283.5C419.167 286.5 421.833 289.667 423.5 293C425.167 296.333 426 300.667 426 306C426 311.333 425 316 423 320C421 324 417.833 328.167 413.5 332.5C409.167 336.833 404.5 340.667 399.5 344C394.5 347.333 388 350.667 380 354C372 357.333 364.5 359.5 357.5 360.5C350.5 361.5 347 362.333 347 363C347 363.667 349.5 366 354.5 370C359.5 374 365.333 377.167 372 379.5C378.667 381.833 386.333 383 395 383C403.667 383 411.167 382 417.5 380C423.833 378 432 374 442 368C452 362 461.167 354.833 469.5 346.5C477.833 338.167 483.5 330.5 486.5 323.5C489.5 316.5 491.667 306.833 493 294.5C494.333 282.167 495.5 275 496.5 273C497.5 271 498.5 270 499.5 270C500.5 270 502.167 271.833 504.5 275.5C506.833 279.167 509 285.333 511 294C513 302.667 515 309.167 517 313.5C519 317.833 522.5 322.167 527.5 326.5C532.5 330.833 540.833 335.667 552.5 341C564.167 346.333 572.167 351.667 576.5 357C580.833 362.333 583.333 367.333 584 372C584.667 376.667 584.667 380.5 584 383.5C583.333 386.5 579 394 571 406C567 412 563 418 559 424C563 420.667 567 417.333 571 414C579 407.333 586.5 400.167 593.5 392.5C600.5 384.833 604.667 379.167 606 375.5C607.333 371.833 607.5 365.833 606.5 357.5C606 353.333 605.5 349.167 605 345C607.167 345.5 609.333 346 611.5 346.5C615.833 347.5 619.333 349.5 622 352.5C624.667 355.5 626 362.667 626 374C626 379.667 626 385.333 626 391C628.667 388.333 631.333 385.667 634 383C639.333 377.667 643.5 374.667 646.5 374C649.5 373.333 652.167 374.167 654.5 376.5C656.833 378.833 658.167 383.167 658.5 389.5C658.833 395.833 659.333 399 660 399C660.667 399 662.833 397.167 666.5 393.5C670.167 389.833 672.667 386.667 674 384C675.333 381.333 676.167 377.5 676.5 372.5C676.833 367.5 676.333 362.5 675 357.5C673.667 352.5 671 346.667 667 340C663 333.333 654 322.5 640 307.5C626 292.5 617.167 282.167 613.5 276.5C609.833 270.833 607.833 266.667 607.5 264C607.167 261.333 607.5 258.833 608.5 256.5C609.5 254.167 611 252 613 250C615 248 617.833 246.333 621.5 245C625.167 243.667 629.167 243 633.5 243ZM388.5 253C390.167 253 391.833 254.5 393.5 257.5C395.167 260.5 395.833 264.5 395.5 269.5C395.167 274.5 394.333 278.333 393 281C391.667 283.667 389.5 286.667 386.5 290C383.5 293.333 380.5 295.833 377.5 297.5C374.5 299.167 370.667 300.167 366 300.5C361.333 300.833 358.333 300.167 357 298.5C355.667 296.833 355.167 294.667 355.5 292C355.833 289.333 361 282.167 371 270.5C381 258.833 386.833 253 388.5 253ZM323.5 407.5C317.167 409.167 310.333 412.333 303 417C295.667 421.667 289.667 426.667 285 432C280.333 437.333 276.333 443.333 273 450C271.333 453.333 269.667 456.667 268 460C269.5 459.833 271 459.667 272.5 459.5C275.5 459.167 282.167 456.667 292.5 452C302.833 447.333 311.167 444.333 317.5 443C323.833 441.667 329.333 441 334 441C338.667 441 345.167 442.333 353.5 445C361.833 447.667 369.667 451.167 377 455.5C380.667 457.667 384.333 459.833 388 462C384.333 462 380.667 462 377 462C369.667 462 362.667 462.667 356 464C349.333 465.333 344 466.667 340 468C336 469.333 330.167 472.167 322.5 476.5C314.833 480.833 309.667 484.333 307 487C304.333 489.667 302.167 492.833 300.5 496.5C298.833 500.167 298 504.333 298 509C298 513.667 299.333 519.333 302 526C304.667 532.667 308.833 539.167 314.5 545.5C320.167 551.833 327 557.167 335 561.5C343 565.833 352 568.667 362 570C372 571.333 380.167 571 386.5 569C392.833 567 399.333 563.5 406 558.5C412.667 553.5 418.833 548 424.5 542C430.167 536 433.333 532 434 530C434.333 529 434.667 528 435 527C428.833 529.667 422.667 532.333 416.5 535C404.167 540.333 392.5 543.333 381.5 544C370.5 544.667 361.5 544 354.5 542C347.5 540 342.167 537.833 338.5 535.5C334.833 533.167 332 530.833 330 528.5C328 526.167 326.333 522.833 325 518.5C323.667 514.167 323.333 510.5 324 507.5C324.667 504.5 326.167 501.667 328.5 499C330.833 496.333 333.333 494.167 336 492.5C338.667 490.833 342 489.5 346 488.5C348 488 350 487.5 352 487C351.333 488.667 350.667 490.333 350 492C348.667 495.333 348 499.167 348 503.5C348 507.833 348.667 511.667 350 515C351.333 518.333 354 521.667 358 525C362 528.333 365.333 530.333 368 531C370.667 531.667 374 531.833 378 531.5C382 531.167 385.833 530 389.5 528C393.167 526 396.333 523 399 519C401.667 515 403.167 510.167 403.5 504.5C403.833 498.833 403.333 494.667 402 492C401.333 490.667 400.667 489.333 400 488C400.333 487.833 400.667 487.667 401 487.5C401.667 487.167 409.167 491.333 423.5 500C437.833 508.667 446.167 514.333 448.5 517C450.833 519.667 452.167 522.833 452.5 526.5C452.833 530.167 452.667 533 452 535C451.333 537 447.833 544.167 441.5 556.5C435.167 568.833 432 575.5 432 576.5C432 577 432 577.5 432 578C432.833 577.833 433.667 577.667 434.5 577.5C436.167 577.167 442.5 572 453.5 562C464.5 552 472.5 543 477.5 535C482.5 527 485.5 521 486.5 517C487.5 513 488 507.5 488 500.5C488 493.5 487 487.167 485 481.5C483 475.833 480.833 471.5 478.5 468.5C476.167 465.5 471.833 461.667 465.5 457C459.167 452.333 446.667 445 428 435C409.333 425 394.333 418 383 414C371.667 410 360.5 407.5 349.5 406.5C338.5 405.5 329.833 405.833 323.5 407.5ZM641.5 423C631.167 425.667 619.833 430.667 607.5 438C595.167 445.333 584.333 452.667 575 460C565.667 467.333 558.833 473.167 554.5 477.5C550.167 481.833 546.5 486.333 543.5 491C540.5 495.667 538.5 501.333 537.5 508C536.5 514.667 537 520.833 539 526.5C541 532.167 544.667 537.833 550 543.5C555.333 549.167 563.333 555.667 574 563C584.667 570.333 590.5 574 591.5 574C592 574 592.5 574 593 574C592.833 573.5 592.667 573 592.5 572.5C592.167 571.5 589.833 568.5 585.5 563.5C581.167 558.5 577.167 553 573.5 547C569.833 541 568 536 568 532C568 528 569.667 524.333 573 521C576.333 517.667 582 514.167 590 510.5C598 506.833 606.667 502.167 616 496.5C625.333 490.833 630.333 488.167 631 488.5C631.333 488.667 631.667 488.833 632 489C631.167 490.333 630.333 491.667 629.5 493C627.833 495.667 626.833 499.333 626.5 504C626.167 508.667 626.833 512.833 628.5 516.5C630.167 520.167 632.833 523.5 636.5 526.5C640.167 529.5 644.833 531.333 650.5 532C656.167 532.667 660.667 532.333 664 531C667.333 529.667 670.333 527.667 673 525C675.667 522.333 677.833 518.833 679.5 514.5C681.167 510.167 681.833 506 681.5 502C681.167 498 680.5 495 679.5 493C679 492 678.5 491 678 490C680.333 490.833 682.667 491.667 685 492.5C689.667 494.167 693.5 496.333 696.5 499C699.5 501.667 701.5 504.167 702.5 506.5C703.5 508.833 704 511.833 704 515.5C704 519.167 703.5 522.333 702.5 525C701.5 527.667 699.667 530.667 697 534C694.333 537.333 690.667 540.333 686 543C681.333 545.667 676.667 547.667 672 549C667.333 550.333 660.833 550.667 652.5 550C644.167 549.333 633.667 545.667 621 539C608.333 532.333 600.667 528.833 598 528.5C596.667 528.333 595.333 528.167 594 528C594.167 528.833 594.333 529.667 594.5 530.5C594.833 532.167 600.167 537.667 610.5 547C620.833 556.333 630.333 562.667 639 566C647.667 569.333 657.167 571 667.5 571C677.833 571 686.667 569.5 694 566.5C701.333 563.5 707.833 559 713.5 553C719.167 547 722.833 542.333 724.5 539C726.167 535.667 727.667 531.167 729 525.5C730.333 519.833 730.833 514.333 730.5 509C730.167 503.667 729 499 727 495C725 491 721.833 487 717.5 483C713.167 479 707.333 475.333 700 472C692.667 468.667 687.167 466.667 683.5 466C679.833 465.333 671.333 465.167 658 465.5C651.333 465.667 644.667 465.833 638 466C640.333 464 642.667 462 645 460C649.667 456 655 452.667 661 450C667 447.333 673.667 445.833 681 445.5C688.333 445.167 696.167 446.167 704.5 448.5C712.833 450.833 722.5 454.333 733.5 459C744.5 463.667 751.167 466 753.5 466C754.667 466 755.833 466 757 466C757 465.333 757 464.667 757 464C757 462.667 755.333 459.333 752 454C748.667 448.667 744.667 443.833 740 439.5C735.333 435.167 730.833 431.833 726.5 429.5C722.167 427.167 715.167 424.833 705.5 422.5C695.833 420.167 685.333 419 674 419C662.667 419 651.833 420.333 641.5 423ZM444 641C440.667 643 438.667 644.833 438 646.5C437.333 648.167 437.167 650.5 437.5 653.5C437.833 656.5 439.167 659 441.5 661C443.833 663 450.833 666 462.5 670C474.167 674 481 677 483 679C485 681 487.5 685.333 490.5 692C493.5 698.667 497.5 703.167 502.5 705.5C507.5 707.833 512.667 709 518 709C523.333 709 528 708.167 532 706.5C536 704.833 539.167 702.167 541.5 698.5C543.833 694.833 545.5 691.333 546.5 688C547.5 684.667 549 682 551 680C553 678 559.667 674.667 571 670C582.333 665.333 588.833 661.5 590.5 658.5C592.167 655.5 592.833 652.833 592.5 650.5C592.167 648.167 591.333 646.167 590 644.5C588.667 642.833 585.833 641.5 581.5 640.5C577.167 639.5 571.833 640.167 565.5 642.5C559.167 644.833 551.5 648.5 542.5 653.5C533.5 658.5 524.5 661.167 515.5 661.5C506.5 661.833 500.5 661.5 497.5 660.5C494.5 659.5 489 656.333 481 651C473 645.667 465.667 642.167 459 640.5C452.333 638.833 447.333 639 444 641ZM464.5 731.5C456.833 733.833 448.667 737 440 741C431.333 745 426.167 748 424.5 750C422.833 752 422.167 753.833 422.5 755.5C422.833 757.167 423.667 758.333 425 759C426.333 759.667 459.667 759.833 525 759.5C590.333 759.167 623.833 758.167 625.5 756.5C627.167 754.833 627.667 753 627 751C626.333 749 624.5 747.167 621.5 745.5C618.5 743.833 609.167 740.833 593.5 736.5C577.833 732.167 565.667 729.833 557 729.5C548.333 729.167 539.167 730.167 529.5 732.5C519.833 734.833 511.167 734.667 503.5 732C495.833 729.333 489.333 728 484 728C478.667 728 472.167 729.167 464.5 731.5ZM482.5 784.5C474.833 785.5 467.5 787.5 460.5 790.5C453.5 793.5 448.167 796.333 444.5 799C440.833 801.667 439 804 439 806C439 808 439.667 809.5 441 810.5C442.333 811.5 465.667 812 511 812C556.333 812 580.5 811 583.5 809C586.5 807 587.833 805 587.5 803C587.167 801 586 799 584 797C582 795 577.833 792.5 571.5 789.5C565.167 786.5 550.667 784.667 528 784C505.333 783.333 490.167 783.5 482.5 784.5Z" fill="#000000" fill-rule="nonzero" opacity="1" stroke="none" vectornator:layerName="Curve 1"/>
</g>
</svg>
