<?xml version="1.0" encoding="UTF-8" standalone="no"?>
<!DOCTYPE svg PUBLIC "-//W3C//DTD SVG 1.1//EN" "http://www.w3.org/Graphics/SVG/1.1/DTD/svg11.dtd">
<!-- Created with Vectornator (http://vectornator.io/) -->
<svg height="100%" stroke-miterlimit="10" style="fill-rule:nonzero;clip-rule:evenodd;stroke-linecap:round;stroke-linejoin:round;" version="1.1" viewBox="249.375 141 529.625 727.571" width="100%" xml:space="preserve" xmlns="http://www.w3.org/2000/svg" xmlns:vectornator="http://vectornator.io" xmlns:xlink="http://www.w3.org/1999/xlink">
<defs/>
<g id="Layer-1" vectornator:layerName="Layer 1">
<path d="M435.5 143.5C421.833 145.167 411 147 403 149C395 151 387.333 153.333 380 156C372.667 158.667 364.167 162.5 354.5 167.5C344.833 172.5 337.167 177 331.5 181C325.833 185 319.833 190.333 313.5 197C307.167 203.667 300.333 213.667 293 227C285.667 240.333 280.333 252.667 277 264C273.667 275.333 271.333 284.833 270 292.5C268.667 300.167 267.667 307.833 267 315.5C266.333 323.167 266.167 332 266.5 342C266.833 352 268 364.667 270 380C272 395.333 274.167 408.5 276.5 419.5C278.833 430.5 284.833 450.5 294.5 479.5C304.167 508.5 310.167 523.5 312.5 524.5C314.833 525.5 317.167 525.333 319.5 524C321.833 522.667 322.333 509.833 321 485.5C319.667 461.167 320 444.833 322 436.5C324 428.167 325.333 420.333 326 413C326.667 405.667 325.667 396.167 323 384.5C320.333 372.833 323.667 362.5 333 353.5C342.333 344.5 352 337.333 362 332C372 326.667 381.667 322.667 391 320C395.667 318.667 400.333 317.333 405 316C403 318 401 320 399 322C395 326 390.5 331.5 385.5 338.5C380.5 345.5 377.167 351.167 375.5 355.5C373.833 359.833 373 363.333 373 366C373 367.333 373 368.667 373 370C373.5 370 374 370 374.5 370C375.5 370 388.333 363.5 413 350.5C437.667 337.5 457.167 328.167 471.5 322.5C485.833 316.833 496.667 313.167 504 311.5C511.333 309.833 516.667 309 520 309C523.333 309 528.833 310 536.5 312C544.167 314 549.333 315 552 315C554.667 315 558.833 314.333 564.5 313C570.167 311.667 578.667 310.5 590 309.5C601.333 308.5 613.333 310 626 314C638.667 318 649 322.167 657 326.5C665 330.833 673 335.833 681 341.5C689 347.167 695.5 352.833 700.5 358.5C705.5 364.167 707.5 369.667 706.5 375C705.5 380.333 703.833 386 701.5 392C699.167 398 697.833 403 697.5 407C697.167 411 698.833 418.833 702.5 430.5C706.167 442.167 708 453.333 708 464C708 474.667 707.333 486.667 706 500C704.667 513.333 704.667 520.833 706 522.5C707.333 524.167 709.5 524.833 712.5 524.5C715.5 524.167 721 512.833 729 490.5C737 468.167 744.333 449.167 751 433.5C757.667 417.833 763.5 400.333 768.5 381C773.5 361.667 776 349.667 776 345C776 340.333 775.5 336.333 774.5 333C773.5 329.667 770.667 323.167 766 313.5C761.333 303.833 756.167 294.333 750.5 285C744.833 275.667 738 265.833 730 255.5C722 245.167 712.5 234.5 701.5 223.5C690.5 212.5 680.833 203.333 672.5 196C664.167 188.667 654.5 181.667 643.5 175C632.5 168.333 620 162.833 606 158.5C592 154.167 578 150.833 564 148.5C550 146.167 535.333 144.333 520 143C504.667 141.667 490.167 141 476.5 141C462.833 141 449.167 141.833 435.5 143.5ZM363.5 446C361.167 448 357.833 454 353.5 464C351.333 469 349.167 474 347 479C349.833 476.667 352.667 474.333 355.5 472C361.167 467.333 366.167 465 370.5 465C374.833 465 386.833 467.5 406.5 472.5C426.167 477.5 443.5 483 458.5 489C473.5 495 482.167 497.833 484.5 497.5C486.833 497.167 487.833 494.5 487.5 489.5C487.167 484.5 485.667 480.833 483 478.5C480.333 476.167 466.667 471.167 442 463.5C417.333 455.833 398.667 450.5 386 447.5C373.333 444.5 365.833 444 363.5 446ZM601 459.5C564.333 470.5 545 477.333 543 480C541 482.667 539.833 486 539.5 490C539.167 494 539.167 496.333 539.5 497C539.833 497.667 541.167 498 543.5 498C545.833 498 553.833 495.167 567.5 489.5C581.167 483.833 599.333 478.167 622 472.5C644.667 466.833 657.333 464.167 660 464.5C662.667 464.833 666.667 467.167 672 471.5C674.667 473.667 677.333 475.833 680 478C677.667 472.667 675.333 467.333 673 462C668.333 451.333 665.333 445.5 664 444.5C662.667 443.5 661 443 659 443C657 443 637.667 448.5 601 459.5ZM254.5 492C252.833 493.333 251.5 495.167 250.5 497.5C249.5 499.833 249.167 502.667 249.5 506C249.833 509.333 251.167 514.5 253.5 521.5C255.833 528.5 260.667 540 268 556C275.333 572 281 586.333 285 599C289 611.667 292.5 620.667 295.5 626C298.5 631.333 300.833 634.833 302.5 636.5C304.167 638.167 306 639.333 308 640C310 640.667 312.667 640.5 316 639.5C319.333 638.5 321.5 637.167 322.5 635.5C323 634.667 323.5 633.833 324 633C324.5 633.5 325 634 325.5 634.5C326.5 635.5 328.5 639.833 331.5 647.5C334.5 655.167 337 665.5 339 678.5C341 691.5 343.5 703.5 346.5 714.5C349.5 725.5 353.5 734.5 358.5 741.5C363.5 748.5 379.5 768 406.5 800C433.5 832 449.5 850.5 454.5 855.5C459.5 860.5 464 864 468 866C472 868 488.167 868.833 516.5 868.5C544.833 868.167 561.5 866.5 566.5 863.5C571.5 860.5 576.333 856.5 581 851.5C585.667 846.5 600.333 829.167 625 799.5C649.667 769.833 664.333 751.667 669 745C673.667 738.333 677.667 729.667 681 719C684.333 708.333 687 695.833 689 681.5C691 667.167 693.667 655.667 697 647C700.333 638.333 702.333 633.833 703 633.5C703.333 633.333 703.667 633.167 704 633C704.333 633.667 704.667 634.333 705 635C705.667 636.333 707.667 637.667 711 639C714.333 640.333 717.167 640.667 719.5 640C721.833 639.333 724.333 637.5 727 634.5C729.667 631.5 732.333 627.167 735 621.5C737.667 615.833 741.167 606 745.5 592C749.833 578 754.667 565.5 760 554.5C765.333 543.5 769.833 532.833 773.5 522.5C777.167 512.167 779 506 779 504C779 502 778.167 499.5 776.5 496.5C774.833 493.5 773.333 491.667 772 491C770.667 490.333 768.5 490.167 765.5 490.5C762.5 490.833 756.333 497 747 509C737.667 521 723.833 546 705.5 584C687.167 622 676.667 650.167 674 668.5C671.333 686.833 667.667 702.333 663 715C658.333 727.667 642.333 750.5 615 783.5C587.667 816.5 572 835 568 839C564 843 560.5 845.667 557.5 847C554.5 848.333 541.5 849.167 518.5 849.5C495.5 849.833 482.333 849.667 479 849C475.667 848.333 472.333 846.833 469 844.5C465.667 842.167 448.833 823 418.5 787C388.167 751 370.667 727.5 366 716.5C361.333 705.5 357.667 690.667 355 672C352.333 653.333 347.333 635.833 340 619.5C332.667 603.167 322.833 583 310.5 559C298.167 535 288.167 518 280.5 508C272.833 498 267 492.5 263 491.5C259 490.5 256.167 490.667 254.5 492ZM388.5 494C383.5 495.333 380 497 378 499C376 501 373.833 504.167 371.5 508.5C369.167 512.833 368.5 518.667 369.5 526C370.5 533.333 375.167 541.167 383.5 549.5C391.833 557.833 399.833 563.667 407.5 567C415.167 570.333 422.167 572.167 428.5 572.5C434.833 572.833 441.333 571.5 448 568.5C454.667 565.5 462.667 560.333 472 553C481.333 545.667 486 540.833 486 538.5C486 536.167 485 533.167 483 529.5C481 525.833 477.833 521.667 473.5 517C469.167 512.333 465.333 508.833 462 506.5C458.667 504.167 452.167 501.167 442.5 497.5C432.833 493.833 422.667 492 412 492C401.333 492 393.5 492.667 388.5 494ZM591.5 494.5C585.833 496.167 580 498.667 574 502C568 505.333 562.833 509 558.5 513C554.167 517 550.333 521.667 547 527C543.667 532.333 542.167 536.333 542.5 539C542.833 541.667 544.5 544.333 547.5 547C550.5 549.667 555.833 553.667 563.5 559C571.167 564.333 577.5 568 582.5 570C587.5 572 593 572.833 599 572.5C605 572.167 612.5 570 621.5 566C630.5 562 637.5 557.667 642.5 553C647.5 548.333 651.667 543.5 655 538.5C658.333 533.5 659.833 527.667 659.5 521C659.167 514.333 657 508.5 653 503.5C649 498.5 644.333 495.333 639 494C633.667 492.667 625.833 492 615.5 492C605.167 492 597.167 492.833 591.5 494.5ZM405 517C406.333 517 407.333 520.5 408 527.5C408.667 534.5 411.167 540.167 415.5 544.5C419.833 548.833 423.5 551 426.5 551C429.5 551 432.167 550.167 434.5 548.5C436.833 546.833 438.5 544.333 439.5 541C440.5 537.667 440.833 533.167 440.5 527.5C440.333 524.667 440.167 521.833 440 519C442.833 520.333 445.667 521.667 448.5 523C454.167 525.667 458.333 528.5 461 531.5C462.333 533 463.667 534.5 465 536C461.667 538.667 458.333 541.333 455 544C448.333 549.333 443.667 552.5 441 553.5C438.333 554.5 435 555 431 555C427 555 421.667 553.5 415 550.5C408.333 547.5 401.833 542.833 395.5 536.5C389.167 530.167 386.333 526.333 387 525C387.667 523.667 390.5 522 395.5 520C400.5 518 403.667 517 405 517ZM621 517C622.833 517.333 624.667 517.667 626.5 518C630.167 518.667 633.667 520.167 637 522.5C638.667 523.667 640.333 524.833 642 526C638.833 529.333 635.667 532.667 632.5 536C626.167 542.667 619.667 547.5 613 550.5C606.333 553.5 600.167 554.667 594.5 554C588.833 553.333 584.167 552 580.5 550C576.833 548 573 545.167 569 541.5C567 539.667 565 537.833 563 536C564.333 534.5 565.667 533 567 531.5C569.667 528.5 573.833 525.667 579.5 523C582.333 521.667 585.167 520.333 588 519C587.833 522 587.667 525 587.5 528C587.167 534 587.5 538.5 588.5 541.5C589.5 544.5 591.167 546.833 593.5 548.5C595.833 550.167 598.333 551 601 551C603.667 551 606.833 549.667 610.5 547C614.167 544.333 616.667 541.667 618 539C619.333 536.333 620.167 532 620.5 526C620.667 523 620.833 520 621 517ZM475 648.5C473 650.833 472.5 653.333 473.5 656C474.5 658.667 477 660 481 660C485 660 489.5 662.333 494.5 667C499.5 671.667 503.833 674.833 507.5 676.5C511.167 678.167 514.333 678.833 517 678.5C519.667 678.167 522.167 677.333 524.5 676C526.833 674.667 529.333 672.167 532 668.5C534.667 664.833 536.833 662.5 538.5 661.5C540.167 660.5 543 660 547 660C551 660 553.5 659 554.5 657C555.5 655 555.833 653.167 555.5 651.5C555.167 649.833 554.167 648.333 552.5 647C550.833 645.667 548.333 645 545 645C541.667 645 536.5 646.5 529.5 649.5C522.5 652.5 516.833 653.833 512.5 653.5C508.167 653.167 503 651.667 497 649C491 646.333 486.333 645 483 645C479.667 645 477 646.167 475 648.5ZM475.5 720C461.833 722.667 454.5 724.833 453.5 726.5C452.5 728.167 452 730.167 452 732.5C452 734.833 452.833 736.833 454.5 738.5C456.167 740.167 462.833 741.667 474.5 743C486.167 744.333 499.167 745 513.5 745C527.833 745 541 744.333 553 743C565 741.667 572 740.167 574 738.5C576 736.833 576.667 734.167 576 730.5C575.333 726.833 574 724.5 572 723.5C570 722.5 563 721 551 719C539 717 526.833 716 514.5 716C502.167 716 489.167 717.333 475.5 720ZM483.5 757.5C480.5 759.833 479 762.333 479 765C479 767.667 479.667 769.667 481 771C482.333 772.333 493.5 773 514.5 773C535.5 773 546.667 772.333 548 771C549.333 769.667 550 767.667 550 765C550 762.333 548.5 759.833 545.5 757.5C542.5 755.167 532.167 754 514.5 754C496.833 754 486.5 755.167 483.5 757.5Z" fill="#000000" fill-rule="nonzero" opacity="1" stroke="none" vectornator:layerName="Curve 1"/>
</g>
</svg>
