<?xml version="1.0" encoding="UTF-8" standalone="no"?>
<!DOCTYPE svg PUBLIC "-//W3C//DTD SVG 1.1//EN" "http://www.w3.org/Graphics/SVG/1.1/DTD/svg11.dtd">
<!-- Created with Vectornator (http://vectornator.io/) -->
<svg height="100%" stroke-miterlimit="10" style="fill-rule:nonzero;clip-rule:evenodd;stroke-linecap:round;stroke-linejoin:round;" version="1.1" viewBox="164.027 134.174 721.424 823.944" width="100%" xml:space="preserve" xmlns="http://www.w3.org/2000/svg" xmlns:vectornator="http://vectornator.io" xmlns:xlink="http://www.w3.org/1999/xlink">
<defs/>
<g id="Layer-1" vectornator:layerName="Layer 1">
<path d="M335.891 143.241C319.646 149.285 303.779 156.463 288.29 164.774C272.801 173.085 259.012 181.774 246.923 190.841C234.834 199.908 224.256 209.164 215.189 218.608C206.122 228.053 197.811 238.819 190.256 250.909C182.7 262.998 177.033 274.52 173.255 285.476C169.477 296.431 166.833 307.765 165.322 319.476C163.811 331.187 163.622 343.276 164.755 355.743C165.889 368.21 167.777 378.599 170.422 386.91C173.066 395.221 176.089 402.588 179.489 409.01C182.889 415.433 189.122 423.744 198.189 433.944C207.256 444.144 216.511 452.078 225.956 457.744C235.401 463.411 248.434 469.267 265.056 475.311C273.368 478.334 281.679 481.356 289.99 484.378C287.535 484.945 285.079 485.511 282.623 486.078C277.712 487.211 272.801 489.1 267.89 491.745C262.979 494.389 252.401 501.756 236.156 513.845C228.034 519.89 219.911 525.934 211.789 531.979C215.756 535.945 219.723 539.912 223.689 543.879C231.623 551.812 238.045 556.723 242.956 558.612C247.867 560.501 252.59 561.446 257.123 561.446C261.656 561.446 265.812 564.279 269.59 569.946C273.368 575.613 277.146 579.957 280.923 582.979C284.701 586.002 288.479 588.079 292.257 589.213C296.035 590.346 301.135 590.535 307.557 589.779C310.768 589.402 313.979 589.024 317.19 588.646C316.813 590.724 316.435 592.802 316.057 594.879C315.302 599.035 315.113 604.702 315.49 611.88C315.868 619.058 320.024 631.524 327.957 649.28C335.891 667.036 340.613 679.125 342.124 685.547C343.635 691.97 344.769 700.659 345.524 711.614C346.28 722.57 348.169 732.014 351.191 739.948C354.213 747.881 358.18 754.87 363.091 760.915C368.002 766.959 374.424 772.248 382.358 776.782C390.291 781.315 394.825 787.926 395.958 796.615C397.091 805.304 400.114 814.371 405.025 823.816C409.936 833.26 415.792 841.194 422.592 847.616C429.392 854.038 439.592 861.027 453.192 868.583C466.792 876.139 476.426 882.372 482.092 887.283C487.759 892.194 496.448 905.228 508.159 926.384C514.015 936.961 519.871 947.539 525.726 958.117C528.371 952.262 531.015 946.406 533.66 940.55C538.949 928.839 544.427 918.45 550.093 909.383C555.76 900.317 561.049 893.517 565.96 888.983C570.871 884.45 580.694 878.027 595.427 869.716C610.161 861.405 620.739 854.227 627.161 848.183C633.583 842.138 638.306 836.849 641.328 832.316C644.35 827.782 646.995 822.682 649.261 817.016C651.528 811.349 653.039 804.36 653.795 796.049C654.55 787.737 658.328 781.882 665.128 778.482C671.928 775.082 678.35 769.982 684.395 763.182C690.44 756.381 694.973 749.392 697.995 742.215C701.017 735.037 703.473 723.137 705.362 706.514C707.251 689.892 712.351 671.758 720.662 652.114C728.973 632.469 733.318 618.869 733.696 611.313C734.073 603.757 733.885 598.091 733.129 594.313C732.751 592.424 732.373 590.535 731.996 588.646C735.396 589.024 738.796 589.402 742.196 589.779C748.996 590.535 754.096 590.346 757.496 589.213C760.896 588.079 764.674 585.813 768.829 582.413C772.985 579.013 776.763 574.668 780.163 569.379C783.563 564.09 788.285 561.257 794.33 560.879C800.374 560.501 805.474 559.368 809.63 557.479C813.786 555.59 819.263 551.246 826.063 544.445C832.864 537.645 836.264 533.301 836.264 531.412C836.264 529.523 829.275 523.667 815.297 513.845C801.319 504.023 791.874 497.6 786.963 494.578C782.052 491.556 776.196 489.1 769.396 487.211C765.996 486.267 762.596 485.323 759.196 484.378C769.585 480.411 779.974 476.445 790.363 472.478C811.141 464.545 824.741 458.311 831.164 453.778C837.586 449.244 843.819 443.766 849.864 437.344C855.908 430.922 861.575 423.177 866.864 414.111C872.153 405.044 876.309 395.599 879.331 385.777C882.353 375.955 884.242 364.054 884.998 350.076C885.753 336.098 885.564 324.954 884.431 316.643C883.297 308.331 881.409 299.831 878.764 291.142C876.12 282.453 872.72 273.953 868.564 265.642C864.408 257.331 859.308 249.02 853.264 240.708C847.219 232.397 839.664 223.708 830.597 214.641C821.53 205.575 808.497 195.186 791.496 183.474C774.496 171.763 760.14 163.074 748.429 157.407C736.718 151.741 723.684 146.452 709.329 141.54C702.151 139.085 694.973 136.629 687.795 134.174C691.762 137.385 695.728 140.596 699.695 143.807C707.629 150.229 718.395 160.43 731.996 174.408C745.596 188.386 755.985 200.097 763.163 209.541C770.341 218.986 777.33 230.13 784.13 242.975C790.93 255.82 795.652 266.775 798.296 275.842C800.941 284.909 802.263 294.731 802.263 305.309C802.263 315.887 800.941 324.576 798.296 331.376C795.652 338.176 791.119 344.599 784.696 350.643C778.274 356.688 769.774 361.599 759.196 365.377C753.907 367.266 748.618 369.154 743.329 371.043C745.785 368.021 748.24 364.999 750.696 361.977C755.607 355.932 756.551 351.021 753.529 347.243C750.507 343.465 741.44 335.154 726.329 322.309C711.218 309.465 694.973 298.32 677.595 288.876C660.217 279.431 645.106 272.442 632.261 267.909C619.416 263.375 608.272 259.975 598.827 257.709C589.383 255.442 579.371 253.553 568.794 252.042C558.216 250.531 546.316 249.586 533.093 249.208C519.871 248.831 501.926 250.342 479.259 253.742C456.592 257.142 438.836 260.92 425.992 265.075C413.147 269.231 400.303 274.331 387.458 280.376C374.613 286.42 361.958 293.598 349.491 301.909C337.024 310.22 324.368 320.42 311.524 332.51C298.679 344.599 292.446 351.588 292.823 353.476C293.201 355.365 295.468 358.577 299.624 363.11C301.701 365.377 303.779 367.643 305.857 369.91C305.479 370.099 305.101 370.288 304.724 370.477C303.968 370.854 298.49 368.966 288.29 364.81C278.09 360.654 269.779 355.176 263.356 348.376C256.934 341.576 252.59 334.776 250.323 327.976C248.056 321.176 247.112 312.676 247.49 302.476C247.867 292.276 249.756 281.887 253.156 271.309C256.556 260.731 262.979 247.508 272.423 231.642C281.868 215.775 291.123 202.552 300.19 191.974C309.257 181.397 318.135 171.952 326.824 163.641C335.513 155.33 343.069 148.907 349.491 144.374C355.913 139.84 359.313 137.007 359.691 135.874C359.88 135.307 360.069 134.74 360.258 134.174C352.135 137.196 344.013 140.218 335.891 143.241ZM234.456 239.575C232 248.075 229.545 256.575 227.089 265.075C222.178 282.076 219.723 295.865 219.723 306.443C219.723 317.02 220.667 325.898 222.556 333.076C224.445 340.254 227.278 347.054 231.056 353.476C234.834 359.899 239.934 366.132 246.356 372.177C252.779 378.221 260.712 383.51 270.157 388.044C279.601 392.577 291.879 396.921 306.99 401.077C322.102 405.233 331.546 408.822 335.324 411.844C339.102 414.866 342.88 420.155 346.657 427.711C350.435 435.266 353.646 443.578 356.291 452.644C358.935 461.711 360.447 469.833 360.824 477.011C361.202 484.189 360.824 490.234 359.691 495.145C359.124 497.6 358.558 500.056 357.991 502.512C354.402 498.734 350.813 494.956 347.224 491.178C340.046 483.623 332.868 477.389 325.691 472.478C318.513 467.567 310.957 463.222 303.024 459.444C295.09 455.667 284.323 451.511 270.723 446.978C257.123 442.444 247.678 438.666 242.39 435.644C237.101 432.622 231.245 428.088 224.823 422.044C218.4 415.999 212.922 409.388 208.389 402.21C203.856 395.033 200.645 388.988 198.756 384.077C196.867 379.166 195.167 372.743 193.656 364.81C192.144 356.876 191.389 348.943 191.389 341.01C191.389 333.076 191.956 325.709 193.089 318.909C194.222 312.109 197.245 302.476 202.156 290.009C207.067 277.542 213.678 266.02 221.989 255.442C226.145 250.153 230.3 244.864 234.456 239.575ZM813.597 239.575C816.052 241.842 818.508 244.108 820.963 246.375C825.875 250.909 830.597 256.575 835.13 263.375C839.664 270.175 844.197 279.62 848.73 291.709C853.264 303.798 856.097 315.887 857.23 327.976C858.364 340.065 858.553 349.321 857.797 355.743C857.042 362.165 855.342 369.532 852.697 377.843C850.053 386.155 846.086 394.466 840.797 402.777C835.508 411.088 829.463 418.266 822.663 424.311C815.863 430.355 810.008 434.7 805.097 437.344C800.185 439.989 790.363 443.766 775.629 448.678C760.896 453.589 749.751 457.933 742.196 461.711C734.64 465.489 727.273 470.022 720.095 475.311C712.918 480.6 706.306 486.456 700.262 492.878C697.24 496.089 694.217 499.3 691.195 502.512C690.628 500.623 690.062 498.734 689.495 496.845C688.362 493.067 687.984 486.834 688.362 478.145C688.74 469.456 690.062 461.144 692.328 453.211C694.595 445.278 697.617 437.344 701.395 429.411C705.173 421.477 709.706 415.622 714.995 411.844C720.284 408.066 731.051 403.91 747.296 399.377C763.54 394.844 775.063 390.877 781.863 387.477C788.663 384.077 795.463 379.355 802.263 373.31C809.063 367.266 814.541 360.654 818.697 353.476C822.852 346.299 825.875 338.932 827.763 331.376C829.652 323.821 830.597 315.698 830.597 307.009C830.597 298.32 829.841 290.009 828.33 282.076C826.819 274.142 823.986 265.075 819.83 254.875C817.752 249.775 815.674 244.675 813.597 239.575ZM535.926 278.109C554.816 278.864 573.705 281.509 592.594 286.042C611.483 290.576 629.239 296.62 645.861 304.176C662.484 311.731 675.139 318.343 683.828 324.009C692.517 329.676 700.64 335.721 708.195 342.143C715.751 348.565 713.106 360.843 700.262 378.977C687.417 397.11 678.917 410.711 674.762 419.777C670.606 428.844 667.206 438.855 664.561 449.811C661.917 460.767 660.784 472.667 661.161 485.511C661.539 498.356 663.806 509.501 667.961 518.945C672.117 528.39 677.217 538.212 683.262 548.412C686.284 553.512 689.306 558.612 692.328 563.712C689.684 562.957 687.039 562.201 684.395 561.446C679.106 559.935 672.495 557.101 664.561 552.946C656.628 548.79 649.261 546.334 642.461 545.579C635.661 544.823 628.483 545.768 620.928 548.412C613.372 551.057 601.85 557.668 586.36 568.246C570.871 578.824 559.349 585.057 551.793 586.946C544.238 588.835 535.36 589.779 525.16 589.779C514.96 589.779 505.137 588.268 495.693 585.246C486.248 582.224 474.537 575.801 460.559 565.979C446.581 556.157 437.136 550.301 432.225 548.412C427.314 546.523 422.214 545.39 416.925 545.012C411.636 544.634 407.103 544.823 403.325 545.579C399.547 546.334 393.314 548.979 384.625 553.512C375.936 558.046 369.136 560.879 364.224 562.012C361.769 562.579 359.313 563.146 356.858 563.712C360.258 558.046 363.658 552.379 367.058 546.712C373.858 535.379 378.958 525.745 382.358 517.812C385.758 509.878 387.836 503.834 388.591 499.678C389.347 495.523 389.536 488.534 389.158 478.711C388.78 468.889 387.458 459.444 385.191 450.378C382.925 441.311 379.902 432.433 376.125 423.744C372.347 415.055 367.247 405.61 360.824 395.41C354.402 385.21 347.602 375.577 340.424 366.51C336.835 361.977 333.246 357.443 329.657 352.91C336.268 347.621 342.88 342.332 349.491 337.043C362.713 326.465 376.313 317.587 390.291 310.409C404.269 303.231 419.569 296.998 436.192 291.709C452.814 286.42 468.87 282.642 484.359 280.376C499.848 278.109 517.037 277.353 535.926 278.109ZM640.194 364.243C634.906 368.021 627.917 374.632 619.228 384.077C610.539 393.521 603.927 401.833 599.394 409.01C594.861 416.188 587.116 431.111 576.16 453.778C565.205 476.445 557.838 489.667 554.06 493.445C550.282 497.223 545.749 500.245 540.46 502.512C535.171 504.778 529.882 505.912 524.593 505.912C519.304 505.912 514.771 505.156 510.993 503.645C507.215 502.134 503.626 500.056 500.226 497.412C496.826 494.767 493.237 490.8 489.459 485.511C485.681 480.222 479.826 468.889 471.892 451.511C463.959 434.133 457.159 420.911 451.492 411.844C445.825 402.777 438.836 393.71 430.525 384.644C422.214 375.577 415.792 369.343 411.258 365.943C406.725 362.543 403.892 360.843 402.758 360.843C402.192 360.843 401.625 360.843 401.058 360.843C404.269 364.999 407.48 369.154 410.692 373.31C417.114 381.621 422.214 389.555 425.992 397.11C429.77 404.666 434.681 418.644 440.725 439.044C446.77 459.444 451.492 473.422 454.892 480.978C458.292 488.534 461.692 494.767 465.092 499.678C468.492 504.589 472.27 509.123 476.426 513.278C480.581 517.434 485.493 521.212 491.159 524.612C496.826 528.012 502.493 530.468 508.159 531.979C513.826 533.49 519.493 534.245 525.16 534.245C530.826 534.245 536.871 533.301 543.293 531.412C549.716 529.523 554.816 527.445 558.593 525.179C562.371 522.912 566.716 519.512 571.627 514.978C576.538 510.445 580.694 505.723 584.094 500.812C587.494 495.9 590.705 490.234 593.727 483.811C596.749 477.389 601.661 462.844 608.461 440.178C615.261 417.511 620.928 401.833 625.461 393.144C629.994 384.455 634.906 376.521 640.194 369.343C642.839 365.754 645.483 362.165 648.128 358.577C645.483 360.465 642.839 362.354 640.194 364.243ZM297.924 511.578C301.701 511.578 304.913 512.145 307.557 513.278C310.201 514.412 312.657 515.923 314.924 517.812C317.19 519.701 319.268 522.345 321.157 525.745C323.046 529.145 323.991 533.679 323.991 539.345C323.991 545.012 323.235 549.168 321.724 551.812C320.213 554.457 317.946 556.912 314.924 559.179C311.901 561.446 308.69 562.579 305.29 562.579C301.89 562.579 298.679 561.068 295.657 558.046C294.146 556.535 292.635 555.023 291.123 553.512C293.201 553.134 295.279 552.757 297.357 552.379C301.512 551.623 304.346 550.112 305.857 547.846C307.368 545.579 307.935 542.745 307.557 539.345C307.179 535.945 305.857 533.49 303.59 531.979C301.324 530.468 292.257 530.656 276.39 532.545C268.457 533.49 260.523 534.434 252.59 535.379C257.123 532.168 261.656 528.956 266.19 525.745C275.257 519.323 281.868 515.356 286.023 513.845C290.179 512.334 294.146 511.578 297.924 511.578ZM754.663 512.145C759.952 512.523 768.452 516.49 780.163 524.045C786.018 527.823 791.874 531.601 797.73 535.379C789.419 534.434 781.107 533.49 772.796 532.545C756.174 530.656 746.729 531.034 744.462 533.679C742.196 536.323 741.251 539.345 741.629 542.745C742.007 546.146 743.14 548.601 745.029 550.112C746.918 551.623 749.374 552.379 752.396 552.379C753.907 552.379 755.418 552.379 756.929 552.379C756.929 552.946 756.929 553.512 756.929 554.079C756.929 555.212 755.607 556.912 752.963 559.179C750.318 561.446 747.485 562.579 744.462 562.579C741.44 562.579 737.851 560.879 733.696 557.479C729.54 554.079 726.896 549.734 725.762 544.445C724.629 539.157 725.384 533.679 728.029 528.012C730.673 522.345 734.451 518.19 739.362 515.545C744.274 512.901 749.374 511.767 754.663 512.145ZM419.758 573.913C424.67 575.424 431.47 579.39 440.159 585.813C444.503 589.024 448.848 592.235 453.192 595.446C451.303 596.202 449.414 596.957 447.525 597.713C443.748 599.224 438.459 599.602 431.659 598.846C424.858 598.091 418.058 594.124 411.258 586.946C404.458 579.768 401.058 575.801 401.058 575.046C401.058 574.29 402.947 573.535 406.725 572.779C410.503 572.024 414.847 572.401 419.758 573.913ZM637.928 572.779C642.461 572.779 645.295 573.346 646.428 574.479C647.561 575.613 645.106 579.579 639.061 586.379C633.017 593.179 627.161 597.335 621.494 598.846C615.827 600.357 610.35 600.168 605.061 598.28C602.416 597.335 599.772 596.391 597.127 595.446C600.527 592.802 603.927 590.157 607.327 587.513C614.127 582.224 619.794 578.446 624.328 576.179C628.861 573.913 633.394 572.779 637.928 572.779ZM357.991 582.979C363.28 582.979 367.247 583.546 369.891 584.679C372.536 585.813 378.58 591.668 388.025 602.246C397.469 612.824 404.269 619.246 408.425 621.513C412.581 623.78 417.492 625.48 423.158 626.613C425.992 627.18 428.825 627.747 431.659 628.313C430.714 631.524 429.77 634.736 428.825 637.947C426.936 644.369 425.992 650.98 425.992 657.78C425.992 661.18 425.992 664.58 425.992 667.98C428.258 663.447 430.525 658.914 432.792 654.38C437.325 645.313 442.803 637.947 449.225 632.28C455.648 626.613 462.07 622.458 468.492 619.813C474.915 617.169 481.526 615.28 488.326 614.146C495.126 613.013 501.926 609.991 508.726 605.08C515.526 600.168 521.004 597.713 525.16 597.713C529.315 597.713 534.982 600.357 542.16 605.646C549.338 610.935 557.649 614.524 567.094 616.413C576.538 618.302 584.094 620.946 589.761 624.346C595.427 627.747 600.905 632.469 606.194 638.513C611.483 644.558 615.639 650.98 618.661 657.78C620.172 661.18 621.683 664.58 623.194 667.98C623.194 664.769 623.194 661.558 623.194 658.347C623.194 651.925 622.25 645.313 620.361 638.513C619.416 635.113 618.472 631.713 617.528 628.313C619.983 627.935 622.439 627.558 624.894 627.18C629.805 626.424 635.094 624.535 640.761 621.513C646.428 618.491 653.417 612.069 661.728 602.246C670.039 592.424 675.895 586.757 679.295 585.246C682.695 583.735 687.039 583.168 692.328 583.546C697.617 583.924 701.206 586.946 703.095 592.613C704.984 598.28 705.929 603.191 705.929 607.346C705.929 611.502 704.795 616.602 702.529 622.646C700.262 628.691 696.484 634.736 691.195 640.78C685.906 646.825 679.106 652.68 670.795 658.347C662.484 664.014 655.872 669.114 650.961 673.647C646.05 678.18 641.517 683.847 637.361 690.647C633.205 697.447 630.561 702.925 629.428 707.081C628.294 711.236 627.539 727.481 627.161 755.815C626.783 784.148 625.65 800.771 623.761 805.682C621.872 810.593 617.528 816.638 610.727 823.816C603.927 830.994 594.105 838.171 581.26 845.349C568.416 852.527 558.971 858.383 552.927 862.916C546.882 867.45 541.593 872.55 537.06 878.216C532.526 883.883 529.504 888.416 527.993 891.816C527.238 893.517 526.482 895.217 525.726 896.917C523.46 893.517 521.193 890.116 518.926 886.716C514.393 879.916 510.048 874.438 505.893 870.283C501.737 866.127 491.348 859.138 474.726 849.316C458.103 839.494 446.392 830.994 439.592 823.816C432.792 816.638 428.258 809.46 425.992 802.282C423.725 795.104 422.592 778.86 422.592 753.548C422.592 728.237 421.836 712.936 420.325 707.648C418.814 702.359 416.358 696.881 412.958 691.214C409.558 685.547 405.78 680.636 401.625 676.48C397.469 672.325 390.291 666.658 380.091 659.48C369.891 652.302 362.147 645.502 356.858 639.08C351.569 632.658 347.98 626.802 346.091 621.513C344.202 616.224 343.257 611.313 343.257 606.78C343.257 602.246 344.391 597.146 346.657 591.479C348.924 585.813 352.702 582.979 357.991 582.979ZM473.026 649.847C468.87 652.114 464.148 656.269 458.859 662.314C453.57 668.358 449.792 674.592 447.525 681.014C445.259 687.436 443.936 693.292 443.559 698.581C443.37 701.225 443.181 703.87 442.992 706.514C444.881 704.436 446.77 702.359 448.659 700.281C452.437 696.125 456.403 693.103 460.559 691.214C464.715 689.325 469.248 688.381 474.159 688.381C479.07 688.381 483.037 688.947 486.059 690.081C489.081 691.214 493.426 694.803 499.093 700.847C504.759 706.892 509.671 710.859 513.826 712.748C517.982 714.637 521.76 715.581 525.16 715.581C528.56 715.581 531.771 715.014 534.793 713.881C537.815 712.748 542.538 708.97 548.96 702.547C555.382 696.125 560.293 692.158 563.694 690.647C567.094 689.136 571.816 688.57 577.86 688.947C583.905 689.325 588.816 690.647 592.594 692.914C596.372 695.181 599.583 698.014 602.227 701.414C603.55 703.114 604.872 704.814 606.194 706.514C606.194 704.247 606.194 701.981 606.194 699.714C606.194 695.181 605.061 689.514 602.794 682.714C600.527 675.914 598.261 670.814 595.994 667.414C593.727 664.014 589.761 660.047 584.094 655.514C578.427 650.98 574.083 648.525 571.06 648.147C569.549 647.958 568.038 647.769 566.527 647.58C568.416 649.469 570.305 651.358 572.194 653.247C575.971 657.025 578.049 660.047 578.427 662.314C578.805 664.58 578.616 666.28 577.86 667.414C577.105 668.547 572.949 670.058 565.394 671.947C557.838 673.836 550.282 676.48 542.727 679.881C535.171 683.281 529.315 684.981 525.16 684.981C521.004 684.981 516.282 683.658 510.993 681.014C505.704 678.369 498.148 675.725 488.326 673.08C478.504 670.436 473.215 667.603 472.459 664.58C471.703 661.558 473.215 657.969 476.992 653.814C478.881 651.736 480.77 649.658 482.659 647.58C482.092 647.391 481.526 647.202 480.959 647.013C479.826 646.636 477.181 647.58 473.026 649.847ZM371.591 689.514C374.047 691.403 376.502 693.292 378.958 695.181C383.869 698.959 387.269 702.359 389.158 705.381C391.047 708.403 392.558 716.903 393.691 730.881C394.258 737.87 394.825 744.859 395.391 751.848C394.636 751.659 393.88 751.47 393.125 751.281C391.614 750.904 389.536 749.392 386.891 746.748C384.247 744.104 381.791 740.892 379.525 737.115C377.258 733.337 375.369 724.459 373.858 710.481C373.102 703.492 372.347 696.503 371.591 689.514ZM677.595 689.514C677.973 689.514 678.35 689.514 678.728 689.514C678.728 690.458 678.728 691.403 678.728 692.347C678.728 694.236 677.784 701.414 675.895 713.881C674.006 726.348 671.55 734.848 668.528 739.381C665.506 743.915 662.484 747.315 659.461 749.581C657.95 750.715 656.439 751.848 654.928 752.981C654.928 747.504 654.928 742.026 654.928 736.548C654.928 725.592 655.306 718.603 656.061 715.581C656.817 712.559 657.95 709.725 659.461 707.081C660.972 704.436 664.184 700.847 669.095 696.314C674.006 691.781 676.839 689.514 677.595 689.514ZM512.693 738.248C504.759 739.003 498.337 740.137 493.426 741.648C488.515 743.159 483.604 745.237 478.692 747.881C473.781 750.526 469.437 753.548 465.659 756.948C461.881 760.348 457.914 765.826 453.759 773.382C449.603 780.937 447.337 788.115 446.959 794.915C446.581 801.715 446.959 806.438 448.092 809.082C448.659 810.404 449.225 811.727 449.792 813.049C450.925 809.271 452.059 805.493 453.192 801.715C455.459 794.16 459.237 787.737 464.526 782.448C469.815 777.16 477.181 773.004 486.626 769.982C496.07 766.959 506.459 765.259 517.793 764.882C529.126 764.504 539.138 764.882 547.827 766.015C556.516 767.148 564.071 769.226 570.494 772.248C576.916 775.271 582.205 779.048 586.36 783.582C590.516 788.115 593.538 792.649 595.427 797.182C597.316 801.715 598.449 805.682 598.827 809.082C599.016 810.782 599.205 812.482 599.394 814.182C600.15 812.293 600.905 810.404 601.661 808.515C603.172 804.738 603.927 801.338 603.927 798.315C603.927 795.293 603.55 791.893 602.794 788.115C602.038 784.337 600.15 779.615 597.127 773.948C594.105 768.282 590.705 763.559 586.927 759.782C583.149 756.004 578.427 752.415 572.76 749.015C567.094 745.615 561.805 743.159 556.893 741.648C551.982 740.137 545.371 739.003 537.06 738.248C528.749 737.492 520.626 737.492 512.693 738.248ZM497.959 792.082C493.804 792.46 490.404 793.404 487.759 794.915C485.115 796.426 483.793 798.882 483.793 802.282C483.793 805.682 485.304 808.138 488.326 809.649C491.348 811.16 503.437 811.915 524.593 811.915C545.749 811.915 558.027 810.971 561.427 809.082C564.827 807.193 566.527 804.927 566.527 802.282C566.527 799.638 565.016 797.371 561.993 795.482C558.971 793.593 548.582 792.46 530.826 792.082C513.071 791.704 502.115 791.704 497.959 792.082Z" fill="#000000" fill-rule="nonzero" opacity="1" stroke="none" vectornator:layerName="Curve 1"/>
</g>
</svg>
