<?xml version="1.0" encoding="UTF-8" standalone="no"?>
<!DOCTYPE svg PUBLIC "-//W3C//DTD SVG 1.1//EN" "http://www.w3.org/Graphics/SVG/1.1/DTD/svg11.dtd">
<!-- Created with Vectornator (http://vectornator.io/) -->
<svg height="100%" stroke-miterlimit="10" style="fill-rule:nonzero;clip-rule:evenodd;stroke-linecap:round;stroke-linejoin:round;" version="1.1" viewBox="114.417 108 798.583 802.133" width="100%" xml:space="preserve" xmlns="http://www.w3.org/2000/svg" xmlns:vectornator="http://vectornator.io" xmlns:xlink="http://www.w3.org/1999/xlink">
<defs/>
<g id="Layer-1" vectornator:layerName="Layer 1">
<path d="M478.5 110.5C465.5 112.167 453.167 114.5 441.5 117.5C429.833 120.5 418.833 124 408.5 128C398.167 132 388.167 136.5 378.5 141.5C368.833 146.5 359.167 152.167 349.5 158.5C339.833 164.833 329.833 172.167 319.5 180.5C309.167 188.833 295.833 201.5 279.5 218.5C263.167 235.5 250 251 240 265C230 279 222.167 291 216.5 301C210.833 311 207.5 317.833 206.5 321.5C205.5 325.167 207.833 345 213.5 381C219.167 417 222 436.5 222 439.5C222 442.5 221.333 444.833 220 446.5C218.667 448.167 216.5 449.167 213.5 449.5C210.5 449.833 208.5 449.667 207.5 449C206.5 448.333 196.667 440.5 178 425.5C159.333 410.5 146.833 402.667 140.5 402C134.167 401.333 129.667 401.667 127 403C124.333 404.333 121.667 406.833 119 410.5C116.333 414.167 114.833 421.833 114.5 433.5C114.167 445.167 114.833 453.333 116.5 458C118.167 462.667 125 476.833 137 500.5C149 524.167 154.833 544 154.5 560C154.167 576 155 587 157 593C159 599 163.5 605 170.5 611C177.5 617 183.667 621.667 189 625C194.333 628.333 199.167 630.333 203.5 631C207.833 631.667 212.667 631.333 218 630C223.333 628.667 236 637.667 256 657C276 676.333 288.833 695.667 294.5 715C300.167 734.333 303.667 748.167 305 756.5C306.333 764.833 323.833 790 357.5 832C391.167 874 409.833 895.833 413.5 897.5C417.167 899.167 431.667 901.833 457 905.5C482.333 909.167 498.333 907.667 505 901C508.333 897.667 511.667 894.333 515 891C517.333 894 519.667 897 522 900C526.667 906 530.167 909.333 532.5 910C534.833 910.667 549.333 908.833 576 904.5C602.667 900.167 633.5 876.167 668.5 832.5C703.5 788.833 721.167 764.167 721.5 758.5C721.833 752.833 725 739.5 731 718.5C737 697.5 750.333 677.167 771 657.5C791.667 637.833 803.333 628.5 806 629.5C808.667 630.5 813.333 630.833 820 630.5C826.667 630.167 836 625.5 848 616.5C860 607.5 866.667 601.833 868 599.5C869.333 597.167 870.5 593.667 871.5 589C872.5 584.333 872.833 574.167 872.5 558.5C872.167 542.833 878.167 523 890.5 499C902.833 475 909.667 460.833 911 456.5C912.333 452.167 913 445.167 913 435.5C913 425.833 912.5 419.5 911.5 416.5C910.5 413.5 908.667 410.667 906 408C903.333 405.333 900.833 403.5 898.5 402.5C896.167 401.5 892.833 401 888.5 401C884.167 401 879.167 402.667 873.5 406C867.833 409.333 857.333 417.333 842 430C826.667 442.667 817.667 449.167 815 449.5C812.333 449.833 810.333 449.667 809 449C807.667 448.333 806.5 446.5 805.5 443.5C804.5 440.5 806.833 421.833 812.5 387.5C818.167 353.167 821 334 821 330C821 326 820.5 322.5 819.5 319.5C818.5 316.5 815 309.833 809 299.5C803 289.167 796.167 278.5 788.5 267.5C780.833 256.5 773.333 246.667 766 238C758.667 229.333 746.667 217.167 730 201.5C713.333 185.833 699.833 174.333 689.5 167C679.167 159.667 668.333 152.833 657 146.5C645.667 140.167 634.333 134.667 623 130C611.667 125.333 600.5 121.5 589.5 118.5C578.5 115.5 566 113 552 111C538 109 525.5 108 514.5 108C503.5 108 491.5 108.833 478.5 110.5ZM519 134.5C533 134.833 547 136.333 561 139C575 141.667 588.167 145.167 600.5 149.5C612.833 153.833 625.333 159.333 638 166C650.667 172.667 664 181.167 678 191.5C692 201.833 705.333 213.167 718 225.5C730.667 237.833 742.667 251.167 754 265.5C765.333 279.833 775 294 783 308C791 322 790.5 359 781.5 419C772.5 479 768.167 510.333 768.5 513C768.833 515.667 772 524.333 778 539C784 553.667 787 564 787 570C787 576 780.833 585.167 768.5 597.5C756.167 609.833 738.833 626.167 716.5 646.5C694.167 666.833 682.667 677.667 682 679C681.333 680.333 681 683.333 681 688C681 692.667 684 702.667 690 718C696 733.333 698.833 743 698.5 747C698.167 751 695.833 756 691.5 762C687.167 768 671.333 788.167 644 822.5C616.667 856.833 594 875.5 576 878.5C558 881.5 547.833 883 545.5 883C543.167 883 539.5 879.833 534.5 873.5C529.5 867.167 525.833 863.5 523.5 862.5C521.167 861.5 516.833 861.333 510.5 862C504.167 862.667 498.333 866.333 493 873C487.667 879.667 475 881.5 455 878.5C435 875.5 408.833 853.833 376.5 813.5C344.167 773.167 327.833 750.5 327.5 745.5C327.167 740.5 330 730.667 336 716C342 701.333 344.667 691.167 344 685.5C343.333 679.833 329.333 664.5 302 639.5C274.667 614.5 257.167 597.833 249.5 589.5C241.833 581.167 238 574.5 238 569.5C238 564.5 241.5 553.667 248.5 537C255.5 520.333 254.333 482.5 245 423.5C235.667 364.5 231 334 231 332C231 330 232.333 326.333 235 321C237.667 315.667 243 306.833 251 294.5C259 282.167 267.667 270.333 277 259C286.333 247.667 296.667 236.5 308 225.5C319.333 214.5 329.667 205.333 339 198C348.333 190.667 358.667 183.5 370 176.5C381.333 169.5 393.833 163 407.5 157C421.167 151 434.333 146.333 447 143C459.667 139.667 471.333 137.333 482 136C492.667 134.667 505 134.167 519 134.5ZM362 378C378.667 397.333 399.833 419.5 425.5 444.5C438.333 457 451.167 469.5 464 482C454.333 470.667 444.667 459.333 435 448C415.667 425.333 403.5 410.5 398.5 403.5C393.5 396.5 387.333 389.667 380 383C372.667 376.333 363.667 369 353 361C347.667 357 342.333 353 337 349C345.333 358.667 353.667 368.333 362 378ZM662.5 370.5C644.833 384.833 623.667 407 599 437C586.667 452 574.333 467 562 482C574.167 470.167 586.333 458.333 598.5 446.5C622.833 422.833 644.333 400.833 663 380.5C672.333 370.333 681.667 360.167 691 350C690.667 349.833 690.333 349.667 690 349.5C689.333 349.167 680.167 356.167 662.5 370.5ZM733 362C736.333 368.667 739.333 377 742 387C744.667 397 746.167 409.167 746.5 423.5C746.833 437.833 746.667 449.833 746 459.5C745.667 464.333 745.333 469.167 745 474C748.167 464.667 751.333 455.333 754.5 446C760.833 427.333 764 416.333 764 413C764 409.667 761.333 403 756 393C750.667 383 744.667 373.667 738 365C734.667 360.667 731.333 356.333 728 352C729.667 355.333 731.333 358.667 733 362ZM286.5 368C279.5 378 273.833 387.333 269.5 396C265.167 404.667 263.333 411.5 264 416.5C264.667 421.5 267.833 432.333 273.5 449C276.333 457.333 279.167 465.667 282 474C281.667 469 281.333 464 281 459C280.333 449 280.167 437 280.5 423C280.833 409 281.5 399.5 282.5 394.5C283.5 389.5 286.167 381.333 290.5 370C292.667 364.333 294.833 358.667 297 353C293.5 358 290 363 286.5 368ZM139 428C144 431.667 149 435.333 154 439C164 446.333 180.667 459.667 204 479C227.333 498.333 239.167 509.5 239.5 512.5C239.833 515.5 238.5 520.167 235.5 526.5C234 529.667 232.5 532.833 231 536C227.333 532.5 223.667 529 220 525.5C212.667 518.5 206.833 512.167 202.5 506.5C198.167 500.833 195.333 498 194 498C193.333 498 192.667 498 192 498C193.167 501 194.333 504 195.5 507C197.833 513 199 522.167 199 534.5C199 546.833 199.833 555.167 201.5 559.5C203.167 563.833 204.667 566.667 206 568C207.333 569.333 209.167 570 211.5 570C213.833 570 217.167 568.667 221.5 566C223.667 564.667 225.833 563.333 228 562C227.833 566.167 227.667 570.333 227.5 574.5C227.167 582.833 225.667 589 223 593C220.333 597 217.833 600 215.5 602C213.167 604 210.5 604.833 207.5 604.5C204.5 604.167 200.5 602.167 195.5 598.5C190.5 594.833 186.667 591.5 184 588.5C181.333 585.5 180 575.333 180 558C180 540.667 179.667 530.667 179 528C178.333 525.333 171.833 512 159.5 488C147.167 464 140.667 448 140 440C139.667 436 139.333 432 139 428ZM302 433.5C298 437.167 295.667 439.667 295 441C294.333 442.333 294 445.167 294 449.5C294 453.833 294.833 463 296.5 477C298.167 491 299.833 501 301.5 507C303.167 513 305.5 519.167 308.5 525.5C311.5 531.833 314.167 536.667 316.5 540C318.833 543.333 324 548.5 332 555.5C340 562.5 347.667 567.667 355 571C362.333 574.333 371.5 576.667 382.5 578C388 578.667 393.5 579.333 399 580C398.667 580.5 398.333 581 398 581.5C397.333 582.5 394.167 583.833 388.5 585.5C382.833 587.167 377.5 588.167 372.5 588.5C367.5 588.833 359.833 587 349.5 583C344.333 581 339.167 579 334 577C338.333 580.667 342.667 584.333 347 588C355.667 595.333 361.667 599.833 365 601.5C368.333 603.167 377.167 601.833 391.5 597.5C405.833 593.167 418.833 587.833 430.5 581.5C442.167 575.167 455.5 572.5 470.5 573.5C485.5 574.5 496.333 570.5 503 561.5C506.333 557 509.667 552.5 513 548C516.667 552.5 520.333 557 524 561.5C531.333 570.5 542.5 574.5 557.5 573.5C572.5 572.5 586.5 575.5 599.5 582.5C612.5 589.5 624 594.667 634 598C644 601.333 651 603 655 603C659 603 666.333 598.667 677 590C682.333 585.667 687.667 581.333 693 577C687.833 579 682.667 581 677.5 583C667.167 587 658.833 588.667 652.5 588C646.167 587.333 641.333 586.5 638 585.5C634.667 584.5 632.167 583.333 630.5 582C629.667 581.333 628.833 580.667 628 580C631.5 579.833 635 579.667 638.5 579.5C645.5 579.167 652.5 578 659.5 576C666.5 574 673.833 570.667 681.5 566C689.167 561.333 695.333 556.667 700 552C704.667 547.333 709.333 541 714 533C718.667 525 722.167 517.167 724.5 509.5C726.833 501.833 728.667 493.833 730 485.5C731.333 477.167 732.167 467.833 732.5 457.5C732.833 447.167 731.5 440.167 728.5 436.5C725.5 432.833 722.667 430.5 720 429.5C717.333 428.5 699.333 441.667 666 469C632.667 496.333 608.667 516.5 594 529.5C579.333 542.5 567.833 549.5 559.5 550.5C551.167 551.5 546.333 552 545 552C543.667 552 540.333 548.833 535 542.5C529.667 536.167 529.333 524.5 534 507.5C536.333 499 538.667 490.5 541 482C536.667 487.167 532.333 492.333 528 497.5C519.333 507.833 514.333 512.833 513 512.5C511.667 512.167 507.167 507.167 499.5 497.5C491.833 487.833 487.5 482.833 486.5 482.5C486 482.333 485.5 482.167 485 482C487.5 490.5 490 499 492.5 507.5C497.5 524.5 497.333 536.167 492 542.5C486.667 548.833 481.167 551.833 475.5 551.5C469.833 551.167 464.833 550.5 460.5 549.5C456.167 548.5 433 530.167 391 494.5C349 458.833 325.5 439 320.5 435C315.5 431 312.167 428.833 310.5 428.5C308.833 428.167 306 429.833 302 433.5ZM887 428C887.333 428 887.667 428 888 428C887.833 431.667 887.667 435.333 887.5 439C887.167 446.333 880.5 462.833 867.5 488.5C854.5 514.167 847.667 528.333 847 531C846.333 533.667 846.167 543 846.5 559C846.833 575 845.833 584.5 843.5 587.5C841.167 590.5 837.333 594 832 598C826.667 602 822.5 604.167 819.5 604.5C816.5 604.833 814 604.333 812 603C810 601.667 807.5 599 804.5 595C801.5 591 799.667 588 799 586C798.333 584 798 579.667 798 573C798 566.333 798.5 562.833 799.5 562.5C800.5 562.167 802.833 563.333 806.5 566C810.167 568.667 813.167 570 815.5 570C817.833 570 819.5 569.5 820.5 568.5C821.5 567.5 822.833 565.333 824.5 562C826.167 558.667 827.167 555.667 827.5 553C827.833 550.333 828 543.5 828 532.5C828 521.5 829.167 513.167 831.5 507.5C832.667 504.667 833.833 501.833 835 499C834.333 498.833 833.667 498.667 833 498.5C831.667 498.167 828.667 501 824 507C819.333 513 813.5 519.333 806.5 526C799.5 532.667 795.667 536 795 536C794.333 536 792.667 532.833 790 526.5C787.333 520.167 786.167 515.667 786.5 513C786.833 510.333 803.5 495.5 836.5 468.5C869.5 441.5 886.333 428 887 428ZM387 515C391 515.667 394.333 517.167 397 519.5C399.667 521.833 401.5 524 402.5 526C403.5 528 403.667 531.667 403 537C402.333 542.333 401.167 546 399.5 548C397.833 550 395.667 551.667 393 553C390.333 554.333 387.333 555 384 555C380.667 555 377.833 554.5 375.5 553.5C373.167 552.5 370.833 550.667 368.5 548C366.167 545.333 364.667 543 364 541C363.333 539 363 536.833 363 534.5C363 532.167 363.667 529.5 365 526.5C366.333 523.5 369.333 520.667 374 518C378.667 515.333 383 514.333 387 515ZM646 514.5C648.667 514.833 651.167 515.667 653.5 517C655.833 518.333 658.167 521.333 660.5 526C662.833 530.667 663.333 535.333 662 540C660.667 544.667 658 548.333 654 551C650 553.667 645.5 554.667 640.5 554C635.5 553.333 632.167 552.333 630.5 551C628.833 549.667 627.167 547.5 625.5 544.5C623.833 541.5 623 538.167 623 534.5C623 530.833 623.5 528 624.5 526C625.5 524 627 522 629 520C631 518 633.667 516.5 637 515.5C640.333 514.5 643.333 514.167 646 514.5ZM457.5 606.5C454.5 608.833 453.333 611 454 613C454.667 615 457.167 618.833 461.5 624.5C465.833 630.167 472 636.333 480 643C488 649.667 493.167 655.667 495.5 661C496.667 663.667 497.833 666.333 499 669C498.833 663.333 498.667 657.667 498.5 652C498.167 640.667 497 632.167 495 626.5C493 620.833 490.167 616.167 486.5 612.5C482.833 608.833 479.667 606.333 477 605C474.333 603.667 471.167 603 467.5 603C463.833 603 460.5 604.167 457.5 606.5ZM549.5 605.5C545.833 607.167 542 610.5 538 615.5C534 620.5 531.5 625 530.5 629C529.5 633 528.833 640.667 528.5 652C528.333 657.667 528.167 663.333 528 669C529.167 666.333 530.333 663.667 531.5 661C533.833 655.667 537.333 651.333 542 648C546.667 644.667 551.333 640.667 556 636C560.667 631.333 564.833 626.167 568.5 620.5C572.167 614.833 572.5 610.5 569.5 607.5C566.5 604.5 563.333 603 560 603C556.667 603 553.167 603.833 549.5 605.5ZM466.5 697.5C438.167 700.5 422.833 702.5 420.5 703.5C418.167 704.5 413.167 709.667 405.5 719C397.833 728.333 392.333 735.667 389 741C385.667 746.333 384.167 750.667 384.5 754C384.833 757.333 387.333 764.5 392 775.5C396.667 786.5 415 790.167 447 786.5C479 782.833 501.167 781 513.5 781C525.833 781 546.667 782.833 576 786.5C605.333 790.167 621.333 792 624 792C626.667 792 628.333 791.667 629 791C629.667 790.333 632.167 783.5 636.5 770.5C640.833 757.5 642.167 749.333 640.5 746C638.833 742.667 633.5 735.333 624.5 724C615.5 712.667 609.5 706.167 606.5 704.5C603.5 702.833 586.5 700.5 555.5 697.5C524.5 694.5 494.833 694.5 466.5 697.5ZM364 723C356.667 735.667 353 743 353 745C353 747 355.333 752 360 760C362.333 764 364.667 768 367 772C366.333 769.167 365.667 766.333 365 763.5C363.667 757.833 363 752.833 363 748.5C363 744.167 365 735.667 369 723C371 716.667 373 710.333 375 704C371.333 710.333 367.667 716.667 364 723ZM657 722.5C661 734.833 663 743.5 663 748.5C663 753.5 662.333 758.667 661 764C660.333 766.667 659.667 769.333 659 772C660.833 769.167 662.667 766.333 664.5 763.5C668.167 757.833 670.667 753 672 749C673.333 745 670.167 736.5 662.5 723.5C658.667 717 654.833 710.5 651 704C653 710.167 655 716.333 657 722.5ZM514.5 707C520.833 707 531.333 707.833 546 709.5C560.667 711.167 572.833 713.667 582.5 717C592.167 720.333 597.833 722.833 599.5 724.5C600.333 725.333 601.167 726.167 602 727C598.5 726.5 595 726 591.5 725.5C584.5 724.5 576.833 722.833 568.5 720.5C560.167 718.167 547 716.5 529 715.5C511 714.5 495.833 714.667 483.5 716C471.167 717.333 458.333 719.5 445 722.5C438.333 724 431.667 725.5 425 727C425.833 726.167 426.667 725.333 427.5 724.5C429.167 722.833 434.833 720.333 444.5 717C454.167 713.667 466.667 711.167 482 709.5C497.333 707.833 508.167 707 514.5 707ZM514.5 725.5C516.167 725.833 518.167 727.167 520.5 729.5C522.833 731.833 525.167 735 527.5 739C529.833 743 532 744.667 534 744C536 743.333 539 741.333 543 738C545 736.333 547 734.667 549 733C550.667 735.333 552.333 737.667 554 740C557.333 744.667 560.333 746.667 563 746C564.333 745.667 565.667 745.333 567 745C567 746 567 747 567 748C567 750 566.5 751.5 565.5 752.5C564.5 753.5 560.167 754 552.5 754C544.833 754 539.5 753.667 536.5 753C533.5 752.333 531.667 751.167 531 749.5C530.333 747.833 529.5 747 528.5 747C527.5 747 526.5 747.667 525.5 749C524.5 750.333 520.667 751 514 751C507.333 751 502.833 750.167 500.5 748.5C499.333 747.667 498.167 746.833 497 746C496.833 746.833 496.667 747.667 496.5 748.5C496.167 750.167 495.5 751.333 494.5 752C493.5 752.667 487.833 753.167 477.5 753.5C467.167 753.833 461.5 752.5 460.5 749.5C460 748 459.5 746.5 459 745C460.5 745.333 462 745.667 463.5 746C466.5 746.667 469.667 744.667 473 740C474.667 737.667 476.333 735.333 478 733C480.833 735.167 483.667 737.333 486.5 739.5C489.333 741.667 492.167 743.833 495 746C496.833 743.333 498.667 740.667 500.5 738C504.167 732.667 507 729.167 509 727.5C511 725.833 512.833 725.167 514.5 725.5ZM436.5 736C438.833 736 441.5 737.667 444.5 741C447.5 744.333 448.667 747 448 749C447.333 751 445.833 753 443.5 755C441.167 757 438.333 757.667 435 757C431.667 756.333 429 754.833 427 752.5C425 750.167 424 748.333 424 747C424 745.667 425.5 743.5 428.5 740.5C431.5 737.5 434.167 736 436.5 736ZM591 736.5C593.667 736.833 596.333 738.5 599 741.5C601.667 744.5 602.833 746.667 602.5 748C602.167 749.333 600.5 751.333 597.5 754C594.5 756.667 591.667 757.833 589 757.5C586.333 757.167 583.833 755.667 581.5 753C579.167 750.333 578.333 747.833 579 745.5C579.667 743.167 581.167 741 583.5 739C585.833 737 588.333 736.167 591 736.5ZM540 764C560 766 573.167 767.833 579.5 769.5C585.833 771.167 589.667 772.5 591 773.5C591.667 774 592.333 774.5 593 775C581.833 773.833 570.667 772.667 559.5 771.5C537.167 769.167 521.667 768 513 768C504.333 768 489.167 769.167 467.5 771.5C456.667 772.667 445.833 773.833 435 775C435.167 774.667 435.333 774.333 435.5 774C435.833 773.333 439.5 772 446.5 770C453.5 768 465.833 766 483.5 764C501.167 762 520 762 540 764ZM496 799.5C487.333 802.5 477.5 806.667 466.5 812C461 814.667 455.5 817.333 450 820C457 818.667 464 817.333 471 816C485 813.333 499.167 812 513.5 812C527.833 812 541.833 813.333 555.5 816C562.333 817.333 569.167 818.667 576 820C569.333 816.833 562.667 813.667 556 810.5C542.667 804.167 532.833 800 526.5 798C520.167 796 515.667 795 513 795C510.333 795 504.667 796.5 496 799.5Z" fill="#000000" fill-rule="nonzero" opacity="1" stroke="none" vectornator:layerName="Curve 1"/>
</g>
</svg>
