<?xml version="1.0" encoding="UTF-8" standalone="no"?>
<!DOCTYPE svg PUBLIC "-//W3C//DTD SVG 1.1//EN" "http://www.w3.org/Graphics/SVG/1.1/DTD/svg11.dtd">
<!-- Created with Vectornator (http://vectornator.io/) -->
<svg height="100%" stroke-miterlimit="10" style="fill-rule:nonzero;clip-rule:evenodd;stroke-linecap:round;stroke-linejoin:round;" version="1.1" viewBox="150 128 733 729" width="100%" xml:space="preserve" xmlns="http://www.w3.org/2000/svg" xmlns:vectornator="http://vectornator.io" xmlns:xlink="http://www.w3.org/1999/xlink">
<defs/>
<g id="Layer-1" vectornator:layerName="Layer 1">
<path d="M246.5 143.5C239.5 153.833 233.167 166 227.5 180C221.833 194 217.5 208.333 214.5 223C211.5 237.667 209.833 253.333 209.5 270C209.167 286.667 210.333 303.167 213 319.5C215.667 335.833 218.833 349.5 222.5 360.5C226.167 371.5 231.667 384 239 398C246.333 412 255.5 426 266.5 440C277.5 454 283.167 462.833 283.5 466.5C283.667 468.333 283.833 470.167 284 472C274.667 467.167 265.333 462.333 256 457.5C237.333 447.833 220.5 439.667 205.5 433C190.5 426.333 178 418.833 168 410.5C158 402.167 152.5 398 151.5 398C151 398 150.5 398 150 398C152.333 403.167 154.667 408.333 157 413.5C161.667 423.833 166 436.833 170 452.5C174 468.167 177.5 480 180.5 488C183.5 496 188.5 505.5 195.5 516.5C202.5 527.5 209.667 536.833 217 544.5C224.333 552.167 232 559 240 565C248 571 256.5 576.167 265.5 580.5C274.5 584.833 279.5 590.333 280.5 597C281.5 603.667 283.333 610 286 616C288.667 622 292.833 628.5 298.5 635.5C304.167 642.5 310.667 648.833 318 654.5C321.667 657.333 325.333 660.167 329 663C326 663.667 323 664.333 320 665C314 666.333 309.5 668.333 306.5 671C303.5 673.667 301.333 676.167 300 678.5C298.667 680.833 297.667 685 297 691C296.333 697 297.167 702.667 299.5 708C301.833 713.333 304.833 717.167 308.5 719.5C310.333 720.667 312.167 721.833 314 723C313.333 721.333 312.667 719.667 312 718C310.667 714.667 309.833 710.833 309.5 706.5C309.167 702.167 309.5 698 310.5 694C311.5 690 313.167 686.167 315.5 682.5C317.833 678.833 321.167 675.167 325.5 671.5C329.833 667.833 333.5 666.833 336.5 668.5C339.5 670.167 343.333 676.167 348 686.5C352.667 696.833 357 705.333 361 712C365 718.667 369.667 725.5 375 732.5C380.333 739.5 386.5 746.5 393.5 753.5C400.5 760.5 406 767.5 410 774.5C414 781.5 416.833 789 418.5 797C420.167 805 420.833 814.333 420.5 825C420.333 830.333 420.167 835.667 420 841C421 839.333 422 837.667 423 836C425 832.667 427 827.5 429 820.5C431 813.5 432.833 808.333 434.5 805C436.167 801.667 438 799.167 440 797.5C442 795.833 444.167 795.167 446.5 795.5C448.833 795.833 455.167 799.5 465.5 806.5C475.833 813.5 484.333 818.333 491 821C497.667 823.667 503.5 825 508.5 825C513.5 825 517.833 824.5 521.5 823.5C525.167 822.5 530.167 820.5 536.5 817.5C542.833 814.5 550.167 810.167 558.5 804.5C566.833 798.833 572.167 795.833 574.5 795.5C576.833 795.167 579.667 796.667 583 800C586.333 803.333 591 812.5 597 827.5C603 842.5 606.833 851.167 608.5 853.5C609.333 854.667 610.167 855.833 611 857C610.333 854.667 609.667 852.333 609 850C607.667 845.333 606.5 837.667 605.5 827C604.5 816.333 604.5 807.667 605.5 801C606.5 794.333 609 786.5 613 777.5C617 768.5 625.667 754.5 639 735.5C652.333 716.5 662.667 699.167 670 683.5C677.333 667.833 686 657.167 696 651.5C706 645.833 714.333 639.667 721 633C727.667 626.333 732.667 620 736 614C739.333 608 742 600.5 744 591.5C746 582.5 751 576 759 572C767 568 776 562.667 786 556C796 549.333 805 542.333 813 535C821 527.667 827.167 521.333 831.5 516C835.833 510.667 840.667 503.333 846 494C851.333 484.667 857 470.167 863 450.5C869 430.833 873.833 417.5 877.5 410.5C881.167 403.5 883 399.333 883 398C883 397.333 883 396.667 883 396C882.667 396 882.333 396 882 396C881.333 396 878.167 398.167 872.5 402.5C866.833 406.833 862 410 858 412C854 414 844 417.667 828 423C812 428.333 793.833 435.5 773.5 444.5C763.333 449 753.167 453.5 743 458C743.167 456.833 743.333 455.667 743.5 454.5C743.833 452.167 747.667 447.333 755 440C762.333 432.667 770 423.333 778 412C786 400.667 792.667 389.667 798 379C803.333 368.333 808.167 356.667 812.5 344C816.833 331.333 820.5 317 823.5 301C826.5 285 828.167 270.5 828.5 257.5C828.833 244.5 828.167 231.833 826.5 219.5C824.833 207.167 822.5 196.333 819.5 187C816.5 177.667 813.167 169.667 809.5 163C805.833 156.333 802 151 798 147C796 145 794 143 792 141C792.333 147.5 792.667 154 793 160.5C793.667 173.5 792.667 188 790 204C787.333 220 782.667 237.5 776 256.5C769.333 275.5 761.167 294 751.5 312C741.833 330 736.667 339 736 339C735.333 339 733.833 335.833 731.5 329.5C729.167 323.167 725.333 309.833 720 289.5C714.667 269.167 709.833 254.167 705.5 244.5C701.167 234.833 696.667 226.5 692 219.5C687.333 212.5 681.5 205.5 674.5 198.5C667.5 191.5 660.833 185.833 654.5 181.5C648.167 177.167 640.167 172.833 630.5 168.5C620.833 164.167 610.5 161 599.5 159C588.5 157 575.833 156.167 561.5 156.5C547.167 156.833 530.5 159 511.5 163C492.5 167 473.667 172.333 455 179C436.333 185.667 418.167 193.5 400.5 202.5C382.833 211.5 369 219.667 359 227C349 234.333 339.167 243.5 329.5 254.5C319.833 265.5 312.167 276 306.5 286C300.833 296 296 307 292 319C290 325 288 331 286 337C282.5 328.333 279 319.667 275.5 311C268.5 293.667 263.167 276.5 259.5 259.5C255.833 242.5 253.5 226.167 252.5 210.5C251.5 194.833 251.333 182.333 252 173C252.667 163.667 254 154.333 256 145C258 135.667 259 130.5 259 129.5C259 129 259 128.5 259 128C258.667 128 258.333 128 258 128C257.333 128 253.5 133.167 246.5 143.5ZM591 192C595.333 196.167 599.667 200.333 604 204.5C612.667 212.833 620.5 222.833 627.5 234.5C634.5 246.167 639.333 256.5 642 265.5C644.667 274.5 646.167 284.667 646.5 296C646.833 307.333 646.333 315.667 645 321C643.667 326.333 641 332 637 338C633 344 628.333 348.667 623 352C617.667 355.333 613.167 357.5 609.5 358.5C605.833 359.5 601.5 360 596.5 360C594 360 591.5 360 589 360C589.167 360.333 589.333 360.667 589.5 361C589.833 361.667 599.833 365.833 619.5 373.5C639.167 381.167 651.5 385.167 656.5 385.5C661.5 385.833 666 385.333 670 384C674 382.667 678.667 379.5 684 374.5C689.333 369.5 693 365 695 361C697 357 698.667 352.333 700 347C701.333 341.667 701.833 333 701.5 321C701.167 309 699.5 297.5 696.5 286.5C695 281 693.5 275.5 692 270C694.167 275.333 696.333 280.667 698.5 286C702.833 296.667 706.333 308 709 320C711.667 332 713 341 713 347C713 353 712.5 358.333 711.5 363C710.5 367.667 708.833 372.167 706.5 376.5C704.167 380.833 701.167 384.833 697.5 388.5C693.833 392.167 689.5 395.167 684.5 397.5C679.5 399.833 675.167 401.167 671.5 401.5C669.667 401.667 667.833 401.833 666 402C669.5 405.833 673 409.667 676.5 413.5C683.5 421.167 688.333 427.667 691 433C693.667 438.333 696 444.333 698 451C700 457.667 701.833 467 703.5 479C705.167 491 706 502.167 706 512.5C706 522.833 705.5 532 704.5 540C703.5 548 701 560.333 697 577C693 593.667 687.833 610.833 681.5 628.5C675.167 646.167 668.333 662.667 661 678C653.667 693.333 646.5 706.5 639.5 717.5C632.5 728.5 624.167 739.167 614.5 749.5C604.833 759.833 595.333 768.5 586 775.5C576.667 782.5 563.333 790.5 546 799.5C528.667 808.5 517 813.333 511 814C505 814.667 495.5 812 482.5 806C469.5 800 459.333 794.833 452 790.5C444.667 786.167 437.333 781.167 430 775.5C422.667 769.833 416 764 410 758C404 752 397 743.5 389 732.5C381 721.5 374.333 711.5 369 702.5C363.667 693.5 359.5 686 356.5 680C353.5 674 349.333 663.667 344 649C338.667 634.333 334.5 621.5 331.5 610.5C328.5 599.5 326 587.167 324 573.5C323 566.667 322 559.833 321 553C323.167 554.5 325.333 556 327.5 557.5C331.833 560.5 336.5 562.333 341.5 563C346.5 563.667 350 565.833 352 569.5C354 573.167 356.667 576.833 360 580.5C363.333 584.167 367.667 587.667 373 591C378.333 594.333 382.667 596.5 386 597.5C389.333 598.5 395 598.833 403 598.5C411 598.167 420.167 595.167 430.5 589.5C440.833 583.833 449 581.5 455 582.5C458 583 461 583.5 464 584C463.333 581.333 462.667 578.667 462 576C460.667 570.667 457.833 563.5 453.5 554.5C449.167 545.5 444.667 538.5 440 533.5C435.333 528.5 430.833 525 426.5 523C422.167 521 417.833 519.833 413.5 519.5C409.167 519.167 404.5 519.833 399.5 521.5C394.5 523.167 390.833 524 388.5 524C386.167 524 382.667 522.333 378 519C375.667 517.333 373.333 515.667 371 514C371.833 516.5 372.667 519 373.5 521.5C375.167 526.5 375.167 529.5 373.5 530.5C371.833 531.5 369.833 532 367.5 532C365.167 532 362.167 530.667 358.5 528C354.833 525.333 352.333 522.833 351 520.5C350.333 519.333 349.667 518.167 349 517C349.167 519 349.333 521 349.5 523C349.833 527 351.333 530.833 354 534.5C355.333 536.333 356.667 538.167 358 540C355 540.333 352 540.667 349 541C343 541.667 338.667 541.5 336 540.5C333.333 539.5 330.333 537.667 327 535C325.333 533.667 323.667 532.333 322 531C322.667 533 323.333 535 324 537C325.333 541 327.5 544.5 330.5 547.5C332 549 333.5 550.5 335 552C332.667 551.333 330.333 550.667 328 550C323.333 548.667 321 542.167 321 530.5C321 518.833 321.833 507.667 323.5 497C325.167 486.333 327.667 474.167 331 460.5C334.333 446.833 338.333 432.667 343 418C347.667 403.333 348.5 389.833 345.5 377.5C342.5 365.167 341.167 353.667 341.5 343C341.833 332.333 343.333 322 346 312C348.667 302 352.667 291.667 358 281C363.333 270.333 369.333 260.5 376 251.5C382.667 242.5 389.333 234.667 396 228C402.667 221.333 408.667 216 414 212C416.667 210 419.333 208 422 206C416.667 212.667 411.333 219.333 406 226C395.333 239.333 386.167 253.833 378.5 269.5C370.833 285.167 365.5 299.333 362.5 312C359.5 324.667 358 336 358 346C358 356 358.5 363.667 359.5 369C360 371.667 360.5 374.333 361 377C364 370.5 367 364 370 357.5C376 344.5 382.5 332.5 389.5 321.5C396.5 310.5 404.667 299.833 414 289.5C423.333 279.167 432.667 270.5 442 263.5C451.333 256.5 461.167 250.5 471.5 245.5C481.833 240.5 492.5 236.667 503.5 234C514.5 231.333 526.333 230.167 539 230.5C551.667 230.833 562.167 232.667 570.5 236C578.833 239.333 583.167 241.333 583.5 242C583.667 242.333 583.833 242.667 584 243C583.667 243 583.333 243 583 243C582.333 243 579.5 242.333 574.5 241C569.5 239.667 564 239 558 239C552 239 546.5 239.333 541.5 240C536.5 240.667 528.667 242.5 518 245.5C507.333 248.5 498.333 251.667 491 255C483.667 258.333 474.833 263.333 464.5 270C454.167 276.667 445.333 283.5 438 290.5C430.667 297.5 425.167 303.667 421.5 309C417.833 314.333 414.833 320 412.5 326C410.167 332 408.667 339.167 408 347.5C407.333 355.833 407.5 362.667 408.5 368C409.5 373.333 411.167 378.667 413.5 384C415.833 389.333 418.333 393.833 421 397.5C423.667 401.167 425.5 403.167 426.5 403.5C427 403.667 427.5 403.833 428 404C426.833 400.833 425.667 397.667 424.5 394.5C422.167 388.167 421 380.5 421 371.5C421 362.5 422 354.833 424 348.5C426 342.167 429 335.833 433 329.5C437 323.167 442 317.167 448 311.5C454 305.833 461.167 300.667 469.5 296C477.833 291.333 486.667 287.667 496 285C505.333 282.333 515.5 280.667 526.5 280C532 279.667 537.5 279.333 543 279C538.667 280.333 534.333 281.667 530 283C521.333 285.667 513.5 288.833 506.5 292.5C499.5 296.167 493.5 299.833 488.5 303.5C483.5 307.167 478.167 311.833 472.5 317.5C466.833 323.167 462.167 328.667 458.5 334C454.833 339.333 451.5 345.667 448.5 353C445.5 360.333 443.667 366.167 443 370.5C442.333 374.833 442.5 380.667 443.5 388C444.5 395.333 446.167 401.333 448.5 406C450.833 410.667 453.333 414.833 456 418.5C458.667 422.167 462.667 426.333 468 431C473.333 435.667 480.333 439.5 489 442.5C497.667 445.5 505.833 446.833 513.5 446.5C521.167 446.167 527.167 445.167 531.5 443.5C535.833 441.833 540.833 438.5 546.5 433.5C552.167 428.5 556.333 423.667 559 419C561.667 414.333 563.833 408.667 565.5 402C567.167 395.333 567.833 389.167 567.5 383.5C567.333 380.667 567.167 377.833 567 375C566.167 378.167 565.333 381.333 564.5 384.5C562.833 390.833 560.167 396.667 556.5 402C552.833 407.333 549.833 411 547.5 413C545.167 415 541 417.167 535 419.5C529 421.833 523 422.667 517 422C511 421.333 506 419.667 502 417C498 414.333 494.5 410.333 491.5 405C488.5 399.667 487 393.667 487 387C487 380.333 488.333 374.667 491 370C493.667 365.333 497.667 361 503 357C508.333 353 515 350 523 348C531 346 544.833 345.167 564.5 345.5C584.167 345.833 596.167 344.833 600.5 342.5C604.833 340.167 609 336.5 613 331.5C617 326.5 620.333 319.5 623 310.5C625.667 301.5 627 292.667 627 284C627 275.333 626.5 268 625.5 262C624.5 256 621.833 247.333 617.5 236C613.167 224.667 607.667 214.5 601 205.5C597.667 201 594.333 196.5 591 192ZM235 239C235.333 244.333 235.667 249.667 236 255C236.667 265.667 238 276.667 240 288C242 299.333 245.167 311.5 249.5 324.5C253.833 337.5 259.667 350.5 267 363.5C274.333 376.5 277.833 387 277.5 395C277.333 399 277.167 403 277 407C273.167 401.667 269.333 396.333 265.5 391C257.833 380.333 251.833 370.333 247.5 361C243.167 351.667 239.833 343.167 237.5 335.5C235.167 327.833 233.333 320 232 312C230.667 304 230 294 230 282C230 270 230.833 259.833 232.5 251.5C233.333 247.333 234.167 243.167 235 239ZM804 239C804.333 240.833 804.667 242.667 805 244.5C805.667 248.167 805.833 255 805.5 265C805.167 275 804.5 283.167 803.5 289.5C802.5 295.833 800.5 304.167 797.5 314.5C794.5 324.833 789.667 336.833 783 350.5C776.333 364.167 770.5 374.5 765.5 381.5C760.5 388.5 756 394 752 398C750 400 748 402 746 404C745.5 400.167 745 396.333 744.5 392.5C743.5 384.833 746.667 376.333 754 367C761.333 357.667 767.833 347.833 773.5 337.5C779.167 327.167 784.167 316.167 788.5 304.5C792.833 292.833 796.5 279 799.5 263C801 255 802.5 247 804 239ZM825 447.5C828.333 448.5 829.833 450.167 829.5 452.5C829.167 454.833 827.833 457.333 825.5 460C823.167 462.667 818.833 465.5 812.5 468.5C806.167 471.5 801.667 473 799 473C796.333 473 794.167 472.333 792.5 471C790.833 469.667 790.167 468 790.5 466C790.833 464 792.167 461.667 794.5 459C796.833 456.333 800.167 453.833 804.5 451.5C808.833 449.167 812.5 447.667 815.5 447C818.5 446.333 821.667 446.5 825 447.5ZM205.5 452.5C210.5 452.833 215.167 454.167 219.5 456.5C223.833 458.833 227.333 461.5 230 464.5C232.667 467.5 233.833 470.167 233.5 472.5C233.167 474.833 232.5 476.333 231.5 477C230.5 477.667 228 478 224 478C220 478 216 477 212 475C208 473 204.333 469.833 201 465.5C197.667 461.167 196.333 457.833 197 455.5C197.667 453.167 200.5 452.167 205.5 452.5ZM595 471.5C587 473.833 580.833 476.333 576.5 479C572.167 481.667 567.333 485.667 562 491C556.667 496.333 553.833 500.333 553.5 503C553.167 505.667 553.333 507.5 554 508.5C554.667 509.5 556.667 509.833 560 509.5C563.333 509.167 571.333 505.333 584 498C596.667 490.667 605.833 486.167 611.5 484.5C617.167 482.833 624.333 482.167 633 482.5C641.667 482.833 651.167 485.333 661.5 490C666.667 492.333 671.833 494.667 677 497C675 495 673 493 671 491C667 487 661.5 483 654.5 479C647.5 475 640.5 472.167 633.5 470.5C626.5 468.833 620.333 468 615 468C609.667 468 603 469.167 595 471.5ZM372 474C362 477.333 353.167 482.167 345.5 488.5C341.667 491.667 337.833 494.833 334 498C339.167 495.667 344.333 493.333 349.5 491C359.833 486.333 369 483.667 377 483C385 482.333 392.5 483 399.5 485C406.5 487 416.333 491.667 429 499C441.667 506.333 449.333 510.167 452 510.5C454.667 510.833 456.5 510.667 457.5 510C458.5 509.333 459.167 507.833 459.5 505.5C459.833 503.167 459.5 501.167 458.5 499.5C457.5 497.833 453.333 494 446 488C438.667 482 431.333 477.5 424 474.5C416.667 471.5 408.667 469.833 400 469.5C391.333 469.167 382 470.667 372 474ZM764 475C766.667 475 768.167 475.667 768.5 477C768.833 478.333 767.167 482.667 763.5 490C759.833 497.333 754.833 503.5 748.5 508.5C742.167 513.5 738 516.333 736 517C734 517.667 731.667 517.833 729 517.5C726.333 517.167 724.667 516.5 724 515.5C723.333 514.5 723.167 513 723.5 511C723.833 509 725.5 505.667 728.5 501C731.5 496.333 735 492.167 739 488.5C743 484.833 747.5 481.667 752.5 479C757.5 476.333 761.333 475 764 475ZM265 480.5C270.333 482.167 275.333 484.833 280 488.5C284.667 492.167 289 497 293 503C297 509 298.833 513.5 298.5 516.5C298.333 518 298.167 519.5 298 521C295.5 520.667 293 520.333 290.5 520C285.5 519.333 280 516.667 274 512C268 507.333 263.167 501.667 259.5 495C255.833 488.333 254 484.167 254 482.5C254 480.833 254.5 479.667 255.5 479C256.5 478.333 259.667 478.833 265 480.5ZM812.5 486C814.833 486 816.167 486.833 816.5 488.5C816.833 490.167 815.167 494 811.5 500C807.833 506 802.333 512.333 795 519C787.667 525.667 781.667 530.333 777 533C772.333 535.667 769 537.167 767 537.5C766 537.667 765 537.833 764 538C764.167 536.167 764.333 534.333 764.5 532.5C764.833 528.833 766.833 524 770.5 518C774.167 512 778 507 782 503C786 499 791.5 495.167 798.5 491.5C805.5 487.833 810.167 486 812.5 486ZM219 497.5C223.667 499.833 228.167 502.833 232.5 506.5C236.833 510.167 241.333 514.833 246 520.5C250.667 526.167 253.833 530.667 255.5 534C257.167 537.333 258 540 258 542C258 543 258 544 258 545C257 544.833 256 544.667 255 544.5C253 544.167 250 542.833 246 540.5C242 538.167 236.833 534 230.5 528C224.167 522 219.5 516.667 216.5 512C213.5 507.333 211.667 503.333 211 500C210.333 496.667 210.333 494.833 211 494.5C211.667 494.167 214.333 495.167 219 497.5ZM640 517.5C638 519.833 635.667 521.5 633 522.5C630.333 523.5 626 523.167 620 521.5C614 519.833 609 519 605 519C601 519 595.667 520.5 589 523.5C582.333 526.5 577.5 529.667 574.5 533C571.5 536.333 568.167 541.333 564.5 548C560.833 554.667 557.833 562.333 555.5 571C554.333 575.333 553.167 579.667 552 584C554.667 583.5 557.333 583 560 582.5C565.333 581.5 573.333 583.833 584 589.5C594.667 595.167 603.833 598.167 611.5 598.5C619.167 598.833 627 597.167 635 593.5C643 589.833 649 586 653 582C657 578 660 574 662 570C664 566 667.333 563.833 672 563.5C676.667 563.167 681 562 685 560C689 558 692.667 554.833 696 550.5C697.667 548.333 699.333 546.167 701 544C699.5 545 698 546 696.5 547C693.5 549 690.167 550.167 686.5 550.5C684.667 550.667 682.833 550.833 681 551C682.667 549.333 684.333 547.667 686 546C689.333 542.667 691.5 539.167 692.5 535.5C693 533.667 693.5 531.833 694 530C693 531 692 532 691 533C689 535 686.333 536.833 683 538.5C679.667 540.167 675.167 541 669.5 541C663.833 541 660.5 540.5 659.5 539.5C658.5 538.5 659.167 536.333 661.5 533C663.833 529.667 665.167 526.167 665.5 522.5C665.667 520.667 665.833 518.833 666 517C664.167 519.167 662.333 521.333 660.5 523.5C656.833 527.833 653.333 530.333 650 531C646.667 531.667 644 531.333 642 530C640 528.667 639.833 526.333 641.5 523C643.167 519.667 643.833 517.333 643.5 516C643.333 515.333 643.167 514.667 643 514C642 515.167 641 516.333 640 517.5ZM731.5 526C735.167 526 738 526.833 740 528.5C742 530.167 743.667 532.5 745 535.5C746.333 538.5 747 542.667 747 548C747 553.333 745.5 560 742.5 568C739.5 576 736.333 582.5 733 587.5C729.667 592.5 726.5 596.333 723.5 599C722 600.333 720.5 601.667 719 603C721 599 723 595 725 591C729 583 731.667 576.167 733 570.5C734.333 564.833 735 560.167 735 556.5C735 552.833 733.833 549.5 731.5 546.5C729.167 543.5 725 542.5 719 543.5C716 544 713 544.5 710 545C710.833 543.333 711.667 541.667 712.5 540C714.167 536.667 716.833 533.5 720.5 530.5C724.167 527.5 727.833 526 731.5 526ZM296 530.5C300 531.5 303.333 533.833 306 537.5C308.667 541.167 310.167 543.667 310.5 545C310.667 545.667 310.833 546.333 311 547C309 546.5 307 546 305 545.5C301 544.5 298.167 544.667 296.5 546C294.833 547.333 293.5 549.333 292.5 552C291.5 554.667 291 557.5 291 560.5C291 563.5 292.667 569.833 296 579.5C299.333 589.167 302.667 596.333 306 601C309.333 605.667 312.5 609.167 315.5 611.5C317 612.667 318.5 613.833 320 615C318.5 614.667 317 614.333 315.5 614C312.5 613.333 309 611.333 305 608C301 604.667 297.167 600.5 293.5 595.5C289.833 590.5 286.667 585.333 284 580C281.333 574.667 279.5 568 278.5 560C277.5 552 277.833 545.833 279.5 541.5C281.167 537.167 283.333 534 286 532C288.667 530 292 529.5 296 530.5ZM436 553C439.833 556.667 443.667 560.333 447.5 564C451.333 567.667 455.167 571.333 459 575C458 574.667 457 574.333 456 574C454 573.333 451.5 573.167 448.5 573.5C445.5 573.833 440.333 576.167 433 580.5C425.667 584.833 420 587.667 416 589C412 590.333 407.833 591 403.5 591C399.167 591 395.167 590.333 391.5 589C387.833 587.667 384.167 585.5 380.5 582.5C376.833 579.5 373.5 575.5 370.5 570.5C367.5 565.5 366.333 562.167 367 560.5C367.667 558.833 369.167 557.333 371.5 556C372.667 555.333 373.833 554.667 375 554C375.5 556.333 376 558.667 376.5 561C377.5 565.667 379.667 570.167 383 574.5C386.333 578.833 389.667 581.833 393 583.5C396.333 585.167 399.833 586.167 403.5 586.5C407.167 586.833 410.5 586.667 413.5 586C416.5 585.333 419.667 583.833 423 581.5C426.333 579.167 429 576.333 431 573C433 569.667 434.333 565.5 435 560.5C435.333 558 435.667 555.5 436 553ZM578 553C578.5 555.5 579 558 579.5 560.5C580.5 565.5 582.167 569.833 584.5 573.5C586.833 577.167 589.5 580 592.5 582C595.5 584 598.333 585.333 601 586C603.667 586.667 606.833 586.833 610.5 586.5C614.167 586.167 618 585 622 583C626 581 629.5 578 632.5 574C635.5 570 637.5 565.667 638.5 561C639 558.667 639.5 556.333 640 554C641 554.333 642 554.667 643 555C645 555.667 646.5 557 647.5 559C648.5 561 648 564 646 568C644 572 641.333 575.667 638 579C634.667 582.333 630.5 585.167 625.5 587.5C620.5 589.833 616 591 612 591C608 591 604.167 590.5 600.5 589.5C596.833 588.5 591 585.667 583 581C575 576.333 569.5 573.833 566.5 573.5C563.5 573.167 561.167 573.333 559.5 574C558.667 574.333 557.833 574.667 557 575C560.5 571.333 564 567.667 567.5 564C571 560.333 574.5 556.667 578 553ZM314.5 575.5C316.167 575.833 317.333 576.5 318 577.5C318.667 578.5 317.667 580.833 315 584.5C312.333 588.167 311.167 591.5 311.5 594.5C311.833 597.5 312.5 599.833 313.5 601.5C314 602.333 314.5 603.167 315 604C314.167 603.333 313.333 602.667 312.5 602C310.833 600.667 309.333 598.333 308 595C306.667 591.667 306.167 588.167 306.5 584.5C306.833 580.833 307.833 578.333 309.5 577C311.167 575.667 312.833 575.167 314.5 575.5ZM709.5 575C712.5 575 714.833 575.833 716.5 577.5C718.167 579.167 719.167 581.833 719.5 585.5C719.833 589.167 718.833 593.333 716.5 598C714.167 602.667 711.667 606.167 709 608.5C706.333 610.833 703.833 612.333 701.5 613C700.333 613.333 699.167 613.667 698 614C699.5 612.833 701 611.667 702.5 610.5C705.5 608.167 707.833 605.5 709.5 602.5C711.167 599.5 711.667 596 711 592C710.333 588 708.833 585.333 706.5 584C704.167 582.667 703.333 580.833 704 578.5C704.667 576.167 706.5 575 709.5 575ZM733.5 642.5C739.167 645.5 744 649.167 748 653.5C752 657.833 755.333 663 758 669C760.667 675 762.167 680.667 762.5 686C762.833 691.333 762.333 696.333 761 701C759.667 705.667 757.833 709.833 755.5 713.5C753.167 717.167 750.333 720.5 747 723.5C743.667 726.5 740.167 729 736.5 731C732.833 733 726.667 734.667 718 736C709.333 737.333 702.833 737.667 698.5 737C694.167 736.333 689.833 735 685.5 733C683.333 732 681.167 731 679 730C681.167 731.833 683.333 733.667 685.5 735.5C689.833 739.167 695.167 742 701.5 744C707.833 746 714.5 746.833 721.5 746.5C728.5 746.167 735 744.667 741 742C747 739.333 752.833 735 758.5 729C764.167 723 768.167 716.833 770.5 710.5C772.833 704.167 773.667 696.667 773 688C772.333 679.333 770.5 672.333 767.5 667C764.5 661.667 760.333 656.667 755 652C749.667 647.333 743.333 643.833 736 641.5C732.333 640.333 728.667 639.167 725 638C727.833 639.5 730.667 641 733.5 642.5ZM289.5 656C282.5 659.333 276.667 663.5 272 668.5C267.333 673.5 263.833 679 261.5 685C259.167 691 258 697.167 258 703.5C258 709.833 259.167 716 261.5 722C263.833 728 266.833 733.167 270.5 737.5C274.167 741.833 278.667 745.5 284 748.5C289.333 751.5 295.5 753.333 302.5 754C309.5 754.667 315.667 754.333 321 753C326.333 751.667 331.167 749.833 335.5 747.5C339.833 745.167 343.167 742.833 345.5 740.5C346.667 739.333 347.833 738.167 349 737C345.333 738.5 341.667 740 338 741.5C330.667 744.5 323.333 745.833 316 745.5C308.667 745.167 302.167 743.667 296.5 741C290.833 738.333 285.667 734.333 281 729C276.333 723.667 273.167 718 271.5 712C269.833 706 269.667 699.167 271 691.5C272.333 683.833 274.5 677.667 277.5 673C280.5 668.333 283.667 664.5 287 661.5C290.333 658.5 293.833 656.167 297.5 654.5C299.333 653.667 301.167 652.833 303 652C302.5 651.833 302 651.667 301.5 651.5C300.5 651.167 296.5 652.667 289.5 656ZM700.5 654.5C698.833 654.833 698 655.333 698 656C698 656.667 700.333 659 705 663C709.667 667 713.333 671.667 716 677C718.667 682.333 720.167 687.167 720.5 691.5C720.833 695.833 720.333 700.833 719 706.5C718.333 709.333 717.667 712.167 717 715C719.333 712.667 721.667 710.333 724 708C728.667 703.333 731.5 699.333 732.5 696C733.5 692.667 734 689 734 685C734 681 732.333 676 729 670C725.667 664 722.667 660.167 720 658.5C717.333 656.833 713.833 655.667 709.5 655C705.167 654.333 702.167 654.167 700.5 654.5ZM483 673.5C481.667 675.167 481.167 677 481.5 679C481.833 681 482.833 682.667 484.5 684C486.167 685.333 488.333 686.333 491 687C493.667 687.667 495.667 688.833 497 690.5C498.333 692.167 500.333 693.667 503 695C505.667 696.333 508.667 696.5 512 695.5C515.333 694.5 517.833 693 519.5 691C521.167 689 523.833 687.5 527.5 686.5C531.167 685.5 533.5 684.5 534.5 683.5C535.5 682.5 536 680.667 536 678C536 675.333 535.333 673.5 534 672.5C532.667 671.5 530.667 671.167 528 671.5C525.333 671.833 522.167 673.167 518.5 675.5C514.833 677.833 511 678.833 507 678.5C503 678.167 499.333 676.833 496 674.5C492.667 672.167 490 671 488 671C486 671 484.333 671.833 483 673.5ZM475.5 724.5C465.833 729.5 459.5 732.167 456.5 732.5C453.5 732.833 452 733.333 452 734C452 734.667 454.833 736.667 460.5 740C466.167 743.333 471.5 747.167 476.5 751.5C481.5 755.833 486 758.833 490 760.5C494 762.167 499.333 763.167 506 763.5C512.667 763.833 518.333 763.333 523 762C527.667 760.667 536.333 755.667 549 747C555.333 742.667 561.667 738.333 568 734C565.333 733.167 562.667 732.333 560 731.5C554.667 729.833 550 727.667 546 725C542 722.333 538.167 720.333 534.5 719C530.833 717.667 527.667 717 525 717C522.333 717 519.5 717.667 516.5 719C513.5 720.333 508.333 720.333 501 719C493.667 717.667 485.167 719.5 475.5 724.5ZM509 738C515.667 738 520.333 738.5 523 739.5C525.667 740.5 527.333 741.667 528 743C528.333 743.667 528.667 744.333 529 745C527.167 745.667 525.333 746.333 523.5 747C519.833 748.333 514.833 749 508.5 749C502.167 749 497.5 748.5 494.5 747.5C491.5 746.5 489.833 745.5 489.5 744.5C489.167 743.5 490.667 742.167 494 740.5C497.333 738.833 502.333 738 509 738Z" fill="#000000" fill-rule="nonzero" opacity="1" stroke="none" vectornator:layerName="Curve 1"/>
</g>
</svg>
