<?xml version="1.0" encoding="UTF-8" standalone="no"?>
<!DOCTYPE svg PUBLIC "-//W3C//DTD SVG 1.1//EN" "http://www.w3.org/Graphics/SVG/1.1/DTD/svg11.dtd">
<!-- Created with Vectornator (http://vectornator.io/) -->
<svg height="100%" stroke-miterlimit="10" style="fill-rule:nonzero;clip-rule:evenodd;stroke-linecap:round;stroke-linejoin:round;" version="1.1" viewBox="127 176 764.286 679" width="100%" xml:space="preserve" xmlns="http://www.w3.org/2000/svg" xmlns:vectornator="http://vectornator.io" xmlns:xlink="http://www.w3.org/1999/xlink">
<defs/>
<g id="Layer-1" vectornator:layerName="Layer 1">
<path d="M471 178C453.667 180 438 183 424 187C410 191 396 196.333 382 203C368 209.667 354 218 340 228C326 238 312.667 249.667 300 263C287.333 276.333 278.167 287.167 272.5 295.5C266.833 303.833 261.667 312.5 257 321.5C252.333 330.5 247.5 342.5 242.5 357.5C237.5 372.5 234.167 387.333 232.5 402C231.667 409.333 230.833 416.667 230 424C227 422.167 224 420.333 221 418.5C215 414.833 209.5 412.333 204.5 411C199.5 409.667 194.5 409 189.5 409C184.5 409 178.833 410 172.5 412C166.167 414 160 417.333 154 422C148 426.667 142.667 432.667 138 440C133.333 447.333 130.333 453.333 129 458C127.667 462.667 127 468.833 127 476.5C127 484.167 128.5 492.667 131.5 502C134.5 511.333 140 524 148 540C156 556 164 570 172 582C180 594 187.167 603.333 193.5 610C199.833 616.667 205.5 621.667 210.5 625C215.5 628.333 220.833 630.833 226.5 632.5C232.167 634.167 238.167 634.667 244.5 634C250.833 633.333 256.5 631.5 261.5 628.5C266.5 625.5 269.833 624.5 271.5 625.5C273.167 626.5 274.333 627.667 275 629C275.667 630.333 275.667 641 275 661C274.333 681 274.333 692.833 275 696.5C275.667 700.167 277.333 705.167 280 711.5C282.667 717.833 287.167 724.833 293.5 732.5C299.833 740.167 310.5 749.167 325.5 759.5C340.5 769.833 350.167 777.167 354.5 781.5C358.833 785.833 365.167 794 373.5 806C381.833 818 388.5 826.833 393.5 832.5C398.5 838.167 404 842.833 410 846.5C416 850.167 421 852.5 425 853.5C429 854.5 433.667 855 439 855C444.333 855 449.333 854.333 454 853C458.667 851.667 462.667 850 466 848C469.333 846 483.5 845 508.5 845C533.5 845 549.167 846.5 555.5 849.5C561.833 852.5 568.833 854.167 576.5 854.5C584.167 854.833 590.167 854.333 594.5 853C598.833 851.667 603.833 849.167 609.5 845.5C615.167 841.833 619.833 838 623.5 834C627.167 830 634 821 644 807C654 793 662 783.333 668 778C674 772.667 682.833 766.167 694.5 758.5C706.167 750.833 715 743.833 721 737.5C727 731.167 731.5 725.333 734.5 720C737.5 714.667 739.833 709 741.5 703C743.167 697 744.167 691 744.5 685C744.833 679 744.5 670.333 743.5 659C742.5 647.667 742.333 639.667 743 635C743.667 630.333 745.167 627.167 747.5 625.5C749.833 623.833 751.833 623.833 753.5 625.5C755.167 627.167 758.333 629 763 631C767.667 633 772 634.167 776 634.5C780 634.833 783.833 634.667 787.5 634C791.167 633.333 796.333 631.167 803 627.5C809.667 623.833 816.5 618.333 823.5 611C830.5 603.667 837.167 595.333 843.5 586C849.833 576.667 856.833 564.667 864.5 550C872.167 535.333 878.333 522.167 883 510.5C887.667 498.833 890.333 488.667 891 480C891.667 471.333 891.167 464 889.5 458C887.833 452 885.5 446.5 882.5 441.5C879.5 436.5 875.833 431.833 871.5 427.5C867.167 423.167 862.333 419.5 857 416.5C851.667 413.5 847 411.5 843 410.5C839 409.5 834.333 409 829 409C823.667 409 818.667 409.667 814 411C809.333 412.333 804 414.833 798 418.5C795 420.333 792 422.167 789 424C788.833 420.667 788.667 417.333 788.5 414C788.167 407.333 786.833 398.167 784.5 386.5C782.167 374.833 779.333 364.333 776 355C772.667 345.667 768.667 336.333 764 327C759.333 317.667 754.5 309.167 749.5 301.5C744.5 293.833 738.5 285.667 731.5 277C724.5 268.333 714 257.833 700 245.5C686 233.167 673.5 223.667 662.5 217C651.5 210.333 639.333 204.167 626 198.5C612.667 192.833 597.167 188 579.5 184C561.833 180 543.667 177.5 525 176.5C506.333 175.5 488.333 176 471 178ZM554 220.5C562 221.5 568.5 223 573.5 225C578.5 227 582.333 229.667 585 233C587.667 236.333 588.667 241.667 588 249C587.667 252.667 587.333 256.333 587 260C588.333 257.667 589.667 255.333 591 253C593.667 248.333 596.667 244.833 600 242.5C603.333 240.167 607.667 239.167 613 239.5C618.333 239.833 625 242 633 246C641 250 646.167 253.5 648.5 256.5C650.833 259.5 652 262.833 652 266.5C652 270.167 650.667 274.833 648 280.5C646.667 283.333 645.333 286.167 644 289C647.5 286.167 651 283.333 654.5 280.5C661.5 274.833 666.167 272 668.5 272C670.833 272 673.833 273.5 677.5 276.5C681.167 279.5 686.833 285.167 694.5 293.5C702.167 301.833 706.833 307.667 708.5 311C710.167 314.333 711.167 320.833 711.5 330.5C711.833 340.167 711.333 348.5 710 355.5C709.333 359 708.667 362.5 708 366C711.167 362 714.333 358 717.5 354C723.833 346 727.667 342.5 729 343.5C730.333 344.5 733.167 350.5 737.5 361.5C741.833 372.5 745.167 385.667 747.5 401C749.833 416.333 750.833 433.5 750.5 452.5C750.167 471.5 748.667 488.167 746 502.5C743.333 516.833 741.5 530.5 740.5 543.5C739.5 556.5 737.333 566.5 734 573.5C730.667 580.5 725.167 588 717.5 596C709.833 604 697.667 614 681 626C664.333 638 649.5 647.833 636.5 655.5C630 659.333 623.5 663.167 617 667C617.5 667.5 618 668 618.5 668.5C619.5 669.5 623.167 670 629.5 670C635.833 670 642.5 669.333 649.5 668C653 667.333 656.5 666.667 660 666C659.667 666.833 659.333 667.667 659 668.5C658.333 670.167 654.5 675 647.5 683C640.5 691 637 695.5 637 696.5C637 697 637 697.5 637 698C637.333 698 637.667 698 638 698C638.667 698 645.333 693.5 658 684.5C670.667 675.5 681.833 667 691.5 659C696.333 655 701.167 651 706 647C706.167 654.333 706.333 661.667 706.5 669C706.833 683.667 705.833 693.5 703.5 698.5C701.167 703.5 698.167 707.833 694.5 711.5C690.833 715.167 682.667 721.333 670 730C657.333 738.667 647.667 746.167 641 752.5C634.333 758.833 624.333 770.667 611 788C597.667 805.333 590 814.5 588 815.5C586 816.5 583.333 817 580 817C576.667 817 574 816.5 572 815.5C570 814.5 566 811 560 805C554 799 547.833 791.167 541.5 781.5C535.167 771.833 531.333 767.333 530 768C528.667 768.667 528 770.5 528 773.5C528 776.5 528.833 782.667 530.5 792C531.333 796.667 532.167 801.333 533 806C525.167 806 517.333 806 509.5 806C501.667 806 493.833 806 486 806C486.667 802.333 487.333 798.667 488 795C489.333 787.667 490 781.5 490 776.5C490 771.5 489.333 768.667 488 768C486.667 767.333 483.5 770.833 478.5 778.5C473.5 786.167 467.667 793.667 461 801C454.333 808.333 449.5 812.833 446.5 814.5C443.5 816.167 440.5 817 437.5 817C434.5 817 430.833 815.333 426.5 812C422.167 808.667 414.5 799.5 403.5 784.5C392.5 769.5 382.5 757.833 373.5 749.5C364.5 741.167 354.167 733 342.5 725C330.833 717 323 710.167 319 704.5C315 698.833 312.667 694.833 312 692.5C311.333 690.167 311 684.167 311 674.5C311 664.833 311.333 657.833 312 653.5C312.333 651.333 312.667 649.167 313 647C318 651.167 323 655.333 328 659.5C338 667.833 349 676.167 361 684.5C373 692.833 379.333 697 380 697C380.333 697 380.667 697 381 697C380.833 696.333 380.667 695.667 380.5 695C380.167 693.667 376.667 689.167 370 681.5C363.333 673.833 359.833 669.167 359.5 667.5C359.333 666.667 359.167 665.833 359 665C363 665.833 367 666.667 371 667.5C379 669.167 385.167 670 389.5 670C391.667 670 393.833 670 396 670C396 669.333 396 668.667 396 668C396 666.667 390 662.333 378 655C366 647.667 351.5 637.667 334.5 625C317.5 612.333 306.5 603.5 301.5 598.5C296.5 593.5 291.833 587.333 287.5 580C283.167 572.667 278.667 551.5 274 516.5C269.333 481.5 267 458 267 446C267 434 267.667 422 269 410C270.333 398 272.333 387.333 275 378C277.667 368.667 280.833 360.333 284.5 353C286.333 349.333 288.167 345.667 290 342C291.333 343 292.667 344 294 345C296.667 347 300 350.833 304 356.5C306 359.333 308 362.167 310 365C309.333 361.333 308.667 357.667 308 354C306.667 346.667 306 339.5 306 332.5C306 325.5 306.5 320 307.5 316C308.5 312 313.667 305 323 295C332.333 285 343 275.5 355 266.5C367 257.5 377.167 250.833 385.5 246.5C393.833 242.167 400.167 239.833 404.5 239.5C408.833 239.167 413.833 240.5 419.5 243.5C425.167 246.5 430.333 250.167 435 254.5C437.333 256.667 439.667 258.833 442 261C440.167 257.833 438.333 254.667 436.5 251.5C432.833 245.167 431 240.167 431 236.5C431 232.833 432 230.167 434 228.5C436 226.833 439.167 225.333 443.5 224C447.833 222.667 454.333 221.667 463 221C471.667 220.333 482.167 221.333 494.5 224C506.833 226.667 521.667 232.167 539 240.5C547.667 244.667 556.333 248.833 565 253C565 252.333 565 251.667 565 251C565 249.667 561.333 245.333 554 238C546.667 230.667 542.667 226.5 542 225.5C541.333 224.5 541.167 223.167 541.5 221.5C541.833 219.833 546 219.5 554 220.5ZM336 355C330.667 356.333 327.833 357.333 327.5 358C327.333 358.333 327.167 358.667 327 359C330.667 359.5 334.333 360 338 360.5C345.333 361.5 352.833 363.167 360.5 365.5C368.167 367.833 379.833 373 395.5 381C403.333 385 411.167 389 419 393C417.167 390.833 415.333 388.667 413.5 386.5C409.833 382.167 405 377.833 399 373.5C393 369.167 386 365.167 378 361.5C370 357.833 362.333 355.5 355 354.5C347.667 353.5 341.333 353.667 336 355ZM656 356C648.667 358 642.333 360.333 637 363C631.667 365.667 626.167 369 620.5 373C614.833 377 610 381.333 606 386C604 388.333 602 390.667 600 393C607.833 389 615.667 385 623.5 381C639.167 373 651.5 367.667 660.5 365C669.5 362.333 677.167 360.667 683.5 360C686.667 359.667 689.833 359.333 693 359C691.333 358.167 689.667 357.333 688 356.5C684.667 354.833 680.333 353.833 675 353.5C669.667 353.167 663.333 354 656 356ZM313 403.5C308.333 404.667 303.667 405.833 299 407C303.833 407.333 308.667 407.667 313.5 408C323.167 408.667 333.5 410.5 344.5 413.5C355.5 416.5 369.167 421.833 385.5 429.5C401.833 437.167 414.333 443.5 423 448.5C427.333 451 431.667 453.5 436 456C433.667 453.667 431.333 451.333 429 449C424.333 444.333 416.667 438.5 406 431.5C395.333 424.5 384.333 418.333 373 413C361.667 407.667 352.833 404.167 346.5 402.5C340.167 400.833 335.333 400 332 400C328.667 400 322.333 401.167 313 403.5ZM671.5 402.5C665.167 404.167 656.833 407.333 646.5 412C636.167 416.667 626.167 422 616.5 428C606.833 434 598.667 440 592 446C588.667 449 585.333 452 582 455C591.167 450.167 600.333 445.333 609.5 440.5C627.833 430.833 641.167 424.333 649.5 421C657.833 417.667 666.667 414.833 676 412.5C685.333 410.167 695 408.667 705 408C710 407.667 715 407.333 720 407C716.833 406 713.667 405 710.5 404C704.167 402 697.667 400.833 691 400.5C684.333 400.167 677.833 400.833 671.5 402.5ZM191 447.5C195.667 447.833 201.5 450.667 208.5 456C215.5 461.333 222 467.833 228 475.5C234 483.167 240.333 493 247 505C253.667 517 257.333 525.333 258 530C258.667 534.667 258.333 541.333 257 550C255.667 558.667 254 566.833 252 574.5C250 582.167 248 587.333 246 590C244 592.667 241.333 594.167 238 594.5C234.667 594.833 232.167 594.667 230.5 594C228.833 593.333 225.333 590.333 220 585C214.667 579.667 207.5 570.167 198.5 556.5C189.5 542.833 181.5 528.5 174.5 513.5C167.5 498.5 163.667 487.833 163 481.5C162.333 475.167 162.5 470.5 163.5 467.5C164.5 464.5 166.5 461.167 169.5 457.5C172.5 453.833 175.667 451.167 179 449.5C182.333 447.833 186.333 447.167 191 447.5ZM830.5 447.5C835.5 447.833 840.167 449.833 844.5 453.5C848.833 457.167 851.833 461.333 853.5 466C855.167 470.667 855.833 475.167 855.5 479.5C855.167 483.833 852 492.667 846 506C840 519.333 833.5 532 826.5 544C819.5 556 812 566.833 804 576.5C796 586.167 790.667 591.667 788 593C785.333 594.333 783 595 781 595C779 595 777 594.5 775 593.5C773 592.5 771 589.667 769 585C767 580.333 764.833 569.833 762.5 553.5C760.167 537.167 762 523 768 511C774 499 779.333 489.667 784 483C788.667 476.333 793.833 470 799.5 464C805.167 458 810.5 453.667 815.5 451C820.5 448.333 825.5 447.167 830.5 447.5ZM310 458C307.333 459.333 304.5 461.5 301.5 464.5C298.5 467.5 295.833 471.667 293.5 477C291.167 482.333 290.333 485.5 291 486.5C291.667 487.5 295.667 488.5 303 489.5C310.333 490.5 315.5 491.833 318.5 493.5C321.5 495.167 321.333 501.833 318 513.5C314.667 525.167 313.333 532.5 314 535.5C314.667 538.5 318.333 545.167 325 555.5C331.667 565.833 337.167 573.167 341.5 577.5C345.833 581.833 350 585.333 354 588C358 590.667 362 592.667 366 594C370 595.333 375 595.667 381 595C387 594.333 395 590.667 405 584C415 577.333 425.667 571.333 437 566C448.333 560.667 460.5 558.333 473.5 559C480 559.333 486.5 559.667 493 560C491.667 558.833 490.333 557.667 489 556.5C486.333 554.167 482.667 551.833 478 549.5C475.667 548.333 473.333 547.167 471 546C474.167 545.167 477.333 544.333 480.5 543.5C486.833 541.833 491.5 539.167 494.5 535.5C497.5 531.833 499.5 528 500.5 524C501.5 520 501.833 509.167 501.5 491.5C501.333 482.667 501.167 473.833 501 465C500.5 466.333 500 467.667 499.5 469C498.5 471.667 497.833 477.167 497.5 485.5C497.167 493.833 496.333 501 495 507C493.667 513 491.833 517.5 489.5 520.5C487.167 523.5 483.833 525.333 479.5 526C475.167 526.667 466.167 522.167 452.5 512.5C438.833 502.833 424 493.667 408 485C392 476.333 378.167 469.833 366.5 465.5C354.833 461.167 346.333 458.5 341 457.5C335.667 456.5 329.833 456 323.5 456C317.167 456 312.667 456.667 310 458ZM671 459.5C661.667 461.833 650.667 465.833 638 471.5C625.333 477.167 612.167 484 598.5 492C584.833 500 572.667 507.833 562 515.5C551.333 523.167 544.333 527 541 527C537.667 527 534.333 525.5 531 522.5C527.667 519.5 525.333 515.833 524 511.5C522.667 507.167 521.833 501.167 521.5 493.5C521.167 485.833 520.333 479.167 519 473.5C518.333 470.667 517.667 467.833 517 465C516.833 472.167 516.667 479.333 516.5 486.5C516.167 500.833 516.5 511.5 517.5 518.5C518.5 525.5 520.5 531 523.5 535C526.5 539 531 541.833 537 543.5C540 544.333 543 545.167 546 546C543.167 547.5 540.333 549 537.5 550.5C531.833 553.5 528.167 555.833 526.5 557.5C525.667 558.333 524.833 559.167 524 560C526.667 559.667 529.333 559.333 532 559C537.333 558.333 544.667 558.167 554 558.5C563.333 558.833 572.167 561 580.5 565C588.833 569 598.333 574.667 609 582C619.667 589.333 626.667 593.5 630 594.5C633.333 595.5 637.5 595.833 642.5 595.5C647.5 595.167 651.833 594.167 655.5 592.5C659.167 590.833 664.833 586.667 672.5 580C680.167 573.333 687.333 564.833 694 554.5C700.667 544.167 704.167 537.167 704.5 533.5C704.833 529.833 703.333 522.667 700 512C696.667 501.333 696 495.333 698 494C700 492.667 705.167 491.333 713.5 490C721.833 488.667 726.333 487.667 727 487C727.667 486.333 727.5 484 726.5 480C725.5 476 723 471.667 719 467C715 462.333 711.667 459.333 709 458C706.333 456.667 701.667 456 695 456C688.333 456 680.333 457.167 671 459.5ZM188 473.5C185.333 478.5 187 485.667 193 495C199 504.333 201.833 510 201.5 512C201.167 514 200.167 516.167 198.5 518.5C196.833 520.833 196 523 196 525C196 527 199.833 534.167 207.5 546.5C215.167 558.833 220.5 565.5 223.5 566.5C226.5 567.5 228.833 566.5 230.5 563.5C232.167 560.5 233 558 233 556C233 554 231.167 549.167 227.5 541.5C223.833 533.833 223.5 528 226.5 524C229.5 520 230.833 516.167 230.5 512.5C230.167 508.833 225.833 501.5 217.5 490.5C209.167 479.5 203.833 472.833 201.5 470.5C199.167 468.167 197 466.833 195 466.5C193 466.167 190.667 468.5 188 473.5ZM813 475.5C807 481.833 801.167 489.5 795.5 498.5C789.833 507.5 787.333 513.333 788 516C788.667 518.667 790.333 521.667 793 525C795.667 528.333 795 534.167 791 542.5C787 550.833 785.833 557.167 787.5 561.5C789.167 565.833 791 567.833 793 567.5C795 567.167 797 566 799 564C801 562 805.5 555.167 812.5 543.5C819.5 531.833 821.833 523 819.5 517C817.167 511 818.667 504.167 824 496.5C829.333 488.833 832.333 483.833 833 481.5C833.667 479.167 833 476.333 831 473C829 469.667 827 467.667 825 467C823 466.333 819 469.167 813 475.5ZM382.5 506.5C387.5 506.833 391.167 507.833 393.5 509.5C395.833 511.167 398 513.833 400 517.5C402 521.167 403 524.667 403 528C403 531.333 402.5 534.167 401.5 536.5C400.5 538.833 398.833 541.167 396.5 543.5C394.167 545.833 391.833 547.5 389.5 548.5C387.167 549.5 384.333 550 381 550C377.667 550 374.833 549.5 372.5 548.5C370.167 547.5 367.5 545 364.5 541C361.5 537 359.833 533.167 359.5 529.5C359.167 525.833 359.667 522.333 361 519C362.333 515.667 365 512.667 369 510C373 507.333 377.5 506.167 382.5 506.5ZM639 506.5C643.667 506.833 647.167 507.833 649.5 509.5C651.833 511.167 654 513.833 656 517.5C658 521.167 659 524.667 659 528C659 531.333 658.5 534.167 657.5 536.5C656.5 538.833 654.833 541.167 652.5 543.5C650.167 545.833 647.833 547.5 645.5 548.5C643.167 549.5 640.333 550 637 550C633.667 550 630.833 549.5 628.5 548.5C626.167 547.5 623.333 544.667 620 540C616.667 535.333 615 531.167 615 527.5C615 523.833 615.5 521 616.5 519C617.5 517 618.667 515.167 620 513.5C621.333 511.833 623.667 510.167 627 508.5C630.333 506.833 634.333 506.167 639 506.5ZM446.5 589C442.167 592.333 438.167 596.5 434.5 601.5C430.833 606.5 429 610.333 429 613C429 615.667 429.5 618.167 430.5 620.5C431.5 622.833 433.833 626.667 437.5 632C441.167 637.333 444.667 641.5 448 644.5C451.333 647.5 455.167 649.167 459.5 649.5C463.833 649.833 467.167 649.5 469.5 648.5C470.667 648 471.833 647.5 473 647C471.167 645.167 469.333 643.333 467.5 641.5C463.833 637.833 462.333 635.5 463 634.5C463.667 633.5 467.667 633.333 475 634C482.333 634.667 488.167 637.5 492.5 642.5C496.833 647.5 500.333 650.5 503 651.5C505.667 652.5 509.167 652.5 513.5 651.5C517.833 650.5 522.5 647.5 527.5 642.5C532.5 637.5 538.5 634.833 545.5 634.5C552.5 634.167 556.167 634.667 556.5 636C556.833 637.333 556.667 638.5 556 639.5C555.333 640.5 551.667 643.333 545 648C541.667 650.333 538.333 652.667 535 655C535.667 655.167 536.333 655.333 537 655.5C538.333 655.833 543.833 654 553.5 650C563.167 646 570.167 641.833 574.5 637.5C578.833 633.167 582.333 628.833 585 624.5C587.667 620.167 589 616.5 589 613.5C589 610.5 588.5 608.167 587.5 606.5C586.5 604.833 583.5 601.167 578.5 595.5C573.5 589.833 570 586.5 568 585.5C566 584.5 563 584 559 584C555 584 552 584.5 550 585.5C548 586.5 543.5 591 536.5 599C529.5 607 523.667 612.833 519 616.5C514.333 620.167 510.333 621.667 507 621C503.667 620.333 496.667 614.333 486 603C475.333 591.667 467.167 585.667 461.5 585C455.833 584.333 450.833 585.667 446.5 589ZM466.5 720.5C452.833 722.833 441.5 726 432.5 730C423.5 734 417.667 737.833 415 741.5C412.333 745.167 411 748 411 750C411 752 411.333 753.833 412 755.5C412.667 757.167 414.5 759.167 417.5 761.5C420.5 763.833 424.167 764.667 428.5 764C432.833 763.333 436.167 761.167 438.5 757.5C440.833 753.833 443.333 751.167 446 749.5C448.667 747.833 469.833 747 509.5 747C549.167 747 570 747.5 572 748.5C574 749.5 575.667 751.5 577 754.5C578.333 757.5 580.333 760 583 762C585.667 764 588.667 765 592 765C595.333 765 598.667 763.5 602 760.5C605.333 757.5 607 754.333 607 751C607 747.667 605.5 744.167 602.5 740.5C599.5 736.833 593.667 733.167 585 729.5C576.333 725.833 565.333 722.833 552 720.5C538.667 718.167 524.5 717 509.5 717C494.5 717 480.167 718.167 466.5 720.5Z" fill="#000000" fill-rule="nonzero" opacity="1" stroke="none" vectornator:layerName="Curve 1"/>
</g>
</svg>
