<?xml version="1.0" encoding="UTF-8" standalone="no"?>
<!DOCTYPE svg PUBLIC "-//W3C//DTD SVG 1.1//EN" "http://www.w3.org/Graphics/SVG/1.1/DTD/svg11.dtd">
<!-- Created with Vectornator (http://vectornator.io/) -->
<svg height="100%" stroke-miterlimit="10" style="fill-rule:nonzero;clip-rule:evenodd;stroke-linecap:round;stroke-linejoin:round;" version="1.1" viewBox="174 134.417 673.51 757.583" width="100%" xml:space="preserve" xmlns="http://www.w3.org/2000/svg" xmlns:vectornator="http://vectornator.io" xmlns:xlink="http://www.w3.org/1999/xlink">
<defs/>
<g id="Layer-1" vectornator:layerName="Layer 1">
<path d="M481 136.5C464.333 138.167 446.333 141.667 427 147C407.667 152.333 391.167 158 377.5 164C363.833 170 352.167 175.833 342.5 181.5C332.833 187.167 324.667 192.5 318 197.5C311.333 202.5 306.333 205.333 303 206C299.667 206.667 294.333 206.833 287 206.5C279.667 206.167 272.333 204.333 265 201C257.667 197.667 252.667 194.5 250 191.5C247.333 188.5 245.333 185.333 244 182C242.667 178.667 241.833 173.5 241.5 166.5C241.333 163 241.167 159.5 241 156C239.167 160.333 237.333 164.667 235.5 169C231.833 177.667 229 187.167 227 197.5C225 207.833 223.833 220.167 223.5 234.5C223.167 248.833 223.667 263.833 225 279.5C226.333 295.167 228.333 310.833 231 326.5C233.667 342.167 237.333 359 242 377C246.667 395 251.333 410.833 256 424.5C260.667 438.167 265.667 450.667 271 462C276.333 473.333 281.333 482.333 286 489C290.667 495.667 295.667 501.667 301 507C303.667 509.667 306.333 512.333 309 515C307.333 510.333 305.667 505.667 304 501C300.667 491.667 297.333 479 294 463C290.667 447 288.333 432 287 418C285.667 404 285.167 389 285.5 373C285.833 357 286.833 343.667 288.5 333C290.167 322.333 292.333 313 295 305C297.667 297 301.167 289.5 305.5 282.5C309.833 275.5 314.833 269.667 320.5 265C326.167 260.333 330.833 257.333 334.5 256C338.167 254.667 342 253.833 346 253.5C350 253.167 356.667 254 366 256C375.333 258 389.333 263.333 408 272C426.667 280.667 447.333 291.5 470 304.5C492.667 317.5 505.5 324.5 508.5 325.5C511.5 326.5 524 320.667 546 308C568 295.333 586.833 285 602.5 277C618.167 269 630.167 263.5 638.5 260.5C646.833 257.5 654.833 255.5 662.5 254.5C670.167 253.5 677.167 254 683.5 256C689.833 258 696.333 262.167 703 268.5C709.667 274.833 715 281.833 719 289.5C723 297.167 726.5 307.167 729.5 319.5C732.5 331.833 734.333 341.333 735 348C735.667 354.667 735.667 370 735 394C734.333 418 732.833 436.833 730.5 450.5C728.167 464.167 724.833 478.333 720.5 493C718.333 500.333 716.167 507.667 714 515C717.5 511 721 507 724.5 503C731.5 495 738.333 484.833 745 472.5C751.667 460.167 758 445.667 764 429C770 412.333 775.833 392.333 781.5 369C787.167 345.667 791.167 325.5 793.5 308.5C795.833 291.5 797.333 274.667 798 258C798.667 241.333 798.167 226 796.5 212C794.833 198 791.833 185.333 787.5 174C785.333 168.333 783.167 162.667 781 157C780.833 160.333 780.667 163.667 780.5 167C780.167 173.667 778.167 180 774.5 186C770.833 192 765.833 196.667 759.5 200C753.167 203.333 745.667 205.333 737 206C728.333 206.667 722.333 206.667 719 206C715.667 205.333 706.5 200 691.5 190C676.5 180 660.667 171.333 644 164C627.333 156.667 610.167 150.667 592.5 146C574.833 141.333 561.167 138.333 551.5 137C541.833 135.667 531.833 134.833 521.5 134.5C511.167 134.167 497.667 134.833 481 136.5ZM331.5 388C323.167 390 316.333 392.167 311 394.5C308.333 395.667 305.667 396.833 303 398C304.667 398.167 306.333 398.333 308 398.5C311.333 398.833 314.833 400 318.5 402C322.167 404 331.667 412 347 426C354.667 433 362.333 440 370 447C369.5 447.167 369 447.333 368.5 447.5C367.5 447.833 363.667 447 357 445C350.333 443 346.167 442.167 344.5 442.5C342.833 442.833 340.833 444.167 338.5 446.5C336.167 448.833 334.333 452.167 333 456.5C331.667 460.833 330.667 465.167 330 469.5C329.333 473.833 329.333 481.833 330 493.5C330.667 505.167 332.333 514.5 335 521.5C337.667 528.5 340.667 534.333 344 539C347.333 543.667 351.667 548.333 357 553C362.333 557.667 368.5 561.5 375.5 564.5C382.5 567.5 390.833 568.667 400.5 568C410.167 567.333 421 564.833 433 560.5C445 556.167 451.5 554.167 452.5 554.5C453 554.667 453.5 554.833 454 555C452.667 556.167 451.333 557.333 450 558.5C448.667 559.667 447.333 560.833 446 562C447.167 562.333 448.333 562.667 449.5 563C451.833 563.667 455.667 562.833 461 560.5C466.333 558.167 471.167 555.5 475.5 552.5C479.833 549.5 484.5 545.5 489.5 540.5C494.5 535.5 498.5 530.333 501.5 525C504.5 519.667 506 509.833 506 495.5C506 488.333 506 481.167 506 474C505 477.833 504 481.667 503 485.5C501 493.167 499.167 498.667 497.5 502C495.833 505.333 493.5 508.5 490.5 511.5C487.5 514.5 484.833 516.5 482.5 517.5C480.167 518.5 477.167 519 473.5 519C469.833 519 465.5 518 460.5 516C455.5 514 449.333 510.167 442 504.5C434.667 498.833 428.667 493.5 424 488.5C419.333 483.5 412 474 402 460C392 446 379.5 432.5 364.5 419.5C357 413 349.5 406.5 342 400C344.333 399.5 346.667 399 349 398.5C353.667 397.5 357.833 397.167 361.5 397.5C365.167 397.833 372 400 382 404C387 406 392 408 397 410C391 406 385 402 379 398C367 390 358.167 385.833 352.5 385.5C346.833 385.167 339.833 386 331.5 388ZM653.5 390C647.167 393.333 640.833 397.667 634.5 403C631.333 405.667 628.167 408.333 625 411C629.833 408.833 634.667 406.667 639.5 404.5C649.167 400.167 656.333 397.833 661 397.5C665.667 397.167 669.833 397.333 673.5 398C677.167 398.667 679 399.333 679 400C679 400.667 675.333 403.833 668 409.5C660.667 415.167 653.167 421.667 645.5 429C637.833 436.333 628.333 447.667 617 463C605.667 478.333 594.833 490.5 584.5 499.5C574.167 508.5 566.5 514 561.5 516C556.5 518 552.167 519 548.5 519C544.833 519 541.833 518.5 539.5 517.5C537.167 516.5 535 515.167 533 513.5C531 511.833 528.833 509.167 526.5 505.5C524.167 501.833 521.833 495.667 519.5 487C518.333 482.667 517.167 478.333 516 474C516 481.167 516 488.333 516 495.5C516 509.833 518 520.333 522 527C526 533.667 531 539.667 537 545C543 550.333 549.667 554.833 557 558.5C564.333 562.167 569.167 563.833 571.5 563.5C572.667 563.333 573.833 563.167 575 563C573.5 561.5 572 560 570.5 558.5C569 557 567.5 555.5 566 554C566.333 553.833 566.667 553.667 567 553.5C567.667 553.167 570.5 554.167 575.5 556.5C580.5 558.833 587 561.167 595 563.5C603 565.833 611.667 567.333 621 568C630.333 568.667 638.667 567.5 646 564.5C653.333 561.5 660.167 557 666.5 551C672.833 545 677.833 538.833 681.5 532.5C685.167 526.167 687.667 520.667 689 516C690.333 511.333 691.333 504 692 494C692.667 484 692.5 475.833 691.5 469.5C690.5 463.167 689.333 458.167 688 454.5C686.667 450.833 685 448 683 446C681 444 679 442.833 677 442.5C675 442.167 670.333 442.833 663 444.5C659.333 445.333 655.667 446.167 652 447C658.333 441 664.667 435 671 429C683.667 417 691.833 409.667 695.5 407C699.167 404.333 703.833 402 709.5 400C712.333 399 715.167 398 718 397C712 395.167 706 393.333 700 391.5C688 387.833 678.833 385.833 672.5 385.5C666.167 385.167 659.833 386.667 653.5 390ZM199 481.5C215.667 541.167 237.167 582.667 263.5 606C289.833 629.333 310.333 658.667 325 694C339.667 729.333 366.833 771.167 406.5 819.5C446.167 867.833 480.667 892 510 892C539.333 892 573.667 868.167 613 820.5C652.333 772.833 679.333 731.167 694 695.5C708.667 659.833 729.5 630.167 756.5 606.5C783.5 582.833 805.5 541.5 822.5 482.5C839.5 423.5 847.833 393.667 847.5 393C847.333 392.667 847.167 392.333 847 392C845.833 393 844.667 394 843.5 395C841.167 397 826.667 411.167 800 437.5C773.333 463.833 759.667 477.667 759 479C758.333 480.333 758 483.167 758 487.5C758 491.833 758.667 495.5 760 498.5C761.333 501.5 763.333 504.167 766 506.5C768.667 508.833 772.167 510.667 776.5 512C778.667 512.667 780.833 513.333 783 514C783 510.667 783 507.333 783 504C783 497.333 787.833 487.167 797.5 473.5C802.333 466.667 807.167 459.833 812 453C812 457.333 812 461.667 812 466C812 474.667 807.5 492.667 798.5 520C789.5 547.333 784 562 782 564C780 566 777.667 567 775 567C772.333 567 768.5 565.167 763.5 561.5C758.5 557.833 755 554.333 753 551C752 549.333 751 547.667 750 546C753.167 546.167 756.333 546.333 759.5 546.5C762.667 546.667 765.833 546.833 769 547C768.833 545.667 768.667 544.333 768.5 543C768.167 540.333 767.167 537.5 765.5 534.5C763.833 531.5 759.833 527.5 753.5 522.5C750.333 520 747.167 517.5 744 515C744.167 517.833 744.333 520.667 744.5 523.5C744.833 529.167 744.5 533 743.5 535C742.5 537 740.833 539 738.5 541C736.167 543 735 545.333 735 548C735 550.667 738 556.5 744 565.5C750 574.5 753.333 580.5 754 583.5C754.667 586.5 754 589.333 752 592C750 594.667 736.167 605.667 710.5 625C697.667 634.667 684.833 644.333 672 654C675.167 653.5 678.333 653 681.5 652.5C687.833 651.5 691.167 651.333 691.5 652C691.833 652.667 685.833 667.667 673.5 697C661.167 726.333 636.833 763.333 600.5 808C564.167 852.667 534 875 510 875C486 875 455.5 852.167 418.5 806.5C381.5 760.833 357.167 723.667 345.5 695C339.667 680.667 333.833 666.333 328 652C331.333 652.333 334.667 652.667 338 653C341.333 653.333 344.667 653.667 348 654C334.667 643.667 321.333 633.333 308 623C281.333 602.333 267.667 590.5 267 587.5C266.333 584.5 269.5 577.5 276.5 566.5C283.5 555.5 286.833 548.833 286.5 546.5C286.167 544.167 284.5 541.5 281.5 538.5C278.5 535.5 276.833 532.167 276.5 528.5C276.167 524.833 276.333 521.667 277 519C277.333 517.667 277.667 516.333 278 515C275 517.167 272 519.333 269 521.5C263 525.833 258.833 530.167 256.5 534.5C254.167 538.833 253 542 253 544C253 545 253 546 253 547C255.833 546.667 258.667 546.333 261.5 546C267.167 545.333 270.167 545.5 270.5 546.5C270.833 547.5 270.333 549 269 551C267.667 553 264.5 556 259.5 560C254.5 564 250.167 566.167 246.5 566.5C242.833 566.833 240.333 566.5 239 565.5C237.667 564.5 232.667 550.833 224 524.5C215.333 498.167 210.667 479.667 210 469C209.667 463.667 209.333 458.333 209 453C209.333 453 209.667 453 210 453C210.667 453 215.5 459.667 224.5 473C233.5 486.333 238 496.5 238 503.5C238 507 238 510.5 238 514C239.5 513.667 241 513.333 242.5 513C245.5 512.333 248.833 510.833 252.5 508.5C256.167 506.167 259 502.667 261 498C263 493.333 263.833 489 263.5 485C263.167 481 248.167 464.5 218.5 435.5C203.667 421 188.833 406.5 174 392C182.333 421.833 190.667 451.667 199 481.5ZM398 495C402.667 495 406.167 495.5 408.5 496.5C410.833 497.5 413.167 499 415.5 501C417.833 503 420 506.167 422 510.5C424 514.833 424.833 519.167 424.5 523.5C424.167 527.833 423.333 531.333 422 534C420.667 536.667 418.5 539.333 415.5 542C412.5 544.667 409.5 546.5 406.5 547.5C403.5 548.5 400.667 549 398 549C395.333 549 392.167 548.333 388.5 547C384.833 545.667 381.5 543.5 378.5 540.5C375.5 537.5 373.5 534.833 372.5 532.5C371.5 530.167 371 526.5 371 521.5C371 516.5 371.5 512.833 372.5 510.5C373.5 508.167 375.333 505.667 378 503C380.667 500.333 383.5 498.333 386.5 497C389.5 495.667 393.333 495 398 495ZM627 496C633.667 496.667 638.333 498 641 500C643.667 502 646 504.833 648 508.5C650 512.167 651.167 515.833 651.5 519.5C651.833 523.167 651.333 526.833 650 530.5C648.667 534.167 646.5 537.5 643.5 540.5C640.5 543.5 637.167 545.667 633.5 547C629.833 548.333 626.667 549 624 549C621.333 549 618.167 548.333 614.5 547C610.833 545.667 607.833 543.833 605.5 541.5C603.167 539.167 601.167 535.833 599.5 531.5C597.833 527.167 597.167 523 597.5 519C597.833 515 598.667 511.667 600 509C601.333 506.333 604.5 503.333 609.5 500C614.5 496.667 620.333 495.333 627 496ZM388.5 511C385.5 513.667 384 517.167 384 521.5C384 525.833 385.333 529.333 388 532C390.667 534.667 393.833 536 397.5 536C401.167 536 404.5 534.5 407.5 531.5C410.5 528.5 412 525.167 412 521.5C412 517.833 410.5 514.5 407.5 511.5C404.5 508.5 401.333 507 398 507C394.667 507 391.5 508.333 388.5 511ZM614.5 511.5C611.5 514.5 610 517.833 610 521.5C610 525.167 611.5 528.5 614.5 531.5C617.5 534.5 620.833 536 624.5 536C628.167 536 631.333 534.833 634 532.5C636.667 530.167 638.167 527 638.5 523C638.833 519 638 515.667 636 513C634 510.333 630.667 508.667 626 508C621.333 507.333 617.5 508.5 614.5 511.5ZM343 557.5C350.333 565.833 357.833 573.5 365.5 580.5C373.167 587.5 379.5 591 384.5 591C389.5 591 399.667 588.833 415 584.5C422.667 582.333 430.333 580.167 438 578C437.667 577.167 437.333 576.333 437 575.5C436.333 573.833 430 573.833 418 575.5C406 577.167 396.833 578 390.5 578C384.167 578 378 576.5 372 573.5C366 570.5 357.833 565 347.5 557C342.333 553 337.167 549 332 545C335.667 549.167 339.333 553.333 343 557.5ZM676.5 555C668.167 561.667 660.167 567.167 652.5 571.5C644.833 575.833 638 578 632 578C626 578 618.667 577.167 610 575.5C601.333 573.833 595 573 591 573C587 573 584.833 573.833 584.5 575.5C584.167 577.167 591.5 580.167 606.5 584.5C621.5 588.833 631.333 591 636 591C640.667 591 644.833 589.833 648.5 587.5C652.167 585.167 659.833 577.5 671.5 564.5C677.333 558 683.167 551.5 689 545C684.833 548.333 680.667 551.667 676.5 555ZM498.5 549.5C496.833 550.5 496 552.333 496 555C496 557.667 497.833 574.833 501.5 606.5C503.333 622.333 505.167 638.167 507 654C506 636.333 505 618.667 504 601C503 583.333 502 565.667 501 548C500.167 548.5 499.333 549 498.5 549.5ZM517 602C516 620 515 638 514 656C516.167 638.833 518.333 621.667 520.5 604.5C524.833 570.167 525.833 552.167 523.5 550.5C522.333 549.667 521.167 548.833 520 548C519 566 518 584 517 602ZM632.5 657C610.833 671 595.167 683.667 585.5 695C575.833 706.333 564 712.833 550 714.5C536 716.167 523.333 717 512 717C500.667 717 487.5 716.167 472.5 714.5C457.5 712.833 445.5 706.833 436.5 696.5C427.5 686.167 412 673.667 390 659C379 651.667 368 644.333 357 637C356.833 637.333 356.667 637.667 356.5 638C356.167 638.667 362.333 648.833 375 668.5C387.667 688.167 397.833 707.5 405.5 726.5C413.167 745.5 421.667 760 431 770C440.333 780 450 788.833 460 796.5C470 804.167 486.833 808 510.5 808C534.167 808 551.333 803.833 562 795.5C572.667 787.167 582 778.833 590 770.5C598 762.167 603.5 755.167 606.5 749.5C609.5 743.833 613.667 733.833 619 719.5C624.333 705.167 633.667 688 647 668C660.333 648 666.667 637.667 666 637C665.333 636.333 654.167 643 632.5 657ZM475 658C473.667 659.333 473 661.167 473 663.5C473 665.833 479.167 672.167 491.5 682.5C503.833 692.833 515.5 693.833 526.5 685.5C537.5 677.167 544 671.833 546 669.5C548 667.167 549 665.167 549 663.5C549 661.833 548.5 660.333 547.5 659C546.5 657.667 544.5 656.833 541.5 656.5C538.5 656.167 533.5 660.5 526.5 669.5C519.5 678.5 514.667 683.167 512 683.5C509.333 683.833 507 683.333 505 682C503 680.667 500.833 678 498.5 674C496.167 670 493.167 666 489.5 662C485.833 658 482.833 656 480.5 656C478.167 656 476.333 656.667 475 658ZM421 708C421.833 708 422.667 708 423.5 708C425.167 708 429.333 710.5 436 715.5C442.667 720.5 456.333 724 477 726C497.667 728 519.333 728 542 726C564.667 724 578.833 720.833 584.5 716.5C590.167 712.167 594.167 709.667 596.5 709C597.667 708.667 598.833 708.333 600 708C600 708.333 600 708.667 600 709C600 709.667 597.667 714.5 593 723.5C590.667 728 588.333 732.5 586 737C584.333 735.333 582.667 733.667 581 732C577.667 728.667 575.333 727 574 727C572.667 727 571.167 727.833 569.5 729.5C567.833 731.167 565.833 735.667 563.5 743C562.333 746.667 561.167 750.333 560 754C559 752.5 558 751 557 749.5C555 746.5 552.333 743.667 549 741C545.667 738.333 543.167 737.167 541.5 737.5C539.833 737.833 538 738.833 536 740.5C534 742.167 531.333 741.667 528 739C524.667 736.333 520.333 734.667 515 734C509.667 733.333 505 733.833 501 735.5C497 737.167 494.167 738.833 492.5 740.5C490.833 742.167 489.5 743 488.5 743C487.5 743 486.167 742.167 484.5 740.5C482.833 738.833 481 738 479 738C477 738 474.5 739.5 471.5 742.5C468.5 745.5 466.5 748.167 465.5 750.5C464.5 752.833 463.667 754 463 754C462.333 754 460.833 750.333 458.5 743C456.167 735.667 454.333 731.333 453 730C451.667 728.667 450.167 727.833 448.5 727.5C446.833 727.167 444.5 728.833 441.5 732.5C440 734.333 438.5 736.167 437 738C434.333 733 431.667 728 429 723C426.333 718 423.667 713 421 708ZM465.5 764.5C466.5 764.833 467.167 766 467.5 768C467.833 770 469.167 772.833 471.5 776.5C473.833 780.167 475.667 782.167 477 782.5C478.333 782.833 480.833 781.667 484.5 779C488.167 776.333 490.833 776 492.5 778C494.167 780 496.667 781.667 500 783C503.333 784.333 508.167 784.667 514.5 784C520.833 783.333 525.333 781.833 528 779.5C530.667 777.167 534.167 777.167 538.5 779.5C542.833 781.833 546 782.167 548 780.5C550 778.833 551.833 775.667 553.5 771C555.167 766.333 556.5 764 557.5 764C558.5 764 560.167 765 562.5 767C564.833 769 567.833 769.333 571.5 768C573.333 767.333 575.167 766.667 577 766C574.5 768.667 572 771.333 569.5 774C564.5 779.333 558.167 784.5 550.5 789.5C542.833 794.5 529.667 797 511 797C492.333 797 480 795.167 474 791.5C468 787.833 462 783.167 456 777.5C450 771.833 446.833 768.5 446.5 767.5C446.333 767 446.167 766.5 446 766C446.333 766 446.667 766 447 766C447.667 766 448.667 766.667 450 768C451.333 769.333 453 770 455 770C457 770 459 769 461 767C463 765 464.5 764.167 465.5 764.5ZM489 826C482.333 826.667 478.667 827.833 478 829.5C477.333 831.167 477.5 832.5 478.5 833.5C479.5 834.5 490.167 835 510.5 835C530.833 835 541.5 834.333 542.5 833C543.5 831.667 543.667 830.333 543 829C542.333 827.667 541.333 826.833 540 826.5C538.667 826.167 531.5 825.833 518.5 825.5C505.5 825.167 495.667 825.333 489 826Z" fill="#000000" fill-rule="nonzero" opacity="1" stroke="none" vectornator:layerName="Curve 1"/>
</g>
</svg>
